{"canvas_config":{"height":1920,"ratio":"original","width":1280},"color_space":0,"config":{"adjust_max_index":1,"attachment_info":[],"combination_max_index":1,"export_range":null,"extract_audio_last_index":1,"lyrics_recognition_id":"","lyrics_sync":true,"lyrics_taskinfo":[],"maintrack_adsorb":true,"material_save_mode":0,"multi_language_current":"none","multi_language_list":[],"multi_language_main":"none","multi_language_mode":"none","original_sound_last_index":1,"record_audio_last_index":1,"sticker_max_index":1,"subtitle_keywords_config":null,"subtitle_recognition_id":"","subtitle_sync":true,"subtitle_taskinfo":[],"system_font_list":[],"video_mute":false,"zoom_info_params":{"offset_x":0.0,"offset_y":0.0,"zoom_ratio":0.9999400000000003}},"cover":null,"create_time":0,"duration":81033333,"extra_info":null,"fps":30.0,"free_render_index_mode_on":false,"group_container":null,"id":"846CC5AA-FA75-4fb7-8D5F-A6AB7688F0DE","keyframe_graph_list":[],"keyframes":{"adjusts":[],"audios":[],"effects":[],"filters":[],"handwrites":[],"stickers":[],"texts":[],"videos":[]},"last_modified_platform":{"app_id":359289,"app_source":"cc","app_version":"3.9.0","device_id":"b000ef05ad8a2c8de98905bbc4a2a13d","hard_disk_id":"98697f5b2672733057711c84e4b517c3","mac_address":"3ab780bc59d11a00e1ba676c31de1115,09861091e4eef2367b35d8703476edfc","os":"windows","os_version":"10.0.26100"},"materials":{"ai_translates":[],"audio_balances":[],"audio_effects":[],"audio_fades":[],"audio_track_indexes":[],"audios":[],"beats":[],"canvases":[{"album_image":"","blur":0.0,"color":"","id":"A522B8CB-C1EB-4f69-AFB0-A2CAAB659CA0","image":"","image_id":"","image_name":"","source_platform":0,"team_id":"","type":"canvas_color"},{"album_image":"","blur":0.0,"color":"","id":"6A2D02B0-9FD8-4ea5-A735-31BAFEB57A04","image":"","image_id":"","image_name":"","source_platform":0,"team_id":"","type":"canvas_color"},{"album_image":"","blur":0.0,"color":"","id":"71E4B1BC-1307-41ef-A1D4-C3EEA8DE4C1F","image":"","image_id":"","image_name":"","source_platform":0,"team_id":"","type":"canvas_color"},{"album_image":"","blur":0.0,"color":"","id":"D1C1154D-2B35-4e6f-8068-72316B38C709","image":"","image_id":"","image_name":"","source_platform":0,"team_id":"","type":"canvas_color"},{"album_image":"","blur":0.0,"color":"","id":"D10E767D-3B17-4829-A854-577016A2302D","image":"","image_id":"","image_name":"","source_platform":0,"team_id":"","type":"canvas_color"},{"album_image":"","blur":0.0,"color":"","id":"BF62C067-1147-490a-876A-A241CFB458B9","image":"","image_id":"","image_name":"","source_platform":0,"team_id":"","type":"canvas_color"},{"album_image":"","blur":0.0,"color":"","id":"353AE8EE-3CE7-4c0b-A322-EDA25C1035C5","image":"","image_id":"","image_name":"","source_platform":0,"team_id":"","type":"canvas_color"},{"album_image":"","blur":0.0,"color":"","id":"4EECD4B1-A2EF-4000-95AF-D4DF7E46577F","image":"","image_id":"","image_name":"","source_platform":0,"team_id":"","type":"canvas_color"},{"album_image":"","blur":0.0,"color":"","id":"3F668A70-98CC-481b-AEF8-B7A15E5F66FE","image":"","image_id":"","image_name":"","source_platform":0,"team_id":"","type":"canvas_color"},{"album_image":"","blur":0.0,"color":"","id":"C211885F-D63C-41c2-841E-7F41E0BE8620","image":"","image_id":"","image_name":"","source_platform":0,"team_id":"","type":"canvas_color"},{"album_image":"","blur":0.0,"color":"","id":"B253D941-6583-4baf-92F3-C45EF98652CD","image":"","image_id":"","image_name":"","source_platform":0,"team_id":"","type":"canvas_color"},{"album_image":"","blur":0.0,"color":"","id":"E2ACDCFD-8846-4fc4-8668-C78E709F4B9C","image":"","image_id":"","image_name":"","source_platform":0,"team_id":"","type":"canvas_color"},{"album_image":"","blur":0.0,"color":"","id":"09DBFEEC-75E5-402d-A9B3-8171EB4F8A69","image":"","image_id":"","image_name":"","source_platform":0,"team_id":"","type":"canvas_color"},{"album_image":"","blur":0.0,"color":"","id":"1E298458-BB9C-4faa-8872-543B11C59A6A","image":"","image_id":"","image_name":"","source_platform":0,"team_id":"","type":"canvas_color"},{"album_image":"","blur":0.0,"color":"","id":"32497380-5486-4f59-AD7E-B3487448BAA0","image":"","image_id":"","image_name":"","source_platform":0,"team_id":"","type":"canvas_color"},{"album_image":"","blur":0.0,"color":"","id":"A80A87FC-AB41-4b04-BEE9-D20C8F7157DA","image":"","image_id":"","image_name":"","source_platform":0,"team_id":"","type":"canvas_color"},{"album_image":"","blur":0.0,"color":"","id":"72284ACA-FA9A-46ea-ABE8-37DAF6E5E1B9","image":"","image_id":"","image_name":"","source_platform":0,"team_id":"","type":"canvas_color"},{"album_image":"","blur":0.0,"color":"","id":"54FF21F4-D727-4523-86AB-1E45F33CE633","image":"","image_id":"","image_name":"","source_platform":0,"team_id":"","type":"canvas_color"},{"album_image":"","blur":0.0,"color":"","id":"2E8991C0-0770-47e4-A4A0-4656FEE0DD09","image":"","image_id":"","image_name":"","source_platform":0,"team_id":"","type":"canvas_color"},{"album_image":"","blur":0.0,"color":"","id":"4D378065-F78C-4fc6-81AF-BD5AE6BC503F","image":"","image_id":"","image_name":"","source_platform":0,"team_id":"","type":"canvas_color"}],"chromas":[],"color_curves":[],"digital_humans":[],"drafts":[],"effects":[],"flowers":[],"green_screens":[],"handwrites":[],"hsl":[],"images":[],"log_color_wheels":[],"loudnesses":[{"enable":false,"file_id":"","id":"33047A21-2A1B-4fe2-93D9-3AD98D8B983D","loudness_param":null,"target_loudness":0.0,"time_range":null},{"enable":false,"file_id":"","id":"FF1BCEAB-B688-4e2a-B1E6-EA4FA99067B7","loudness_param":null,"target_loudness":0.0,"time_range":null},{"enable":false,"file_id":"","id":"FCA7F642-1DF0-4421-80C4-B2FFFCC8D6BA","loudness_param":null,"target_loudness":0.0,"time_range":null},{"enable":false,"file_id":"","id":"219746C7-9830-4446-ADE1-3CE6E1FB4B00","loudness_param":null,"target_loudness":0.0,"time_range":null},{"enable":false,"file_id":"","id":"ECEDCC4B-EC94-4e20-9654-84E9076FD8BC","loudness_param":null,"target_loudness":0.0,"time_range":null},{"enable":false,"file_id":"","id":"B9F838D5-2D19-4b10-A230-930AADFBC9C0","loudness_param":null,"target_loudness":0.0,"time_range":null},{"enable":false,"file_id":"","id":"3F5A743B-56E3-4231-95A5-84AA2818130D","loudness_param":null,"target_loudness":0.0,"time_range":null},{"enable":false,"file_id":"","id":"3D00EE7C-D629-4cbf-BB19-08E67F18ACD8","loudness_param":null,"target_loudness":0.0,"time_range":null},{"enable":false,"file_id":"","id":"8B4B714C-3122-4f14-B7F4-A20D0324883A","loudness_param":null,"target_loudness":0.0,"time_range":null},{"enable":false,"file_id":"","id":"5C91FAE0-5439-4e41-9459-2BA02959FC7E","loudness_param":null,"target_loudness":0.0,"time_range":null},{"enable":false,"file_id":"","id":"8312441D-2E5B-4c8e-9CC0-85292C30E4A3","loudness_param":null,"target_loudness":0.0,"time_range":null},{"enable":false,"file_id":"","id":"06271337-214D-4c5a-B9B0-C8A147D2EA4B","loudness_param":null,"target_loudness":0.0,"time_range":null},{"enable":false,"file_id":"","id":"CDC60658-199E-4da9-A276-4C3E162EEB6C","loudness_param":null,"target_loudness":0.0,"time_range":null},{"enable":false,"file_id":"","id":"186DD8D6-9B3F-4a44-96E3-FAF67E4F5AEA","loudness_param":null,"target_loudness":0.0,"time_range":null},{"enable":false,"file_id":"","id":"B2BC984C-A05A-4e38-BEC3-6C0F34536AE9","loudness_param":null,"target_loudness":0.0,"time_range":null},{"enable":false,"file_id":"","id":"C26326BA-57AD-4f24-9797-553B39A7B930","loudness_param":null,"target_loudness":0.0,"time_range":null},{"enable":false,"file_id":"","id":"464F54FD-CDD6-4718-B9DA-D6A4825A9EA8","loudness_param":null,"target_loudness":0.0,"time_range":null},{"enable":false,"file_id":"","id":"6C883250-8F91-49b6-BA41-E3CA95489FE3","loudness_param":null,"target_loudness":0.0,"time_range":null}],"manual_deformations":[],"masks":[],"material_animations":[{"animations":[],"id":"47DE21B7-CB35-4e85-B93A-74EE2132C2F1","multi_language_current":"none","type":"sticker_animation"},{"animations":[],"id":"1AEB1249-A8A4-46ca-B5A2-F45537ECD678","multi_language_current":"none","type":"sticker_animation"},{"animations":[],"id":"6648F808-C15F-4a75-9539-6D2A3F2B93C1","multi_language_current":"none","type":"sticker_animation"},{"animations":[],"id":"B07A4895-1EB2-4071-B518-A92273FA314D","multi_language_current":"none","type":"sticker_animation"},{"animations":[],"id":"84D7E9E9-2123-4ef2-8C5B-C33F6FDEADC2","multi_language_current":"none","type":"sticker_animation"},{"animations":[],"id":"86A02356-D67B-4e5b-9A69-32642CEF9D6A","multi_language_current":"none","type":"sticker_animation"},{"animations":[],"id":"9A06185F-1F8E-4397-87A8-AF5B9981AAA6","multi_language_current":"none","type":"sticker_animation"},{"animations":[],"id":"A22C55D7-DF71-4813-ABD4-785B6A6D32C9","multi_language_current":"none","type":"sticker_animation"},{"animations":[],"id":"C5F71FE8-4211-4bf5-9DB1-B81F79DF65BA","multi_language_current":"none","type":"sticker_animation"},{"animations":[],"id":"11836D50-5891-460b-B8BC-7FF44DAFB0E9","multi_language_current":"none","type":"sticker_animation"},{"animations":[],"id":"D3EB1D8C-2B84-468c-9324-A61B1D9123B2","multi_language_current":"none","type":"sticker_animation"},{"animations":[],"id":"D5194C6D-12A5-4274-B0D9-DE249947806F","multi_language_current":"none","type":"sticker_animation"},{"animations":[],"id":"000665C1-3FAD-4382-B6F1-23431D135C7E","multi_language_current":"none","type":"sticker_animation"},{"animations":[],"id":"4A55EDE7-F762-4538-8E89-A9660E1A366C","multi_language_current":"none","type":"sticker_animation"},{"animations":[],"id":"B0F7B163-D5D2-4c91-9A08-D727844BE4A8","multi_language_current":"none","type":"sticker_animation"},{"animations":[],"id":"F3624215-C451-4294-A2CD-EEA6107C6DCA","multi_language_current":"none","type":"sticker_animation"},{"animations":[],"id":"3F7499B8-D247-4958-990F-F44C28A3BF6C","multi_language_current":"none","type":"sticker_animation"},{"animations":[],"id":"79BD9C09-2C44-4000-A5DF-D7B0FBA3AEFD","multi_language_current":"none","type":"sticker_animation"},{"animations":[],"id":"932885B6-FEAD-4d21-8B90-EB0E959774F6","multi_language_current":"none","type":"sticker_animation"},{"animations":[],"id":"6DD7902C-D0A9-4170-9A47-1DE42F35FC78","multi_language_current":"none","type":"sticker_animation"}],"material_colors":[],"multi_language_refs":[],"placeholders":[],"plugin_effects":[],"primary_color_wheels":[],"realtime_denoises":[],"shapes":[],"smart_crops":[],"smart_relights":[],"sound_channel_mappings":[{"audio_channel_mapping":0,"id":"15319D80-6388-446a-9D24-01228B79F68D","is_config_open":false,"type":"none"},{"audio_channel_mapping":0,"id":"1922C325-B10F-4a42-A082-F4574AAAEDC9","is_config_open":false,"type":"none"},{"audio_channel_mapping":0,"id":"A7E36015-989B-45b6-8011-2983E75323F0","is_config_open":false,"type":"none"},{"audio_channel_mapping":0,"id":"875A2E5B-8813-48d0-8F8F-0C123D0FBB64","is_config_open":false,"type":"none"},{"audio_channel_mapping":0,"id":"EED231CC-272C-426f-8D42-804DF34DD46E","is_config_open":false,"type":"none"},{"audio_channel_mapping":0,"id":"90A51187-A2A5-4f1f-B0E3-E075C2A57F5E","is_config_open":false,"type":"none"},{"audio_channel_mapping":0,"id":"3B76580F-58DF-404b-86AF-BF1BBAA1727F","is_config_open":false,"type":"none"},{"audio_channel_mapping":0,"id":"6A95A0C5-5724-4d14-9404-CFADD8F2480D","is_config_open":false,"type":"none"},{"audio_channel_mapping":0,"id":"DF2EA8D1-FEF7-4678-904A-D9700B685515","is_config_open":false,"type":"none"},{"audio_channel_mapping":0,"id":"8DFC81DC-97E8-4b9f-8487-C1479072F865","is_config_open":false,"type":"none"},{"audio_channel_mapping":0,"id":"D2315624-0B7E-4ae5-9C8E-38A163B73E31","is_config_open":false,"type":"none"},{"audio_channel_mapping":0,"id":"91791D0A-77DD-4948-943E-9EFB024A7AF6","is_config_open":false,"type":"none"},{"audio_channel_mapping":0,"id":"4FD7E9E0-0A24-42ae-B285-900A789E102D","is_config_open":false,"type":"none"},{"audio_channel_mapping":0,"id":"EAB4F6C4-577A-42a9-A6BD-22B6B3950D36","is_config_open":false,"type":"none"},{"audio_channel_mapping":0,"id":"B28944C2-92D4-44a6-8B89-E3F9AA7130E9","is_config_open":false,"type":"none"},{"audio_channel_mapping":0,"id":"13A145BB-4DDA-48da-B6D7-0C2FED3F520A","is_config_open":false,"type":"none"},{"audio_channel_mapping":0,"id":"7345E97A-C4C9-4a92-A5DE-54656CB5353E","is_config_open":false,"type":"none"},{"audio_channel_mapping":0,"id":"67D4E847-9B10-4390-BDE8-C2CDA509233A","is_config_open":false,"type":"none"},{"audio_channel_mapping":0,"id":"A4903210-19ED-4c36-8B13-88EF08002AF9","is_config_open":false,"type":""},{"audio_channel_mapping":0,"id":"0E0CB064-9F8F-4e1c-8790-4EBD38EF3A66","is_config_open":false,"type":""}],"speeds":[{"curve_speed":null,"id":"3AD14920-6E0E-4cda-8EFB-FF8E5ECEA0A3","mode":0,"speed":1.0,"type":"speed"},{"curve_speed":null,"id":"2409AA61-3247-4da3-8DB2-DCBF0647B3CA","mode":0,"speed":1.0,"type":"speed"},{"curve_speed":null,"id":"612B65B2-8680-462a-B8C8-5B169DC4C198","mode":0,"speed":1.0,"type":"speed"},{"curve_speed":null,"id":"AA168A21-F936-4845-8418-3FF86DAA8837","mode":0,"speed":1.0,"type":"speed"},{"curve_speed":null,"id":"4FA6FEED-8496-4772-903A-2CC8234E82D0","mode":0,"speed":1.0,"type":"speed"},{"curve_speed":null,"id":"3004BE70-773F-4815-898F-CB6354B4E443","mode":0,"speed":1.0,"type":"speed"},{"curve_speed":null,"id":"D568E760-8A8A-495f-A12C-E95480B4882F","mode":0,"speed":1.0,"type":"speed"},{"curve_speed":null,"id":"4470B128-D25D-4a22-BC75-355F3B2185C0","mode":0,"speed":1.0,"type":"speed"},{"curve_speed":null,"id":"3D63A51C-CD77-401a-A873-E8697A137C56","mode":0,"speed":1.0,"type":"speed"},{"curve_speed":null,"id":"2A0E9B1B-1DBE-4bdd-933E-47A304ABA80D","mode":0,"speed":1.0,"type":"speed"},{"curve_speed":null,"id":"1D6D27CB-ADD3-45ea-8D40-78552F3E2044","mode":0,"speed":1.0,"type":"speed"},{"curve_speed":null,"id":"C253F8BE-E663-45a8-BEA5-C93BC812FDA6","mode":0,"speed":2.0,"type":"speed"},{"curve_speed":null,"id":"5DC625BA-5E16-45fb-A041-C3611F0B5360","mode":0,"speed":2.0,"type":"speed"},{"curve_speed":null,"id":"F904061C-582F-4161-B84E-C188EAEE39B6","mode":0,"speed":1.0,"type":"speed"},{"curve_speed":null,"id":"D81F19E8-9E3D-4b81-A9D5-F36E24AFC33D","mode":0,"speed":1.0,"type":"speed"},{"curve_speed":null,"id":"F1CCF333-3E8E-4245-9AEE-974EA16B9087","mode":0,"speed":1.0,"type":"speed"},{"curve_speed":null,"id":"B271D56B-8569-400b-A3E9-2D2D53D858F2","mode":0,"speed":1.0,"type":"speed"},{"curve_speed":null,"id":"FD327B7E-21DB-45c5-BECF-A4F1F8DBE9F3","mode":0,"speed":1.0,"type":"speed"},{"curve_speed":null,"id":"B34E1448-CBFC-417b-B75C-15A6F7B20644","mode":0,"speed":1.0,"type":"speed"},{"curve_speed":null,"id":"82565013-DC37-4a0d-93EC-53B01A6958D9","mode":0,"speed":1.0,"type":"speed"}],"stickers":[],"tail_leaders":[],"text_templates":[],"texts":[],"time_marks":[],"transitions":[{"category_id":"27186","category_name":"Trending","duration":466666,"effect_id":"9291000","id":"B2685E79-D912-4bb1-BA87-C9724BDFF281","is_overlap":true,"name":"Mix","path":"C:/Users/Computer/AppData/Local/CapCut/User Data/Cache/effect/9291000/7b53f4c008c4c684fccf8c7d4d46cc92","platform":"all","request_id":"2025071506004272D3304EDDAD8FA688C8","resource_id":"6724845717472416269","type":"transition"},{"category_id":"27186","category_name":"Trending","duration":466666,"effect_id":"9291000","id":"68C78D4C-E6E1-449a-B998-839FF9D5FBBC","is_overlap":true,"name":"Mix","path":"C:/Users/Computer/AppData/Local/CapCut/User Data/Cache/effect/9291000/7b53f4c008c4c684fccf8c7d4d46cc92","platform":"all","request_id":"2025071506004272D3304EDDAD8FA688C8","resource_id":"6724845717472416269","type":"transition"},{"category_id":"27186","category_name":"Trending","duration":466666,"effect_id":"9291000","id":"441C0661-9771-4e8c-9998-6DDFED974830","is_overlap":true,"name":"Mix","path":"C:/Users/Computer/AppData/Local/CapCut/User Data/Cache/effect/9291000/7b53f4c008c4c684fccf8c7d4d46cc92","platform":"all","request_id":"2025071506004272D3304EDDAD8FA688C8","resource_id":"6724845717472416269","type":"transition"},{"category_id":"27186","category_name":"Trending","duration":466666,"effect_id":"9291000","id":"177C5C5E-06FF-4d26-ACC3-A1ABAE9A5708","is_overlap":true,"name":"Mix","path":"C:/Users/Computer/AppData/Local/CapCut/User Data/Cache/effect/9291000/7b53f4c008c4c684fccf8c7d4d46cc92","platform":"all","request_id":"2025071506004272D3304EDDAD8FA688C8","resource_id":"6724845717472416269","type":"transition"},{"category_id":"27186","category_name":"Trending","duration":266666,"effect_id":"9291000","id":"62E5D4DB-1CA2-4127-AA7C-C4103014619D","is_overlap":true,"name":"Mix","path":"C:/Users/Computer/AppData/Local/CapCut/User Data/Cache/effect/9291000/7b53f4c008c4c684fccf8c7d4d46cc92","platform":"all","request_id":"2025071506004272D3304EDDAD8FA688C8","resource_id":"6724845717472416269","type":"transition"},{"category_id":"27186","category_name":"Trending","duration":266666,"effect_id":"9291000","id":"42439E73-C49B-4272-84D9-08C9B719D87D","is_overlap":true,"name":"Mix","path":"C:/Users/Computer/AppData/Local/CapCut/User Data/Cache/effect/9291000/7b53f4c008c4c684fccf8c7d4d46cc92","platform":"all","request_id":"2025071506004272D3304EDDAD8FA688C8","resource_id":"6724845717472416269","type":"transition"},{"category_id":"27186","category_name":"Trending","duration":266666,"effect_id":"9291000","id":"63FE7300-5BC1-4bed-86DD-9EFA008B69D8","is_overlap":true,"name":"Mix","path":"C:/Users/Computer/AppData/Local/CapCut/User Data/Cache/effect/9291000/7b53f4c008c4c684fccf8c7d4d46cc92","platform":"all","request_id":"2025071506004272D3304EDDAD8FA688C8","resource_id":"6724845717472416269","type":"transition"},{"category_id":"27186","category_name":"Trending","duration":466666,"effect_id":"9291000","id":"03200C81-4CCE-40d0-AE08-F7F4ACD75D8F","is_overlap":true,"name":"Mix","path":"C:/Users/Computer/AppData/Local/CapCut/User Data/Cache/effect/9291000/7b53f4c008c4c684fccf8c7d4d46cc92","platform":"all","request_id":"2025071506004272D3304EDDAD8FA688C8","resource_id":"6724845717472416269","type":"transition"},{"category_id":"27186","category_name":"Trending","duration":466666,"effect_id":"9291000","id":"CBD6688E-1495-423f-A217-2B6FC9206625","is_overlap":true,"name":"Mix","path":"C:/Users/Computer/AppData/Local/CapCut/User Data/Cache/effect/9291000/7b53f4c008c4c684fccf8c7d4d46cc92","platform":"all","request_id":"2025071506004272D3304EDDAD8FA688C8","resource_id":"6724845717472416269","type":"transition"},{"category_id":"27186","category_name":"Trending","duration":466666,"effect_id":"9291000","id":"A862275F-DCE9-4cd6-9D57-007D30BA6F94","is_overlap":true,"name":"Mix","path":"C:/Users/Computer/AppData/Local/CapCut/User Data/Cache/effect/9291000/7b53f4c008c4c684fccf8c7d4d46cc92","platform":"all","request_id":"2025071506004272D3304EDDAD8FA688C8","resource_id":"6724845717472416269","type":"transition"},{"category_id":"27186","category_name":"Trending","duration":466666,"effect_id":"9291000","id":"6F2D9853-3951-46c0-B22E-6B13F1292AFB","is_overlap":true,"name":"Mix","path":"C:/Users/Computer/AppData/Local/CapCut/User Data/Cache/effect/9291000/7b53f4c008c4c684fccf8c7d4d46cc92","platform":"all","request_id":"2025071506004272D3304EDDAD8FA688C8","resource_id":"6724845717472416269","type":"transition"},{"category_id":"27186","category_name":"Trending","duration":466666,"effect_id":"9291000","id":"B137154B-78C3-40da-95AA-47497A9C30D4","is_overlap":true,"name":"Mix","path":"C:/Users/Computer/AppData/Local/CapCut/User Data/Cache/effect/9291000/7b53f4c008c4c684fccf8c7d4d46cc92","platform":"all","request_id":"2025071506004272D3304EDDAD8FA688C8","resource_id":"6724845717472416269","type":"transition"},{"category_id":"27186","category_name":"Trending","duration":466666,"effect_id":"9291000","id":"8595B4C6-8183-4b5b-940A-7B50E90DEB07","is_overlap":true,"name":"Mix","path":"C:/Users/Computer/AppData/Local/CapCut/User Data/Cache/effect/9291000/7b53f4c008c4c684fccf8c7d4d46cc92","platform":"all","request_id":"2025071506004272D3304EDDAD8FA688C8","resource_id":"6724845717472416269","type":"transition"},{"category_id":"27186","category_name":"Trending","duration":466666,"effect_id":"9291000","id":"F5984B40-7D28-4362-B8BD-96D78179AEAF","is_overlap":true,"name":"Mix","path":"C:/Users/Computer/AppData/Local/CapCut/User Data/Cache/effect/9291000/7b53f4c008c4c684fccf8c7d4d46cc92","platform":"all","request_id":"2025071506004272D3304EDDAD8FA688C8","resource_id":"6724845717472416269","type":"transition"},{"category_id":"27186","category_name":"Trending","duration":466666,"effect_id":"9291000","id":"FF800CF1-EDD6-4d7b-AE83-191D281830E8","is_overlap":true,"name":"Mix","path":"C:/Users/Computer/AppData/Local/CapCut/User Data/Cache/effect/9291000/7b53f4c008c4c684fccf8c7d4d46cc92","platform":"all","request_id":"2025071506004272D3304EDDAD8FA688C8","resource_id":"6724845717472416269","type":"transition"},{"category_id":"27186","category_name":"Trending","duration":466666,"effect_id":"9291000","id":"D50424D3-4D5B-4510-9ABA-53916E8E4ABD","is_overlap":true,"name":"Mix","path":"C:/Users/Computer/AppData/Local/CapCut/User Data/Cache/effect/9291000/7b53f4c008c4c684fccf8c7d4d46cc92","platform":"all","request_id":"2025071506004272D3304EDDAD8FA688C8","resource_id":"6724845717472416269","type":"transition"},{"category_id":"27186","category_name":"Trending","duration":466666,"effect_id":"9291000","id":"58CD043C-B0FE-40c0-90DB-09F007E51414","is_overlap":true,"name":"Mix","path":"C:/Users/Computer/AppData/Local/CapCut/User Data/Cache/effect/9291000/7b53f4c008c4c684fccf8c7d4d46cc92","platform":"all","request_id":"2025071506004272D3304EDDAD8FA688C8","resource_id":"6724845717472416269","type":"transition"},{"category_id":"27186","category_name":"Trending","duration":466666,"effect_id":"9291000","id":"C9592E4B-13EF-471e-B67B-F90674B141C2","is_overlap":true,"name":"Mix","path":"C:/Users/Computer/AppData/Local/CapCut/User Data/Cache/effect/9291000/7b53f4c008c4c684fccf8c7d4d46cc92","platform":"all","request_id":"2025071506004272D3304EDDAD8FA688C8","resource_id":"6724845717472416269","type":"transition"},{"category_id":"27186","category_name":"Trending","duration":466666,"effect_id":"9291000","id":"0C55E1F9-7849-4a8b-A3EA-5E4689FC0847","is_overlap":true,"name":"Mix","path":"C:/Users/Computer/AppData/Local/CapCut/User Data/Cache/effect/9291000/7b53f4c008c4c684fccf8c7d4d46cc92","platform":"all","request_id":"2025071506004272D3304EDDAD8FA688C8","resource_id":"6724845717472416269","type":"transition"}],"video_effects":[],"video_trackings":[],"videos":[{"aigc_type":"none","audio_fade":null,"cartoon_path":"","category_id":"","category_name":"","check_flag":63487,"crop":{"lower_left_x":0.0,"lower_left_y":1.0,"lower_right_x":1.0,"lower_right_y":1.0,"upper_left_x":0.0,"upper_left_y":0.0,"upper_right_x":1.0,"upper_right_y":0.0},"crop_ratio":"free","crop_scale":1.0,"duration":5000000,"extra_type_option":0,"formula_id":"","freeze":null,"has_audio":false,"height":1080,"id":"8E737393-D065-4981-AAC7-2B3C0689A86A","intensifies_audio_path":"","intensifies_path":"","is_ai_generate_content":false,"is_copyright":true,"is_text_edit_overdub":false,"is_unified_beauty_mode":false,"local_id":"","local_material_id":"","material_id":"","material_name":"","material_url":"","matting":{"flag":0,"has_use_quick_brush":false,"has_use_quick_eraser":false,"interactiveTime":[],"path":"","strokes":[]},"media_path":"","object_locked":null,"origin_material_id":"","path":"##_draftpath_placeholder_0E685133-18CE-45ED-8CB8-2904A212EC80_##/sora/1_20250714_1751_Cyborg's Holographic Reflection_storyboard_01k05er6htecdsreprb874n9j1.mp4","picture_from":"none","picture_set_category_id":"","picture_set_category_name":"","request_id":"","reverse_intensifies_path":"","reverse_path":"##_draftpath_placeholder_0E685133-18CE-45ED-8CB8-2904A212EC80_##/dd24f5961f8903aaf0c6817e8aec354a.mp4","smart_motion":null,"source":0,"source_platform":0,"stable":{"matrix_path":"","stable_level":0,"time_range":{"duration":0,"start":0}},"team_id":"","type":"video","video_algorithm":{"algorithms":[],"complement_frame_config":null,"deflicker":null,"gameplay_configs":[],"motion_blur_config":null,"noise_reduction":null,"path":"","quality_enhance":null,"time_range":null},"width":720},{"aigc_type":"none","audio_fade":null,"cartoon_path":"","category_id":"","category_name":"","check_flag":63487,"crop":{"lower_left_x":0.0,"lower_left_y":1.0,"lower_right_x":1.0,"lower_right_y":1.0,"upper_left_x":0.0,"upper_left_y":0.0,"upper_right_x":1.0,"upper_right_y":0.0},"crop_ratio":"free","crop_scale":1.0,"duration":5000000,"extra_type_option":0,"formula_id":"","freeze":null,"has_audio":false,"height":1080,"id":"6D80C082-01CC-4060-9E6F-031C4E7BD4A6","intensifies_audio_path":"","intensifies_path":"","is_ai_generate_content":false,"is_copyright":true,"is_text_edit_overdub":false,"is_unified_beauty_mode":false,"local_id":"","local_material_id":"","material_id":"","material_name":"","material_url":"","matting":{"flag":0,"has_use_quick_brush":false,"has_use_quick_eraser":false,"interactiveTime":[],"path":"","strokes":[]},"media_path":"","object_locked":null,"origin_material_id":"","path":"##_draftpath_placeholder_0E685133-18CE-45ED-8CB8-2904A212EC80_##/sora/1_20250714_1751_Cyborg's Holographic Reflection_storyboard_01k05er6htecdsreprb874n9j1.mp4","picture_from":"none","picture_set_category_id":"","picture_set_category_name":"","request_id":"","reverse_intensifies_path":"","reverse_path":"","smart_motion":null,"source":0,"source_platform":0,"stable":{"matrix_path":"","stable_level":0,"time_range":{"duration":0,"start":0}},"team_id":"","type":"video","video_algorithm":{"algorithms":[],"complement_frame_config":null,"deflicker":null,"gameplay_configs":[],"motion_blur_config":null,"noise_reduction":null,"path":"","quality_enhance":null,"time_range":null},"width":720},{"aigc_type":"none","audio_fade":null,"cartoon_path":"","category_id":"","category_name":"","check_flag":63487,"crop":{"lower_left_x":0.0,"lower_left_y":1.0,"lower_right_x":1.0,"lower_right_y":1.0,"upper_left_x":0.0,"upper_left_y":0.0,"upper_right_x":1.0,"upper_right_y":0.0},"crop_ratio":"free","crop_scale":1.0,"duration":5000000,"extra_type_option":0,"formula_id":"","freeze":null,"has_audio":false,"height":1080,"id":"EFCD6003-C333-4c74-BA7A-E2747119B439","intensifies_audio_path":"","intensifies_path":"","is_ai_generate_content":false,"is_copyright":true,"is_text_edit_overdub":false,"is_unified_beauty_mode":false,"local_id":"","local_material_id":"","material_id":"","material_name":"","material_url":"","matting":{"flag":0,"has_use_quick_brush":false,"has_use_quick_eraser":false,"interactiveTime":[],"path":"","strokes":[]},"media_path":"","object_locked":null,"origin_material_id":"","path":"##_draftpath_placeholder_0E685133-18CE-45ED-8CB8-2904A212EC80_##/sora/4_20250714_1753_Underwater Wonders_storyboard_01k05ew120fz5av5b9e3rkzfs6.mp4","picture_from":"none","picture_set_category_id":"","picture_set_category_name":"","request_id":"","reverse_intensifies_path":"","reverse_path":"","smart_motion":null,"source":0,"source_platform":0,"stable":{"matrix_path":"","stable_level":0,"time_range":{"duration":0,"start":0}},"team_id":"","type":"video","video_algorithm":{"algorithms":[],"complement_frame_config":null,"deflicker":null,"gameplay_configs":[],"motion_blur_config":null,"noise_reduction":null,"path":"","quality_enhance":null,"time_range":null},"width":720},{"aigc_type":"none","audio_fade":null,"cartoon_path":"","category_id":"","category_name":"","check_flag":63487,"crop":{"lower_left_x":0.0,"lower_left_y":1.0,"lower_right_x":1.0,"lower_right_y":1.0,"upper_left_x":0.0,"upper_left_y":0.0,"upper_right_x":1.0,"upper_right_y":0.0},"crop_ratio":"free","crop_scale":1.0,"duration":5000000,"extra_type_option":0,"formula_id":"","freeze":null,"has_audio":false,"height":1080,"id":"57AA9984-7E5F-48ec-A0DA-9B34005008AF","intensifies_audio_path":"","intensifies_path":"","is_ai_generate_content":false,"is_copyright":true,"is_text_edit_overdub":false,"is_unified_beauty_mode":false,"local_id":"","local_material_id":"","material_id":"","material_name":"","material_url":"","matting":{"flag":0,"has_use_quick_brush":false,"has_use_quick_eraser":false,"interactiveTime":[],"path":"","strokes":[]},"media_path":"","object_locked":null,"origin_material_id":"","path":"##_draftpath_placeholder_0E685133-18CE-45ED-8CB8-2904A212EC80_##/sora/4_20250714_1753_Underwater Wonders_storyboard_01k05ew120fz5av5b9e3rkzfs6.mp4","picture_from":"none","picture_set_category_id":"","picture_set_category_name":"","request_id":"","reverse_intensifies_path":"","reverse_path":"##_draftpath_placeholder_0E685133-18CE-45ED-8CB8-2904A212EC80_##/88dbfcea9c0c36941f823c5946792a42.mp4","smart_motion":null,"source":0,"source_platform":0,"stable":{"matrix_path":"","stable_level":0,"time_range":{"duration":0,"start":0}},"team_id":"","type":"video","video_algorithm":{"algorithms":[],"complement_frame_config":null,"deflicker":null,"gameplay_configs":[],"motion_blur_config":null,"noise_reduction":null,"path":"","quality_enhance":null,"time_range":null},"width":720},{"aigc_type":"none","audio_fade":null,"cartoon_path":"","category_id":"","category_name":"","check_flag":63487,"crop":{"lower_left_x":0.0,"lower_left_y":1.0,"lower_right_x":1.0,"lower_right_y":1.0,"upper_left_x":0.0,"upper_left_y":0.0,"upper_right_x":1.0,"upper_right_y":0.0},"crop_ratio":"free","crop_scale":1.0,"duration":5000000,"extra_type_option":0,"formula_id":"","freeze":null,"has_audio":false,"height":1080,"id":"5C8E8688-1EC5-4f2e-A87C-8CBDE3E1BFB1","intensifies_audio_path":"","intensifies_path":"","is_ai_generate_content":false,"is_copyright":true,"is_text_edit_overdub":false,"is_unified_beauty_mode":false,"local_id":"","local_material_id":"","material_id":"","material_name":"","material_url":"","matting":{"flag":0,"has_use_quick_brush":false,"has_use_quick_eraser":false,"interactiveTime":[],"path":"","strokes":[]},"media_path":"","object_locked":null,"origin_material_id":"","path":"##_draftpath_placeholder_0E685133-18CE-45ED-8CB8-2904A212EC80_##/sora/3_20250714_1753_Underwater Wonders_storyboard_01k05ew11ves8rrq6gjf1hwert.mp4","picture_from":"none","picture_set_category_id":"","picture_set_category_name":"","request_id":"","reverse_intensifies_path":"","reverse_path":"##_draftpath_placeholder_0E685133-18CE-45ED-8CB8-2904A212EC80_##/2b1b406575a20ebc0bf42b0f3bdf4688.mp4","smart_motion":null,"source":0,"source_platform":0,"stable":{"matrix_path":"","stable_level":0,"time_range":{"duration":0,"start":0}},"team_id":"","type":"video","video_algorithm":{"algorithms":[],"complement_frame_config":null,"deflicker":null,"gameplay_configs":[],"motion_blur_config":null,"noise_reduction":null,"path":"","quality_enhance":null,"time_range":null},"width":720},{"aigc_type":"none","audio_fade":null,"cartoon_path":"","category_id":"","category_name":"","check_flag":63487,"crop":{"lower_left_x":0.0,"lower_left_y":1.0,"lower_right_x":1.0,"lower_right_y":1.0,"upper_left_x":0.0,"upper_left_y":0.0,"upper_right_x":1.0,"upper_right_y":0.0},"crop_ratio":"free","crop_scale":1.0,"duration":5000000,"extra_type_option":0,"formula_id":"","freeze":null,"has_audio":false,"height":1080,"id":"6F3577D9-623A-4191-86B1-7A9764D41C81","intensifies_audio_path":"","intensifies_path":"","is_ai_generate_content":false,"is_copyright":true,"is_text_edit_overdub":false,"is_unified_beauty_mode":false,"local_id":"","local_material_id":"","material_id":"","material_name":"","material_url":"","matting":{"flag":0,"has_use_quick_brush":false,"has_use_quick_eraser":false,"interactiveTime":[],"path":"","strokes":[]},"media_path":"","object_locked":null,"origin_material_id":"","path":"##_draftpath_placeholder_0E685133-18CE-45ED-8CB8-2904A212EC80_##/sora/6_20250714_1800_Captivating Imagery_storyboard_01k05f8khyf3zt17jryv73066b.mp4","picture_from":"none","picture_set_category_id":"","picture_set_category_name":"","request_id":"","reverse_intensifies_path":"","reverse_path":"","smart_motion":null,"source":0,"source_platform":0,"stable":{"matrix_path":"","stable_level":0,"time_range":{"duration":0,"start":0}},"team_id":"","type":"video","video_algorithm":{"algorithms":[],"complement_frame_config":null,"deflicker":null,"gameplay_configs":[],"motion_blur_config":null,"noise_reduction":null,"path":"","quality_enhance":null,"time_range":null},"width":720},{"aigc_type":"none","audio_fade":null,"cartoon_path":"","category_id":"","category_name":"","check_flag":63487,"crop":{"lower_left_x":0.0,"lower_left_y":1.0,"lower_right_x":1.0,"lower_right_y":1.0,"upper_left_x":0.0,"upper_left_y":0.0,"upper_right_x":1.0,"upper_right_y":0.0},"crop_ratio":"free","crop_scale":1.0,"duration":5000000,"extra_type_option":0,"formula_id":"","freeze":null,"has_audio":false,"height":1080,"id":"1FA4541E-28F8-4260-BF37-0B7514C5A8D2","intensifies_audio_path":"","intensifies_path":"","is_ai_generate_content":false,"is_copyright":true,"is_text_edit_overdub":false,"is_unified_beauty_mode":false,"local_id":"","local_material_id":"","material_id":"","material_name":"","material_url":"","matting":{"flag":0,"has_use_quick_brush":false,"has_use_quick_eraser":false,"interactiveTime":[],"path":"","strokes":[]},"media_path":"","object_locked":null,"origin_material_id":"","path":"##_draftpath_placeholder_0E685133-18CE-45ED-8CB8-2904A212EC80_##/sora/6_20250714_1800_Captivating Imagery_storyboard_01k05f8khyf3zt17jryv73066b.mp4","picture_from":"none","picture_set_category_id":"","picture_set_category_name":"","request_id":"","reverse_intensifies_path":"","reverse_path":"##_draftpath_placeholder_0E685133-18CE-45ED-8CB8-2904A212EC80_##/cec49144a393cbd396d7f01c6d06803c.mp4","smart_motion":null,"source":0,"source_platform":0,"stable":{"matrix_path":"","stable_level":0,"time_range":{"duration":0,"start":0}},"team_id":"","type":"video","video_algorithm":{"algorithms":[],"complement_frame_config":null,"deflicker":null,"gameplay_configs":[],"motion_blur_config":null,"noise_reduction":null,"path":"","quality_enhance":null,"time_range":null},"width":720},{"aigc_type":"none","audio_fade":null,"cartoon_path":"","category_id":"","category_name":"","check_flag":63487,"crop":{"lower_left_x":0.0,"lower_left_y":1.0,"lower_right_x":1.0,"lower_right_y":1.0,"upper_left_x":0.0,"upper_left_y":0.0,"upper_right_x":1.0,"upper_right_y":0.0},"crop_ratio":"free","crop_scale":1.0,"duration":5000000,"extra_type_option":0,"formula_id":"","freeze":null,"has_audio":false,"height":1080,"id":"9D3C818C-9AAB-48a5-9701-4CB22A688A61","intensifies_audio_path":"","intensifies_path":"","is_ai_generate_content":false,"is_copyright":true,"is_text_edit_overdub":false,"is_unified_beauty_mode":false,"local_id":"","local_material_id":"","material_id":"","material_name":"","material_url":"","matting":{"flag":0,"has_use_quick_brush":false,"has_use_quick_eraser":false,"interactiveTime":[],"path":"","strokes":[]},"media_path":"","object_locked":null,"origin_material_id":"","path":"##_draftpath_placeholder_0E685133-18CE-45ED-8CB8-2904A212EC80_##/sora/7_20250714_1804_Reflective Contemplation_storyboard_01k05ffk48e8c8g9grqnm345d1.mp4","picture_from":"none","picture_set_category_id":"","picture_set_category_name":"","request_id":"","reverse_intensifies_path":"","reverse_path":"","smart_motion":null,"source":0,"source_platform":0,"stable":{"matrix_path":"","stable_level":0,"time_range":{"duration":0,"start":0}},"team_id":"","type":"video","video_algorithm":{"algorithms":[],"complement_frame_config":null,"deflicker":null,"gameplay_configs":[],"motion_blur_config":null,"noise_reduction":null,"path":"","quality_enhance":null,"time_range":null},"width":720},{"aigc_type":"none","audio_fade":null,"cartoon_path":"","category_id":"","category_name":"","check_flag":63487,"crop":{"lower_left_x":0.0,"lower_left_y":1.0,"lower_right_x":1.0,"lower_right_y":1.0,"upper_left_x":0.0,"upper_left_y":0.0,"upper_right_x":1.0,"upper_right_y":0.0},"crop_ratio":"free","crop_scale":1.0,"duration":5000000,"extra_type_option":0,"formula_id":"","freeze":null,"has_audio":false,"height":1080,"id":"0E5AD757-08A9-407a-B7F9-EFF4FDD8D3FC","intensifies_audio_path":"","intensifies_path":"","is_ai_generate_content":false,"is_copyright":true,"is_text_edit_overdub":false,"is_unified_beauty_mode":false,"local_id":"","local_material_id":"","material_id":"","material_name":"","material_url":"","matting":{"flag":0,"has_use_quick_brush":false,"has_use_quick_eraser":false,"interactiveTime":[],"path":"","strokes":[]},"media_path":"","object_locked":null,"origin_material_id":"","path":"##_draftpath_placeholder_0E685133-18CE-45ED-8CB8-2904A212EC80_##/sora/9_20250714_1808_Holographic Memory Archive_storyboard_01k05fpv4gfx49m2nheqtznnyg.mp4","picture_from":"none","picture_set_category_id":"","picture_set_category_name":"","request_id":"","reverse_intensifies_path":"","reverse_path":"","smart_motion":null,"source":0,"source_platform":0,"stable":{"matrix_path":"","stable_level":0,"time_range":{"duration":0,"start":0}},"team_id":"","type":"video","video_algorithm":{"algorithms":[],"complement_frame_config":null,"deflicker":null,"gameplay_configs":[],"motion_blur_config":null,"noise_reduction":null,"path":"","quality_enhance":null,"time_range":null},"width":720},{"aigc_type":"none","audio_fade":null,"cartoon_path":"","category_id":"","category_name":"","check_flag":63487,"crop":{"lower_left_x":0.0,"lower_left_y":1.0,"lower_right_x":1.0,"lower_right_y":1.0,"upper_left_x":0.0,"upper_left_y":0.0,"upper_right_x":1.0,"upper_right_y":0.0},"crop_ratio":"free","crop_scale":1.0,"duration":5000000,"extra_type_option":0,"formula_id":"","freeze":null,"has_audio":false,"height":1080,"id":"408D5263-8488-4470-9E52-D8C53097F6FE","intensifies_audio_path":"","intensifies_path":"","is_ai_generate_content":false,"is_copyright":true,"is_text_edit_overdub":false,"is_unified_beauty_mode":false,"local_id":"","local_material_id":"","material_id":"","material_name":"","material_url":"","matting":{"flag":0,"has_use_quick_brush":false,"has_use_quick_eraser":false,"interactiveTime":[],"path":"","strokes":[]},"media_path":"","object_locked":null,"origin_material_id":"","path":"##_draftpath_placeholder_0E685133-18CE-45ED-8CB8-2904A212EC80_##/sora/9_20250714_1808_Holographic Memory Archive_storyboard_01k05fpv4gfx49m2nheqtznnyg.mp4","picture_from":"none","picture_set_category_id":"","picture_set_category_name":"","request_id":"","reverse_intensifies_path":"","reverse_path":"##_draftpath_placeholder_0E685133-18CE-45ED-8CB8-2904A212EC80_##/ee754b0bba1085687640bd039bbc5493.mp4","smart_motion":null,"source":0,"source_platform":0,"stable":{"matrix_path":"","stable_level":0,"time_range":{"duration":0,"start":0}},"team_id":"","type":"video","video_algorithm":{"algorithms":[],"complement_frame_config":null,"deflicker":null,"gameplay_configs":[],"motion_blur_config":null,"noise_reduction":null,"path":"","quality_enhance":null,"time_range":null},"width":720},{"aigc_type":"none","audio_fade":null,"cartoon_path":"","category_id":"","category_name":"","check_flag":63487,"crop":{"lower_left_x":0.0,"lower_left_y":1.0,"lower_right_x":1.0,"lower_right_y":1.0,"upper_left_x":0.0,"upper_left_y":0.0,"upper_right_x":1.0,"upper_right_y":0.0},"crop_ratio":"free","crop_scale":1.0,"duration":5000000,"extra_type_option":0,"formula_id":"","freeze":null,"has_audio":false,"height":1080,"id":"AFFA2200-6135-45c5-B43B-DF9800AA6AAB","intensifies_audio_path":"","intensifies_path":"","is_ai_generate_content":false,"is_copyright":true,"is_text_edit_overdub":false,"is_unified_beauty_mode":false,"local_id":"","local_material_id":"","material_id":"","material_name":"","material_url":"","matting":{"flag":0,"has_use_quick_brush":false,"has_use_quick_eraser":false,"interactiveTime":[],"path":"","strokes":[]},"media_path":"","object_locked":null,"origin_material_id":"","path":"##_draftpath_placeholder_0E685133-18CE-45ED-8CB8-2904A212EC80_##/sora/10_20250714_1808_Holographic Memory Archive_storyboard_01k05fpv4ce999kwpmkaxz0qqf.mp4","picture_from":"none","picture_set_category_id":"","picture_set_category_name":"","request_id":"","reverse_intensifies_path":"","reverse_path":"","smart_motion":null,"source":0,"source_platform":0,"stable":{"matrix_path":"","stable_level":0,"time_range":{"duration":0,"start":0}},"team_id":"","type":"video","video_algorithm":{"algorithms":[],"complement_frame_config":null,"deflicker":null,"gameplay_configs":[],"motion_blur_config":null,"noise_reduction":null,"path":"","quality_enhance":null,"time_range":null},"width":720},{"aigc_type":"none","audio_fade":null,"cartoon_path":"","category_id":"","category_name":"","check_flag":63487,"crop":{"lower_left_x":0.0,"lower_left_y":1.0,"lower_right_x":1.0,"lower_right_y":1.0,"upper_left_x":0.0,"upper_left_y":0.0,"upper_right_x":1.0,"upper_right_y":0.0},"crop_ratio":"free","crop_scale":1.0,"duration":5000000,"extra_type_option":0,"formula_id":"","freeze":null,"has_audio":false,"height":1080,"id":"03133617-4A2D-4617-A76D-3DA0CCC077A1","intensifies_audio_path":"","intensifies_path":"","is_ai_generate_content":false,"is_copyright":true,"is_text_edit_overdub":false,"is_unified_beauty_mode":false,"local_id":"","local_material_id":"","material_id":"","material_name":"","material_url":"","matting":{"flag":0,"has_use_quick_brush":false,"has_use_quick_eraser":false,"interactiveTime":[],"path":"","strokes":[]},"media_path":"","object_locked":null,"origin_material_id":"","path":"##_draftpath_placeholder_0E685133-18CE-45ED-8CB8-2904A212EC80_##/sora/12_20250714_1815_No Prompt Provided_storyboard_01k05g4es4ft9tvaykbd5rw6nb.mp4","picture_from":"none","picture_set_category_id":"","picture_set_category_name":"","request_id":"","reverse_intensifies_path":"","reverse_path":"","smart_motion":null,"source":0,"source_platform":0,"stable":{"matrix_path":"","stable_level":0,"time_range":{"duration":0,"start":0}},"team_id":"","type":"video","video_algorithm":{"algorithms":[],"complement_frame_config":null,"deflicker":null,"gameplay_configs":[],"motion_blur_config":null,"noise_reduction":null,"path":"","quality_enhance":null,"time_range":null},"width":720},{"aigc_type":"none","audio_fade":null,"cartoon_path":"","category_id":"","category_name":"","check_flag":63487,"crop":{"lower_left_x":0.0,"lower_left_y":1.0,"lower_right_x":1.0,"lower_right_y":1.0,"upper_left_x":0.0,"upper_left_y":0.0,"upper_right_x":1.0,"upper_right_y":0.0},"crop_ratio":"free","crop_scale":1.0,"duration":5000000,"extra_type_option":0,"formula_id":"","freeze":null,"has_audio":false,"height":1080,"id":"60A27634-63C7-40b7-9B92-B74F8960F249","intensifies_audio_path":"","intensifies_path":"","is_ai_generate_content":false,"is_copyright":true,"is_text_edit_overdub":false,"is_unified_beauty_mode":false,"local_id":"","local_material_id":"","material_id":"","material_name":"","material_url":"","matting":{"flag":0,"has_use_quick_brush":false,"has_use_quick_eraser":false,"interactiveTime":[],"path":"","strokes":[]},"media_path":"","object_locked":null,"origin_material_id":"","path":"##_draftpath_placeholder_0E685133-18CE-45ED-8CB8-2904A212EC80_##/sora/12_20250714_1815_No Prompt Provided_storyboard_01k05g4es4ft9tvaykbd5rw6nb.mp4","picture_from":"none","picture_set_category_id":"","picture_set_category_name":"","request_id":"","reverse_intensifies_path":"","reverse_path":"##_draftpath_placeholder_0E685133-18CE-45ED-8CB8-2904A212EC80_##/eedf20460c02a3a8153289a42462ddcb.mp4","smart_motion":null,"source":0,"source_platform":0,"stable":{"matrix_path":"","stable_level":0,"time_range":{"duration":0,"start":0}},"team_id":"","type":"video","video_algorithm":{"algorithms":[],"complement_frame_config":null,"deflicker":null,"gameplay_configs":[],"motion_blur_config":null,"noise_reduction":null,"path":"","quality_enhance":null,"time_range":null},"width":720},{"aigc_type":"none","audio_fade":null,"cartoon_path":"","category_id":"","category_name":"","check_flag":63487,"crop":{"lower_left_x":0.0,"lower_left_y":1.0,"lower_right_x":1.0,"lower_right_y":1.0,"upper_left_x":0.0,"upper_left_y":0.0,"upper_right_x":1.0,"upper_right_y":0.0},"crop_ratio":"free","crop_scale":1.0,"duration":5000000,"extra_type_option":0,"formula_id":"","freeze":null,"has_audio":false,"height":1080,"id":"376E4228-154E-48ad-98A6-BDB0739B3D1D","intensifies_audio_path":"","intensifies_path":"","is_ai_generate_content":false,"is_copyright":true,"is_text_edit_overdub":false,"is_unified_beauty_mode":false,"local_id":"","local_material_id":"","material_id":"","material_name":"","material_url":"","matting":{"flag":0,"has_use_quick_brush":false,"has_use_quick_eraser":false,"interactiveTime":[],"path":"","strokes":[]},"media_path":"","object_locked":null,"origin_material_id":"","path":"##_draftpath_placeholder_0E685133-18CE-45ED-8CB8-2904A212EC80_##/sora/11_20250714_1815_No Prompt Provided_storyboard_01k05g4erzft6rzrcq0hhvfb2h.mp4","picture_from":"none","picture_set_category_id":"","picture_set_category_name":"","request_id":"","reverse_intensifies_path":"","reverse_path":"","smart_motion":null,"source":0,"source_platform":0,"stable":{"matrix_path":"","stable_level":0,"time_range":{"duration":0,"start":0}},"team_id":"","type":"video","video_algorithm":{"algorithms":[],"complement_frame_config":null,"deflicker":null,"gameplay_configs":[],"motion_blur_config":null,"noise_reduction":null,"path":"","quality_enhance":null,"time_range":null},"width":720},{"aigc_type":"none","audio_fade":null,"cartoon_path":"","category_id":"","category_name":"","check_flag":63487,"crop":{"lower_left_x":0.0,"lower_left_y":1.0,"lower_right_x":1.0,"lower_right_y":1.0,"upper_left_x":0.0,"upper_left_y":0.0,"upper_right_x":1.0,"upper_right_y":0.0},"crop_ratio":"free","crop_scale":1.0,"duration":5000000,"extra_type_option":0,"formula_id":"","freeze":null,"has_audio":false,"height":1080,"id":"5EF23114-9CB0-4dd1-95FD-4525D80AA18F","intensifies_audio_path":"","intensifies_path":"","is_ai_generate_content":false,"is_copyright":true,"is_text_edit_overdub":false,"is_unified_beauty_mode":false,"local_id":"","local_material_id":"","material_id":"","material_name":"","material_url":"","matting":{"flag":0,"has_use_quick_brush":false,"has_use_quick_eraser":false,"interactiveTime":[],"path":"","strokes":[]},"media_path":"","object_locked":null,"origin_material_id":"","path":"##_draftpath_placeholder_0E685133-18CE-45ED-8CB8-2904A212EC80_##/sora/13_20250714_1824_Neon Corridor Stride_storyboard_01k05gmc1qfhvrzyf57mqe1kqd.mp4","picture_from":"none","picture_set_category_id":"","picture_set_category_name":"","request_id":"","reverse_intensifies_path":"","reverse_path":"","smart_motion":null,"source":0,"source_platform":0,"stable":{"matrix_path":"","stable_level":0,"time_range":{"duration":0,"start":0}},"team_id":"","type":"video","video_algorithm":{"algorithms":[],"complement_frame_config":null,"deflicker":null,"gameplay_configs":[],"motion_blur_config":null,"noise_reduction":null,"path":"","quality_enhance":null,"time_range":null},"width":720},{"aigc_type":"none","audio_fade":null,"cartoon_path":"","category_id":"","category_name":"","check_flag":63487,"crop":{"lower_left_x":0.0,"lower_left_y":1.0,"lower_right_x":1.0,"lower_right_y":1.0,"upper_left_x":0.0,"upper_left_y":0.0,"upper_right_x":1.0,"upper_right_y":0.0},"crop_ratio":"free","crop_scale":1.0,"duration":5000000,"extra_type_option":0,"formula_id":"","freeze":null,"has_audio":false,"height":1080,"id":"BA4CDF2A-A18D-4bd6-92A7-9F215B2DD7FD","intensifies_audio_path":"","intensifies_path":"","is_ai_generate_content":false,"is_copyright":true,"is_text_edit_overdub":false,"is_unified_beauty_mode":false,"local_id":"","local_material_id":"","material_id":"","material_name":"","material_url":"","matting":{"flag":0,"has_use_quick_brush":false,"has_use_quick_eraser":false,"interactiveTime":[],"path":"","strokes":[]},"media_path":"","object_locked":null,"origin_material_id":"","path":"##_draftpath_placeholder_0E685133-18CE-45ED-8CB8-2904A212EC80_##/sora/14_20250714_1826_Tech Calibration Scene_storyboard_01k05gqzdbetx9q71g8f6ypm4g.mp4","picture_from":"none","picture_set_category_id":"","picture_set_category_name":"","request_id":"","reverse_intensifies_path":"","reverse_path":"","smart_motion":null,"source":0,"source_platform":0,"stable":{"matrix_path":"","stable_level":0,"time_range":{"duration":0,"start":0}},"team_id":"","type":"video","video_algorithm":{"algorithms":[],"complement_frame_config":null,"deflicker":null,"gameplay_configs":[],"motion_blur_config":null,"noise_reduction":null,"path":"","quality_enhance":null,"time_range":null},"width":720},{"aigc_type":"none","audio_fade":null,"cartoon_path":"","category_id":"","category_name":"","check_flag":63487,"crop":{"lower_left_x":0.0,"lower_left_y":1.0,"lower_right_x":1.0,"lower_right_y":1.0,"upper_left_x":0.0,"upper_left_y":0.0,"upper_right_x":1.0,"upper_right_y":0.0},"crop_ratio":"free","crop_scale":1.0,"duration":5000000,"extra_type_option":0,"formula_id":"","freeze":null,"has_audio":false,"height":1080,"id":"221A9C73-3E83-4fda-9565-1ADD234519B5","intensifies_audio_path":"","intensifies_path":"","is_ai_generate_content":false,"is_copyright":true,"is_text_edit_overdub":false,"is_unified_beauty_mode":false,"local_id":"","local_material_id":"","material_id":"","material_name":"","material_url":"","matting":{"flag":0,"has_use_quick_brush":false,"has_use_quick_eraser":false,"interactiveTime":[],"path":"","strokes":[]},"media_path":"","object_locked":null,"origin_material_id":"","path":"##_draftpath_placeholder_0E685133-18CE-45ED-8CB8-2904A212EC80_##/sora/15_20250714_1829_Touching Energy Dome_storyboard_01k05gwk2kf46vnsnr8k95wqf6.mp4","picture_from":"none","picture_set_category_id":"","picture_set_category_name":"","request_id":"","reverse_intensifies_path":"","reverse_path":"","smart_motion":null,"source":0,"source_platform":0,"stable":{"matrix_path":"","stable_level":0,"time_range":{"duration":0,"start":0}},"team_id":"","type":"video","video_algorithm":{"algorithms":[],"complement_frame_config":null,"deflicker":null,"gameplay_configs":[],"motion_blur_config":null,"noise_reduction":null,"path":"","quality_enhance":null,"time_range":null},"width":720},{"aigc_type":"none","audio_fade":null,"cartoon_path":"","category_id":"","category_name":"","check_flag":63487,"crop":{"lower_left_x":0.0,"lower_left_y":1.0,"lower_right_x":1.0,"lower_right_y":1.0,"upper_left_x":0.0,"upper_left_y":0.0,"upper_right_x":1.0,"upper_right_y":0.0},"crop_ratio":"free","crop_scale":1.0,"duration":5000000,"extra_type_option":0,"formula_id":"","freeze":null,"has_audio":false,"height":1080,"id":"1DC227B4-ACB8-42df-99EC-85CC4AE5600F","intensifies_audio_path":"","intensifies_path":"","is_ai_generate_content":false,"is_copyright":true,"is_text_edit_overdub":false,"is_unified_beauty_mode":false,"local_id":"","local_material_id":"","material_id":"","material_name":"","material_url":"","matting":{"flag":0,"has_use_quick_brush":false,"has_use_quick_eraser":false,"interactiveTime":[],"path":"","strokes":[]},"media_path":"","object_locked":null,"origin_material_id":"","path":"##_draftpath_placeholder_0E685133-18CE-45ED-8CB8-2904A212EC80_##/sora/15_20250714_1829_Touching Energy Dome_storyboard_01k05gwk2kf46vnsnr8k95wqf6.mp4","picture_from":"none","picture_set_category_id":"","picture_set_category_name":"","request_id":"","reverse_intensifies_path":"","reverse_path":"##_draftpath_placeholder_0E685133-18CE-45ED-8CB8-2904A212EC80_##/957fc1849e344b8035da4ac8aee79496.mp4","smart_motion":null,"source":0,"source_platform":0,"stable":{"matrix_path":"","stable_level":0,"time_range":{"duration":0,"start":0}},"team_id":"","type":"video","video_algorithm":{"algorithms":[],"complement_frame_config":null,"deflicker":null,"gameplay_configs":[],"motion_blur_config":null,"noise_reduction":null,"path":"","quality_enhance":null,"time_range":null},"width":720},{"aigc_type":"none","audio_fade":null,"cartoon_path":"","category_id":"","category_name":"","check_flag":63487,"crop":{"lower_left_x":0.0,"lower_left_y":1.0,"lower_right_x":1.0,"lower_right_y":1.0,"upper_left_x":0.0,"upper_left_y":0.0,"upper_right_x":1.0,"upper_right_y":0.0},"crop_ratio":"free","crop_scale":1.0,"duration":5000000,"extra_type_option":0,"formula_id":"","freeze":null,"has_audio":false,"height":1080,"id":"197B0156-0B2E-491a-B4F5-A4CC0CC4A816","intensifies_audio_path":"","intensifies_path":"","is_ai_generate_content":false,"is_copyright":false,"is_text_edit_overdub":false,"is_unified_beauty_mode":false,"local_id":"","local_material_id":"","material_id":"","material_name":"16_20250714_1829_Touching Energy Dome_storyboard_01k05gwk27fgpvhhrv6hann785.mp4","material_url":"","matting":{"flag":0,"has_use_quick_brush":false,"has_use_quick_eraser":false,"interactiveTime":[],"path":"","strokes":[]},"media_path":"","object_locked":null,"origin_material_id":"","path":"##_draftpath_placeholder_0E685133-18CE-45ED-8CB8-2904A212EC80_##/sora/16_20250714_1829_Touching Energy Dome_storyboard_01k05gwk27fgpvhhrv6hann785.mp4","picture_from":"none","picture_set_category_id":"","picture_set_category_name":"","request_id":"","reverse_intensifies_path":"","reverse_path":"","smart_motion":null,"source":0,"source_platform":0,"stable":{"matrix_path":"","stable_level":0,"time_range":{"duration":0,"start":0}},"team_id":"","type":"video","video_algorithm":{"algorithms":[],"complement_frame_config":null,"deflicker":null,"gameplay_configs":[],"motion_blur_config":null,"noise_reduction":null,"path":"","quality_enhance":null,"time_range":null},"width":720},{"aigc_type":"none","audio_fade":null,"cartoon_path":"","category_id":"","category_name":"","check_flag":63487,"crop":{"lower_left_x":0.0,"lower_left_y":1.0,"lower_right_x":1.0,"lower_right_y":1.0,"upper_left_x":0.0,"upper_left_y":0.0,"upper_right_x":1.0,"upper_right_y":0.0},"crop_ratio":"free","crop_scale":1.0,"duration":5000000,"extra_type_option":0,"formula_id":"","freeze":null,"has_audio":false,"height":1080,"id":"92B0AA73-7F0C-41ee-A4E0-49149DB7F657","intensifies_audio_path":"","intensifies_path":"","is_ai_generate_content":false,"is_copyright":false,"is_text_edit_overdub":false,"is_unified_beauty_mode":false,"local_id":"","local_material_id":"","material_id":"","material_name":"17_20250714_1838_Nature's Serenity_storyboard_01k05hefs9fye9w5z4f8yjzv7m.mp4","material_url":"","matting":{"flag":0,"has_use_quick_brush":false,"has_use_quick_eraser":false,"interactiveTime":[],"path":"","strokes":[]},"media_path":"","object_locked":null,"origin_material_id":"","path":"C:/Users/Computer/Downloads/17_20250714_1838_Nature's Serenity_storyboard_01k05hefs9fye9w5z4f8yjzv7m.mp4","picture_from":"none","picture_set_category_id":"","picture_set_category_name":"","request_id":"","reverse_intensifies_path":"","reverse_path":"","smart_motion":null,"source":0,"source_platform":0,"stable":{"matrix_path":"","stable_level":0,"time_range":{"duration":0,"start":0}},"team_id":"","type":"video","video_algorithm":{"algorithms":[],"complement_frame_config":null,"deflicker":null,"gameplay_configs":[],"motion_blur_config":null,"noise_reduction":null,"path":"","quality_enhance":null,"time_range":null},"width":720}],"vocal_beautifys":[],"vocal_separations":[{"choice":0,"id":"1F617073-0189-48ba-93E8-5C037FF47205","production_path":"","time_range":null,"type":"vocal_separation"},{"choice":0,"id":"222CCC6B-3BF3-4ba5-A927-D2AB24782D19","production_path":"","time_range":null,"type":"vocal_separation"},{"choice":0,"id":"530A4E19-CA10-46d5-812C-3069FAA6027B","production_path":"","time_range":null,"type":"vocal_separation"},{"choice":0,"id":"0451ECDB-D27B-44e7-9905-6112BFCC756E","production_path":"","time_range":null,"type":"vocal_separation"},{"choice":0,"id":"C12D9DDE-D891-42bd-8B45-A4D859962228","production_path":"","time_range":null,"type":"vocal_separation"},{"choice":0,"id":"825CFBD3-4A5D-4d76-86D1-940CF39DD6C7","production_path":"","time_range":null,"type":"vocal_separation"},{"choice":0,"id":"9843C5A8-0289-444b-97AD-35D098521737","production_path":"","time_range":null,"type":"vocal_separation"},{"choice":0,"id":"6F3ECD3F-B391-4f2e-B7CB-3F5AFC3CC358","production_path":"","time_range":null,"type":"vocal_separation"},{"choice":0,"id":"1657515A-4608-4abe-9590-14D661A6D515","production_path":"","time_range":null,"type":"vocal_separation"},{"choice":0,"id":"B6868579-B6FE-4a06-BECC-57E2676EBB56","production_path":"","time_range":null,"type":"vocal_separation"},{"choice":0,"id":"86977166-0270-40b3-8524-57A4DB14760C","production_path":"","time_range":null,"type":"vocal_separation"},{"choice":0,"id":"C8CB7023-CF57-4615-9E76-52F6DEE036AF","production_path":"","time_range":null,"type":"vocal_separation"},{"choice":0,"id":"27DD02F7-0744-407f-A676-72AC75ED1086","production_path":"","time_range":null,"type":"vocal_separation"},{"choice":0,"id":"D9D22B9F-B0CD-424c-A70E-DF63B047F168","production_path":"","time_range":null,"type":"vocal_separation"},{"choice":0,"id":"CCF75D05-592B-491c-9297-C012D2384583","production_path":"","time_range":null,"type":"vocal_separation"},{"choice":0,"id":"0A3F453B-F5E0-466d-A63F-D397717B5BFB","production_path":"","time_range":null,"type":"vocal_separation"},{"choice":0,"id":"5F5F5992-6223-4a58-939C-85A5292A43B5","production_path":"","time_range":null,"type":"vocal_separation"},{"choice":0,"id":"A7E95BC7-F821-488a-A12F-9FA90F72D1D3","production_path":"","time_range":null,"type":"vocal_separation"},{"choice":0,"id":"27B37421-E3F4-465b-B998-D16A68DC144C","production_path":"","time_range":null,"type":"vocal_separation"},{"choice":0,"id":"99BBA819-A100-4bd3-A0C4-78D25C3EA2DE","production_path":"","time_range":null,"type":"vocal_separation"}]},"mutable_config":null,"name":"","new_version":"110.0.0","platform":{"app_id":359289,"app_source":"cc","app_version":"3.9.0","device_id":"b000ef05ad8a2c8de98905bbc4a2a13d","hard_disk_id":"98697f5b2672733057711c84e4b517c3","mac_address":"3ab780bc59d11a00e1ba676c31de1115,09861091e4eef2367b35d8703476edfc","os":"windows","os_version":"10.0.26100"},"relationships":[],"render_index_track_mode_on":true,"retouch_cover":null,"source":"default","static_cover_image_path":"","time_marks":null,"tracks":[{"attribute":0,"flag":0,"id":"CAD81DF5-6E88-4469-B078-E619CA5C65E5","is_default_name":true,"name":"","segments":[{"caption_info":null,"cartoon":false,"clip":{"alpha":1.0,"flip":{"horizontal":false,"vertical":false},"rotation":0.0,"scale":{"x":1.0,"y":1.0},"transform":{"x":0.0,"y":0.0}},"common_keyframes":[],"enable_adjust":true,"enable_color_correct_adjust":false,"enable_color_curves":true,"enable_color_match_adjust":false,"enable_color_wheels":true,"enable_lut":true,"enable_smart_color_adjust":false,"extra_material_refs":["3AD14920-6E0E-4cda-8EFB-FF8E5ECEA0A3","B2685E79-D912-4bb1-BA87-C9724BDFF281","A522B8CB-C1EB-4f69-AFB0-A2CAAB659CA0","47DE21B7-CB35-4e85-B93A-74EE2132C2F1","15319D80-6388-446a-9D24-01228B79F68D","33047A21-2A1B-4fe2-93D9-3AD98D8B983D","1F617073-0189-48ba-93E8-5C037FF47205"],"group_id":"","hdr_settings":{"intensity":1.0,"mode":1,"nits":1000},"id":"0DC2C34B-BD33-4b0d-922E-911F99F82489","intensifies_audio":false,"is_placeholder":false,"is_tone_modify":false,"keyframe_refs":[],"last_nonzero_volume":1.0,"material_id":"8E737393-D065-4981-AAC7-2B3C0689A86A","render_index":0,"responsive_layout":{"enable":false,"horizontal_pos_layout":0,"size_layout":0,"target_follow":"","vertical_pos_layout":0},"reverse":true,"source_timerange":{"duration":4333333,"start":0},"speed":1.0,"target_timerange":{"duration":4333333,"start":0},"template_id":"","template_scene":"default","track_attribute":0,"track_render_index":0,"uniform_scale":{"on":true,"value":1.0},"visible":true,"volume":1.0},{"caption_info":null,"cartoon":false,"clip":{"alpha":1.0,"flip":{"horizontal":false,"vertical":false},"rotation":0.0,"scale":{"x":1.0,"y":1.0},"transform":{"x":0.0,"y":0.0}},"common_keyframes":[],"enable_adjust":true,"enable_color_correct_adjust":false,"enable_color_curves":true,"enable_color_match_adjust":false,"enable_color_wheels":true,"enable_lut":true,"enable_smart_color_adjust":false,"extra_material_refs":["2409AA61-3247-4da3-8DB2-DCBF0647B3CA","68C78D4C-E6E1-449a-B998-839FF9D5FBBC","6A2D02B0-9FD8-4ea5-A735-31BAFEB57A04","1AEB1249-A8A4-46ca-B5A2-F45537ECD678","1922C325-B10F-4a42-A082-F4574AAAEDC9","FF1BCEAB-B688-4e2a-B1E6-EA4FA99067B7","222CCC6B-3BF3-4ba5-A927-D2AB24782D19"],"group_id":"","hdr_settings":{"intensity":1.0,"mode":1,"nits":1000},"id":"A6B53D97-59DC-480d-8495-64153E7F20F5","intensifies_audio":false,"is_placeholder":false,"is_tone_modify":false,"keyframe_refs":[],"last_nonzero_volume":1.0,"material_id":"6D80C082-01CC-4060-9E6F-031C4E7BD4A6","render_index":0,"responsive_layout":{"enable":false,"horizontal_pos_layout":0,"size_layout":0,"target_follow":"","vertical_pos_layout":0},"reverse":false,"source_timerange":{"duration":4366667,"start":0},"speed":1.0,"target_timerange":{"duration":4366667,"start":4333333},"template_id":"","template_scene":"default","track_attribute":0,"track_render_index":0,"uniform_scale":{"on":true,"value":1.0},"visible":true,"volume":1.0},{"caption_info":null,"cartoon":false,"clip":{"alpha":1.0,"flip":{"horizontal":false,"vertical":false},"rotation":0.0,"scale":{"x":1.0,"y":1.0},"transform":{"x":0.0,"y":0.0}},"common_keyframes":[],"enable_adjust":true,"enable_color_correct_adjust":false,"enable_color_curves":true,"enable_color_match_adjust":false,"enable_color_wheels":true,"enable_lut":true,"enable_smart_color_adjust":false,"extra_material_refs":["612B65B2-8680-462a-B8C8-5B169DC4C198","441C0661-9771-4e8c-9998-6DDFED974830","71E4B1BC-1307-41ef-A1D4-C3EEA8DE4C1F","6648F808-C15F-4a75-9539-6D2A3F2B93C1","A7E36015-989B-45b6-8011-2983E75323F0","FCA7F642-1DF0-4421-80C4-B2FFFCC8D6BA","530A4E19-CA10-46d5-812C-3069FAA6027B"],"group_id":"","hdr_settings":{"intensity":1.0,"mode":1,"nits":1000},"id":"3878B645-B028-4015-9B1C-8CB5E13E21F9","intensifies_audio":false,"is_placeholder":false,"is_tone_modify":false,"keyframe_refs":[],"last_nonzero_volume":1.0,"material_id":"EFCD6003-C333-4c74-BA7A-E2747119B439","render_index":0,"responsive_layout":{"enable":false,"horizontal_pos_layout":0,"size_layout":0,"target_follow":"","vertical_pos_layout":0},"reverse":false,"source_timerange":{"duration":4433333,"start":0},"speed":1.0,"target_timerange":{"duration":4433333,"start":8700000},"template_id":"","template_scene":"default","track_attribute":0,"track_render_index":0,"uniform_scale":{"on":true,"value":1.0},"visible":true,"volume":1.0},{"caption_info":null,"cartoon":false,"clip":{"alpha":1.0,"flip":{"horizontal":false,"vertical":false},"rotation":0.0,"scale":{"x":1.0,"y":1.0},"transform":{"x":0.0,"y":0.0}},"common_keyframes":[],"enable_adjust":true,"enable_color_correct_adjust":false,"enable_color_curves":true,"enable_color_match_adjust":false,"enable_color_wheels":true,"enable_lut":true,"enable_smart_color_adjust":false,"extra_material_refs":["AA168A21-F936-4845-8418-3FF86DAA8837","177C5C5E-06FF-4d26-ACC3-A1ABAE9A5708","D1C1154D-2B35-4e6f-8068-72316B38C709","B07A4895-1EB2-4071-B518-A92273FA314D","875A2E5B-8813-48d0-8F8F-0C123D0FBB64","219746C7-9830-4446-ADE1-3CE6E1FB4B00","0451ECDB-D27B-44e7-9905-6112BFCC756E"],"group_id":"","hdr_settings":{"intensity":1.0,"mode":1,"nits":1000},"id":"0F396167-9261-4f72-9045-5399F132BB6A","intensifies_audio":false,"is_placeholder":false,"is_tone_modify":false,"keyframe_refs":[],"last_nonzero_volume":1.0,"material_id":"57AA9984-7E5F-48ec-A0DA-9B34005008AF","render_index":0,"responsive_layout":{"enable":false,"horizontal_pos_layout":0,"size_layout":0,"target_follow":"","vertical_pos_layout":0},"reverse":true,"source_timerange":{"duration":4600000,"start":400000},"speed":1.0,"target_timerange":{"duration":4600000,"start":13133333},"template_id":"","template_scene":"default","track_attribute":0,"track_render_index":0,"uniform_scale":{"on":true,"value":1.0},"visible":true,"volume":1.0},{"caption_info":null,"cartoon":false,"clip":{"alpha":1.0,"flip":{"horizontal":false,"vertical":false},"rotation":0.0,"scale":{"x":1.0,"y":1.0},"transform":{"x":0.0,"y":0.0}},"common_keyframes":[],"enable_adjust":true,"enable_color_correct_adjust":false,"enable_color_curves":true,"enable_color_match_adjust":false,"enable_color_wheels":true,"enable_lut":true,"enable_smart_color_adjust":false,"extra_material_refs":["4FA6FEED-8496-4772-903A-2CC8234E82D0","62E5D4DB-1CA2-4127-AA7C-C4103014619D","D10E767D-3B17-4829-A854-577016A2302D","84D7E9E9-2123-4ef2-8C5B-C33F6FDEADC2","EED231CC-272C-426f-8D42-804DF34DD46E","ECEDCC4B-EC94-4e20-9654-84E9076FD8BC","C12D9DDE-D891-42bd-8B45-A4D859962228"],"group_id":"","hdr_settings":{"intensity":1.0,"mode":1,"nits":1000},"id":"F9BC9EE2-46A5-426b-A180-D21F9B326C3F","intensifies_audio":false,"is_placeholder":false,"is_tone_modify":false,"keyframe_refs":[],"last_nonzero_volume":1.0,"material_id":"5C8E8688-1EC5-4f2e-A87C-8CBDE3E1BFB1","render_index":0,"responsive_layout":{"enable":false,"horizontal_pos_layout":0,"size_layout":0,"target_follow":"","vertical_pos_layout":0},"reverse":false,"source_timerange":{"duration":4666667,"start":0},"speed":1.0,"target_timerange":{"duration":4666667,"start":17733333},"template_id":"","template_scene":"default","track_attribute":0,"track_render_index":0,"uniform_scale":{"on":true,"value":1.0},"visible":true,"volume":1.0},{"caption_info":null,"cartoon":false,"clip":{"alpha":1.0,"flip":{"horizontal":false,"vertical":false},"rotation":0.0,"scale":{"x":1.0,"y":1.0},"transform":{"x":0.0,"y":0.0}},"common_keyframes":[],"enable_adjust":true,"enable_color_correct_adjust":false,"enable_color_curves":true,"enable_color_match_adjust":false,"enable_color_wheels":true,"enable_lut":true,"enable_smart_color_adjust":false,"extra_material_refs":["3004BE70-773F-4815-898F-CB6354B4E443","42439E73-C49B-4272-84D9-08C9B719D87D","BF62C067-1147-490a-876A-A241CFB458B9","86A02356-D67B-4e5b-9A69-32642CEF9D6A","90A51187-A2A5-4f1f-B0E3-E075C2A57F5E","B9F838D5-2D19-4b10-A230-930AADFBC9C0","825CFBD3-4A5D-4d76-86D1-940CF39DD6C7"],"group_id":"","hdr_settings":{"intensity":1.0,"mode":1,"nits":1000},"id":"CE7116BF-10C6-4917-A8A5-1D5E4F3C7622","intensifies_audio":false,"is_placeholder":false,"is_tone_modify":false,"keyframe_refs":[],"last_nonzero_volume":1.0,"material_id":"6F3577D9-623A-4191-86B1-7A9764D41C81","render_index":0,"responsive_layout":{"enable":false,"horizontal_pos_layout":0,"size_layout":0,"target_follow":"","vertical_pos_layout":0},"reverse":false,"source_timerange":{"duration":566666,"start":0},"speed":1.0,"target_timerange":{"duration":566666,"start":22400000},"template_id":"","template_scene":"default","track_attribute":0,"track_render_index":0,"uniform_scale":{"on":true,"value":1.0},"visible":true,"volume":1.0},{"caption_info":null,"cartoon":false,"clip":{"alpha":1.0,"flip":{"horizontal":false,"vertical":false},"rotation":0.0,"scale":{"x":1.0,"y":1.0},"transform":{"x":0.0,"y":0.0}},"common_keyframes":[],"enable_adjust":true,"enable_color_correct_adjust":false,"enable_color_curves":true,"enable_color_match_adjust":false,"enable_color_wheels":true,"enable_lut":true,"enable_smart_color_adjust":false,"extra_material_refs":["D568E760-8A8A-495f-A12C-E95480B4882F","63FE7300-5BC1-4bed-86DD-9EFA008B69D8","353AE8EE-3CE7-4c0b-A322-EDA25C1035C5","9A06185F-1F8E-4397-87A8-AF5B9981AAA6","3B76580F-58DF-404b-86AF-BF1BBAA1727F","3F5A743B-56E3-4231-95A5-84AA2818130D","9843C5A8-0289-444b-97AD-35D098521737"],"group_id":"","hdr_settings":{"intensity":1.0,"mode":1,"nits":1000},"id":"E42AD058-55DA-44fb-A1A0-3D518C3C8AA2","intensifies_audio":false,"is_placeholder":false,"is_tone_modify":false,"keyframe_refs":[],"last_nonzero_volume":1.0,"material_id":"1FA4541E-28F8-4260-BF37-0B7514C5A8D2","render_index":0,"responsive_layout":{"enable":false,"horizontal_pos_layout":0,"size_layout":0,"target_follow":"","vertical_pos_layout":0},"reverse":true,"source_timerange":{"duration":633333,"start":4366667},"speed":1.0,"target_timerange":{"duration":633334,"start":22966666},"template_id":"","template_scene":"default","track_attribute":0,"track_render_index":0,"uniform_scale":{"on":true,"value":1.0},"visible":true,"volume":1.0},{"caption_info":null,"cartoon":false,"clip":{"alpha":1.0,"flip":{"horizontal":false,"vertical":false},"rotation":0.0,"scale":{"x":1.0,"y":1.0},"transform":{"x":0.0,"y":0.0}},"common_keyframes":[],"enable_adjust":true,"enable_color_correct_adjust":false,"enable_color_curves":true,"enable_color_match_adjust":false,"enable_color_wheels":true,"enable_lut":true,"enable_smart_color_adjust":false,"extra_material_refs":["4470B128-D25D-4a22-BC75-355F3B2185C0","03200C81-4CCE-40d0-AE08-F7F4ACD75D8F","4EECD4B1-A2EF-4000-95AF-D4DF7E46577F","A22C55D7-DF71-4813-ABD4-785B6A6D32C9","6A95A0C5-5724-4d14-9404-CFADD8F2480D","3D00EE7C-D629-4cbf-BB19-08E67F18ACD8","6F3ECD3F-B391-4f2e-B7CB-3F5AFC3CC358"],"group_id":"","hdr_settings":{"intensity":1.0,"mode":1,"nits":1000},"id":"4371572E-3C77-407a-9FF9-6C92DF2540D2","intensifies_audio":false,"is_placeholder":false,"is_tone_modify":false,"keyframe_refs":[],"last_nonzero_volume":1.0,"material_id":"9D3C818C-9AAB-48a5-9701-4CB22A688A61","render_index":0,"responsive_layout":{"enable":false,"horizontal_pos_layout":0,"size_layout":0,"target_follow":"","vertical_pos_layout":0},"reverse":false,"source_timerange":{"duration":4800000,"start":0},"speed":1.0,"target_timerange":{"duration":4800000,"start":23600000},"template_id":"","template_scene":"default","track_attribute":0,"track_render_index":0,"uniform_scale":{"on":true,"value":1.0},"visible":true,"volume":1.0},{"caption_info":null,"cartoon":false,"clip":{"alpha":1.0,"flip":{"horizontal":false,"vertical":false},"rotation":0.0,"scale":{"x":1.0,"y":1.0},"transform":{"x":0.0,"y":0.0}},"common_keyframes":[],"enable_adjust":true,"enable_color_correct_adjust":false,"enable_color_curves":true,"enable_color_match_adjust":false,"enable_color_wheels":true,"enable_lut":true,"enable_smart_color_adjust":false,"extra_material_refs":["3D63A51C-CD77-401a-A873-E8697A137C56","CBD6688E-1495-423f-A217-2B6FC9206625","3F668A70-98CC-481b-AEF8-B7A15E5F66FE","C5F71FE8-4211-4bf5-9DB1-B81F79DF65BA","DF2EA8D1-FEF7-4678-904A-D9700B685515","8B4B714C-3122-4f14-B7F4-A20D0324883A","1657515A-4608-4abe-9590-14D661A6D515"],"group_id":"","hdr_settings":{"intensity":1.0,"mode":1,"nits":1000},"id":"2A5FB83F-92DA-4add-9B09-2AF212271EFC","intensifies_audio":false,"is_placeholder":false,"is_tone_modify":false,"keyframe_refs":[],"last_nonzero_volume":1.0,"material_id":"0E5AD757-08A9-407a-B7F9-EFF4FDD8D3FC","render_index":0,"responsive_layout":{"enable":false,"horizontal_pos_layout":0,"size_layout":0,"target_follow":"","vertical_pos_layout":0},"reverse":false,"source_timerange":{"duration":5000000,"start":0},"speed":1.0,"target_timerange":{"duration":5000000,"start":28400000},"template_id":"","template_scene":"default","track_attribute":0,"track_render_index":0,"uniform_scale":{"on":true,"value":1.0},"visible":true,"volume":1.0},{"caption_info":null,"cartoon":false,"clip":{"alpha":1.0,"flip":{"horizontal":false,"vertical":false},"rotation":0.0,"scale":{"x":1.0,"y":1.0},"transform":{"x":0.0,"y":0.0}},"common_keyframes":[],"enable_adjust":true,"enable_color_correct_adjust":false,"enable_color_curves":true,"enable_color_match_adjust":false,"enable_color_wheels":true,"enable_lut":true,"enable_smart_color_adjust":false,"extra_material_refs":["2A0E9B1B-1DBE-4bdd-933E-47A304ABA80D","A862275F-DCE9-4cd6-9D57-007D30BA6F94","C211885F-D63C-41c2-841E-7F41E0BE8620","11836D50-5891-460b-B8BC-7FF44DAFB0E9","8DFC81DC-97E8-4b9f-8487-C1479072F865","5C91FAE0-5439-4e41-9459-2BA02959FC7E","B6868579-B6FE-4a06-BECC-57E2676EBB56"],"group_id":"","hdr_settings":{"intensity":1.0,"mode":1,"nits":1000},"id":"DB78F0B2-0933-4e43-BF45-FED21DF1F6F7","intensifies_audio":false,"is_placeholder":false,"is_tone_modify":false,"keyframe_refs":[],"last_nonzero_volume":1.0,"material_id":"408D5263-8488-4470-9E52-D8C53097F6FE","render_index":0,"responsive_layout":{"enable":false,"horizontal_pos_layout":0,"size_layout":0,"target_follow":"","vertical_pos_layout":0},"reverse":true,"source_timerange":{"duration":5000000,"start":0},"speed":1.0,"target_timerange":{"duration":5000000,"start":33400000},"template_id":"","template_scene":"default","track_attribute":0,"track_render_index":0,"uniform_scale":{"on":true,"value":1.0},"visible":true,"volume":1.0},{"caption_info":null,"cartoon":false,"clip":{"alpha":1.0,"flip":{"horizontal":false,"vertical":false},"rotation":0.0,"scale":{"x":1.0,"y":1.0},"transform":{"x":0.0,"y":0.0}},"common_keyframes":[],"enable_adjust":true,"enable_color_correct_adjust":false,"enable_color_curves":true,"enable_color_match_adjust":false,"enable_color_wheels":true,"enable_lut":true,"enable_smart_color_adjust":false,"extra_material_refs":["1D6D27CB-ADD3-45ea-8D40-78552F3E2044","6F2D9853-3951-46c0-B22E-6B13F1292AFB","B253D941-6583-4baf-92F3-C45EF98652CD","D3EB1D8C-2B84-468c-9324-A61B1D9123B2","D2315624-0B7E-4ae5-9C8E-38A163B73E31","8312441D-2E5B-4c8e-9CC0-85292C30E4A3","86977166-0270-40b3-8524-57A4DB14760C"],"group_id":"","hdr_settings":{"intensity":1.0,"mode":1,"nits":1000},"id":"594019AD-D945-4a14-8109-D810061FE296","intensifies_audio":false,"is_placeholder":false,"is_tone_modify":false,"keyframe_refs":[],"last_nonzero_volume":1.0,"material_id":"AFFA2200-6135-45c5-B43B-DF9800AA6AAB","render_index":0,"responsive_layout":{"enable":false,"horizontal_pos_layout":0,"size_layout":0,"target_follow":"","vertical_pos_layout":0},"reverse":false,"source_timerange":{"duration":4700000,"start":0},"speed":1.0,"target_timerange":{"duration":4700000,"start":38400000},"template_id":"","template_scene":"default","track_attribute":0,"track_render_index":0,"uniform_scale":{"on":true,"value":1.0},"visible":true,"volume":1.0},{"caption_info":null,"cartoon":false,"clip":{"alpha":1.0,"flip":{"horizontal":false,"vertical":false},"rotation":0.0,"scale":{"x":1.0,"y":1.0},"transform":{"x":0.0,"y":0.0}},"common_keyframes":[],"enable_adjust":true,"enable_color_correct_adjust":false,"enable_color_curves":true,"enable_color_match_adjust":false,"enable_color_wheels":true,"enable_lut":true,"enable_smart_color_adjust":false,"extra_material_refs":["C253F8BE-E663-45a8-BEA5-C93BC812FDA6","B137154B-78C3-40da-95AA-47497A9C30D4","E2ACDCFD-8846-4fc4-8668-C78E709F4B9C","D5194C6D-12A5-4274-B0D9-DE249947806F","91791D0A-77DD-4948-943E-9EFB024A7AF6","06271337-214D-4c5a-B9B0-C8A147D2EA4B","C8CB7023-CF57-4615-9E76-52F6DEE036AF"],"group_id":"","hdr_settings":{"intensity":1.0,"mode":1,"nits":1000},"id":"103AFAB3-2BF4-4d6b-A4C3-A4357953DDA9","intensifies_audio":false,"is_placeholder":false,"is_tone_modify":false,"keyframe_refs":[],"last_nonzero_volume":1.0,"material_id":"03133617-4A2D-4617-A76D-3DA0CCC077A1","render_index":0,"responsive_layout":{"enable":false,"horizontal_pos_layout":0,"size_layout":0,"target_follow":"","vertical_pos_layout":0},"reverse":false,"source_timerange":{"duration":5000000,"start":0},"speed":2.0,"target_timerange":{"duration":2500000,"start":43100000},"template_id":"","template_scene":"default","track_attribute":0,"track_render_index":0,"uniform_scale":{"on":true,"value":1.0},"visible":true,"volume":1.0},{"caption_info":null,"cartoon":false,"clip":{"alpha":1.0,"flip":{"horizontal":false,"vertical":false},"rotation":0.0,"scale":{"x":1.0,"y":1.0},"transform":{"x":0.0,"y":0.0}},"common_keyframes":[],"enable_adjust":true,"enable_color_correct_adjust":false,"enable_color_curves":true,"enable_color_match_adjust":false,"enable_color_wheels":true,"enable_lut":true,"enable_smart_color_adjust":false,"extra_material_refs":["5DC625BA-5E16-45fb-A041-C3611F0B5360","8595B4C6-8183-4b5b-940A-7B50E90DEB07","09DBFEEC-75E5-402d-A9B3-8171EB4F8A69","000665C1-3FAD-4382-B6F1-23431D135C7E","4FD7E9E0-0A24-42ae-B285-900A789E102D","CDC60658-199E-4da9-A276-4C3E162EEB6C","27DD02F7-0744-407f-A676-72AC75ED1086"],"group_id":"","hdr_settings":{"intensity":1.0,"mode":1,"nits":1000},"id":"102F334B-5194-49df-8711-360B5349F4BE","intensifies_audio":false,"is_placeholder":false,"is_tone_modify":false,"keyframe_refs":[],"last_nonzero_volume":1.0,"material_id":"60A27634-63C7-40b7-9B92-B74F8960F249","render_index":0,"responsive_layout":{"enable":false,"horizontal_pos_layout":0,"size_layout":0,"target_follow":"","vertical_pos_layout":0},"reverse":true,"source_timerange":{"duration":5000000,"start":0},"speed":2.0,"target_timerange":{"duration":2500000,"start":45600000},"template_id":"","template_scene":"default","track_attribute":0,"track_render_index":0,"uniform_scale":{"on":true,"value":1.0},"visible":true,"volume":1.0},{"caption_info":null,"cartoon":false,"clip":{"alpha":1.0,"flip":{"horizontal":false,"vertical":false},"rotation":0.0,"scale":{"x":1.0,"y":1.0},"transform":{"x":0.0,"y":0.0}},"common_keyframes":[],"enable_adjust":true,"enable_color_correct_adjust":false,"enable_color_curves":true,"enable_color_match_adjust":false,"enable_color_wheels":true,"enable_lut":true,"enable_smart_color_adjust":false,"extra_material_refs":["F904061C-582F-4161-B84E-C188EAEE39B6","F5984B40-7D28-4362-B8BD-96D78179AEAF","1E298458-BB9C-4faa-8872-543B11C59A6A","4A55EDE7-F762-4538-8E89-A9660E1A366C","EAB4F6C4-577A-42a9-A6BD-22B6B3950D36","186DD8D6-9B3F-4a44-96E3-FAF67E4F5AEA","D9D22B9F-B0CD-424c-A70E-DF63B047F168"],"group_id":"","hdr_settings":{"intensity":1.0,"mode":1,"nits":1000},"id":"9528CBFC-4D29-4914-8DFF-BBBFBBEE44C6","intensifies_audio":false,"is_placeholder":false,"is_tone_modify":false,"keyframe_refs":[],"last_nonzero_volume":1.0,"material_id":"376E4228-154E-48ad-98A6-BDB0739B3D1D","render_index":0,"responsive_layout":{"enable":false,"horizontal_pos_layout":0,"size_layout":0,"target_follow":"","vertical_pos_layout":0},"reverse":false,"source_timerange":{"duration":4633333,"start":0},"speed":1.0,"target_timerange":{"duration":4633333,"start":48100000},"template_id":"","template_scene":"default","track_attribute":0,"track_render_index":0,"uniform_scale":{"on":true,"value":1.0},"visible":true,"volume":1.0},{"caption_info":null,"cartoon":false,"clip":{"alpha":1.0,"flip":{"horizontal":false,"vertical":false},"rotation":0.0,"scale":{"x":1.0,"y":1.0},"transform":{"x":0.0,"y":0.0}},"common_keyframes":[],"enable_adjust":true,"enable_color_correct_adjust":false,"enable_color_curves":true,"enable_color_match_adjust":false,"enable_color_wheels":true,"enable_lut":true,"enable_smart_color_adjust":false,"extra_material_refs":["D81F19E8-9E3D-4b81-A9D5-F36E24AFC33D","FF800CF1-EDD6-4d7b-AE83-191D281830E8","32497380-5486-4f59-AD7E-B3487448BAA0","B0F7B163-D5D2-4c91-9A08-D727844BE4A8","B28944C2-92D4-44a6-8B89-E3F9AA7130E9","B2BC984C-A05A-4e38-BEC3-6C0F34536AE9","CCF75D05-592B-491c-9297-C012D2384583"],"group_id":"","hdr_settings":{"intensity":1.0,"mode":1,"nits":1000},"id":"6DADD05B-0634-4f1b-962C-6D555406602F","intensifies_audio":false,"is_placeholder":false,"is_tone_modify":false,"keyframe_refs":[],"last_nonzero_volume":1.0,"material_id":"5EF23114-9CB0-4dd1-95FD-4525D80AA18F","render_index":0,"responsive_layout":{"enable":false,"horizontal_pos_layout":0,"size_layout":0,"target_follow":"","vertical_pos_layout":0},"reverse":false,"source_timerange":{"duration":4200000,"start":0},"speed":1.0,"target_timerange":{"duration":4200000,"start":52733333},"template_id":"","template_scene":"default","track_attribute":0,"track_render_index":0,"uniform_scale":{"on":true,"value":1.0},"visible":true,"volume":1.0},{"caption_info":null,"cartoon":false,"clip":{"alpha":1.0,"flip":{"horizontal":false,"vertical":false},"rotation":0.0,"scale":{"x":1.0,"y":1.0},"transform":{"x":0.0,"y":0.0}},"common_keyframes":[],"enable_adjust":true,"enable_color_correct_adjust":false,"enable_color_curves":true,"enable_color_match_adjust":false,"enable_color_wheels":true,"enable_lut":true,"enable_smart_color_adjust":false,"extra_material_refs":["F1CCF333-3E8E-4245-9AEE-974EA16B9087","D50424D3-4D5B-4510-9ABA-53916E8E4ABD","A80A87FC-AB41-4b04-BEE9-D20C8F7157DA","F3624215-C451-4294-A2CD-EEA6107C6DCA","13A145BB-4DDA-48da-B6D7-0C2FED3F520A","C26326BA-57AD-4f24-9797-553B39A7B930","0A3F453B-F5E0-466d-A63F-D397717B5BFB"],"group_id":"","hdr_settings":{"intensity":1.0,"mode":1,"nits":1000},"id":"A1D4AEF6-D664-42aa-A93A-B5D7E6EDF091","intensifies_audio":false,"is_placeholder":false,"is_tone_modify":false,"keyframe_refs":[],"last_nonzero_volume":1.0,"material_id":"BA4CDF2A-A18D-4bd6-92A7-9F215B2DD7FD","render_index":0,"responsive_layout":{"enable":false,"horizontal_pos_layout":0,"size_layout":0,"target_follow":"","vertical_pos_layout":0},"reverse":false,"source_timerange":{"duration":4333333,"start":0},"speed":1.0,"target_timerange":{"duration":4333333,"start":56933333},"template_id":"","template_scene":"default","track_attribute":0,"track_render_index":0,"uniform_scale":{"on":true,"value":1.0},"visible":true,"volume":1.0},{"caption_info":null,"cartoon":false,"clip":{"alpha":1.0,"flip":{"horizontal":false,"vertical":false},"rotation":0.0,"scale":{"x":1.0,"y":1.0},"transform":{"x":0.0,"y":0.0}},"common_keyframes":[],"enable_adjust":true,"enable_color_correct_adjust":false,"enable_color_curves":true,"enable_color_match_adjust":false,"enable_color_wheels":true,"enable_lut":true,"enable_smart_color_adjust":false,"extra_material_refs":["B271D56B-8569-400b-A3E9-2D2D53D858F2","58CD043C-B0FE-40c0-90DB-09F007E51414","72284ACA-FA9A-46ea-ABE8-37DAF6E5E1B9","3F7499B8-D247-4958-990F-F44C28A3BF6C","7345E97A-C4C9-4a92-A5DE-54656CB5353E","464F54FD-CDD6-4718-B9DA-D6A4825A9EA8","5F5F5992-6223-4a58-939C-85A5292A43B5"],"group_id":"","hdr_settings":{"intensity":1.0,"mode":1,"nits":1000},"id":"8FC18B9F-98F5-4d69-83AA-378FD37AAB59","intensifies_audio":false,"is_placeholder":false,"is_tone_modify":false,"keyframe_refs":[],"last_nonzero_volume":1.0,"material_id":"221A9C73-3E83-4fda-9565-1ADD234519B5","render_index":0,"responsive_layout":{"enable":false,"horizontal_pos_layout":0,"size_layout":0,"target_follow":"","vertical_pos_layout":0},"reverse":false,"source_timerange":{"duration":5000000,"start":0},"speed":1.0,"target_timerange":{"duration":5000000,"start":61266666},"template_id":"","template_scene":"default","track_attribute":0,"track_render_index":0,"uniform_scale":{"on":true,"value":1.0},"visible":true,"volume":1.0},{"caption_info":null,"cartoon":false,"clip":{"alpha":1.0,"flip":{"horizontal":false,"vertical":false},"rotation":0.0,"scale":{"x":1.0,"y":1.0},"transform":{"x":0.0,"y":0.0}},"common_keyframes":[],"enable_adjust":true,"enable_color_correct_adjust":false,"enable_color_curves":true,"enable_color_match_adjust":false,"enable_color_wheels":true,"enable_lut":true,"enable_smart_color_adjust":false,"extra_material_refs":["FD327B7E-21DB-45c5-BECF-A4F1F8DBE9F3","C9592E4B-13EF-471e-B67B-F90674B141C2","54FF21F4-D727-4523-86AB-1E45F33CE633","79BD9C09-2C44-4000-A5DF-D7B0FBA3AEFD","67D4E847-9B10-4390-BDE8-C2CDA509233A","6C883250-8F91-49b6-BA41-E3CA95489FE3","A7E95BC7-F821-488a-A12F-9FA90F72D1D3"],"group_id":"","hdr_settings":{"intensity":1.0,"mode":1,"nits":1000},"id":"E89C2BE2-A304-439e-99A6-8CF0A7CEB26A","intensifies_audio":false,"is_placeholder":false,"is_tone_modify":false,"keyframe_refs":[],"last_nonzero_volume":1.0,"material_id":"1DC227B4-ACB8-42df-99EC-85CC4AE5600F","render_index":0,"responsive_layout":{"enable":false,"horizontal_pos_layout":0,"size_layout":0,"target_follow":"","vertical_pos_layout":0},"reverse":true,"source_timerange":{"duration":5000000,"start":0},"speed":1.0,"target_timerange":{"duration":5000000,"start":66266666},"template_id":"","template_scene":"default","track_attribute":0,"track_render_index":0,"uniform_scale":{"on":true,"value":1.0},"visible":true,"volume":1.0},{"caption_info":null,"cartoon":false,"clip":{"alpha":1.0,"flip":{"horizontal":false,"vertical":false},"rotation":0.0,"scale":{"x":1.0,"y":1.0},"transform":{"x":0.0,"y":0.0}},"common_keyframes":[],"enable_adjust":true,"enable_color_correct_adjust":false,"enable_color_curves":true,"enable_color_match_adjust":false,"enable_color_wheels":true,"enable_lut":true,"enable_smart_color_adjust":false,"extra_material_refs":["B34E1448-CBFC-417b-B75C-15A6F7B20644","0C55E1F9-7849-4a8b-A3EA-5E4689FC0847","2E8991C0-0770-47e4-A4A0-4656FEE0DD09","932885B6-FEAD-4d21-8B90-EB0E959774F6","A4903210-19ED-4c36-8B13-88EF08002AF9","27B37421-E3F4-465b-B998-D16A68DC144C"],"group_id":"","hdr_settings":{"intensity":1.0,"mode":1,"nits":1000},"id":"1D4CC920-DA35-494d-9895-C0382E249C19","intensifies_audio":false,"is_placeholder":false,"is_tone_modify":false,"keyframe_refs":[],"last_nonzero_volume":1.0,"material_id":"197B0156-0B2E-491a-B4F5-A4CC0CC4A816","render_index":0,"responsive_layout":{"enable":false,"horizontal_pos_layout":0,"size_layout":0,"target_follow":"","vertical_pos_layout":0},"reverse":false,"source_timerange":{"duration":4766667,"start":0},"speed":1.0,"target_timerange":{"duration":4766667,"start":71266666},"template_id":"","template_scene":"default","track_attribute":0,"track_render_index":0,"uniform_scale":{"on":true,"value":1.0},"visible":true,"volume":1.0},{"caption_info":null,"cartoon":false,"clip":{"alpha":1.0,"flip":{"horizontal":false,"vertical":false},"rotation":0.0,"scale":{"x":1.0,"y":1.0},"transform":{"x":0.0,"y":0.0}},"common_keyframes":[],"enable_adjust":true,"enable_color_correct_adjust":false,"enable_color_curves":true,"enable_color_match_adjust":false,"enable_color_wheels":true,"enable_lut":true,"enable_smart_color_adjust":false,"extra_material_refs":["82565013-DC37-4a0d-93EC-53B01A6958D9","4D378065-F78C-4fc6-81AF-BD5AE6BC503F","6DD7902C-D0A9-4170-9A47-1DE42F35FC78","0E0CB064-9F8F-4e1c-8790-4EBD38EF3A66","99BBA819-A100-4bd3-A0C4-78D25C3EA2DE"],"group_id":"","hdr_settings":{"intensity":1.0,"mode":1,"nits":1000},"id":"14644442-4AC9-4554-8E7D-C91099AE09EF","intensifies_audio":false,"is_placeholder":false,"is_tone_modify":false,"keyframe_refs":[],"last_nonzero_volume":1.0,"material_id":"92B0AA73-7F0C-41ee-A4E0-49149DB7F657","render_index":0,"responsive_layout":{"enable":false,"horizontal_pos_layout":0,"size_layout":0,"target_follow":"","vertical_pos_layout":0},"reverse":false,"source_timerange":{"duration":5000000,"start":0},"speed":1.0,"target_timerange":{"duration":5000000,"start":76033333},"template_id":"","template_scene":"default","track_attribute":0,"track_render_index":0,"uniform_scale":{"on":true,"value":1.0},"visible":true,"volume":1.0}],"type":"video"}],"update_time":0,"version":360000}