{"canvas_config":{"background":null,"height":1920,"ratio":"original","width":1920},"color_space":0,"config":{"adjust_max_index":1,"attachment_info":[],"combination_max_index":1,"export_range":null,"extract_audio_last_index":1,"lyrics_recognition_id":"","lyrics_sync":true,"lyrics_taskinfo":[],"maintrack_adsorb":true,"material_save_mode":0,"multi_language_current":"none","multi_language_list":[],"multi_language_main":"none","multi_language_mode":"none","original_sound_last_index":1,"record_audio_last_index":1,"sticker_max_index":1,"subtitle_keywords_config":null,"subtitle_recognition_id":"","subtitle_sync":true,"subtitle_taskinfo":[],"system_font_list":[],"video_mute":false,"zoom_info_params":{"offset_x":0.0,"offset_y":0.0,"zoom_ratio":0.9998700000000006}},"cover":null,"create_time":0,"duration":116366666,"extra_info":null,"fps":30.0,"free_render_index_mode_on":false,"group_container":null,"id":"E881CE95-FDD5-4402-87D5-0254339E1B5A","is_drop_frame_timecode":false,"keyframe_graph_list":[],"keyframes":{"adjusts":[],"audios":[],"effects":[],"filters":[],"handwrites":[],"stickers":[],"texts":[],"videos":[]},"last_modified_platform":{"app_id":359289,"app_source":"cc","app_version":"5.9.0","device_id":"c87871b01ed15b67aca19f3efea983b4","hard_disk_id":"98697f5b2672733057711c84e4b517c3","mac_address":"09861091e4eef2367b35d8703476edfc,3ab780bc59d11a00e1ba676c31de1115","os":"windows","os_version":"10.0.26100"},"lyrics_effects":[],"materials":{"ai_translates":[],"audio_balances":[],"audio_effects":[],"audio_fades":[],"audio_track_indexes":[],"audios":[{"ai_music_generate_scene":0,"ai_music_type":0,"aigc_history_id":"","aigc_item_id":"","app_id":0,"category_id":"","category_name":"local","check_flag":1,"copyright_limit_type":"none","duration":116366666,"effect_id":"","formula_id":"","id":"FBE557E4-A3D0-4a32-BD19-7CC78BCB1368","intensifies_path":"","is_ai_clone_tone":false,"is_ai_clone_tone_post":false,"is_text_edit_overdub":false,"is_ugc":false,"local_material_id":"4c4da628-65f9-4cb2-950c-98d6ff194eb3","lyric_type":0,"moyin_emotion":"","music_id":"695c2ec7-ac98-416c-b48b-69fece1ea7af","music_source":"","name":"humble.mp3","path":"##_draftpath_placeholder_0E685133-18CE-45ED-8CB8-2904A212EC80_##/sora/humble.mp3","pgc_id":"","pgc_name":"","query":"","request_id":"","resource_id":"","search_id":"","similiar_music_info":{"original_song_id":"","original_song_name":""},"sound_separate_type":"","source_from":"","source_platform":0,"team_id":"","text_id":"","third_resource_id":"","tone_category_id":"","tone_category_name":"","tone_effect_id":"","tone_effect_name":"","tone_emotion_name_key":"","tone_emotion_role":"","tone_emotion_scale":0.0,"tone_emotion_selection":"","tone_emotion_style":"","tone_platform":"","tone_second_category_id":"","tone_second_category_name":"","tone_speaker":"","tone_type":"","tts_generate_scene":"","tts_task_id":"","type":"extract_music","video_id":"","wave_points":[]}],"beats":[{"ai_beats":{"beat_speed_infos":[],"beats_path":"","beats_url":"","melody_path":"","melody_percents":[0.0],"melody_url":""},"enable_ai_beats":false,"gear":404,"gear_count":0,"id":"429D9469-75F8-4664-9FA9-C0DD9C042B8F","mode":404,"type":"beats","user_beats":[],"user_delete_ai_beats":null}],"canvases":[{"album_image":"","blur":0.0,"color":"","id":"2DC93F7E-188E-49e2-A65A-8E2548727DF0","image":"","image_id":"","image_name":"","source_platform":0,"team_id":"","type":"canvas_color"},{"album_image":"","blur":0.0,"color":"","id":"268366A9-6A40-40d7-BCDF-83336F2E6F6C","image":"","image_id":"","image_name":"","source_platform":0,"team_id":"","type":"canvas_color"},{"album_image":"","blur":0.0,"color":"","id":"8272CA5E-0236-4396-B0E1-61D572881F99","image":"","image_id":"","image_name":"","source_platform":0,"team_id":"","type":"canvas_color"},{"album_image":"","blur":0.0,"color":"","id":"A8D99ECE-B931-4133-BBC9-0E9C020B057F","image":"","image_id":"","image_name":"","source_platform":0,"team_id":"","type":"canvas_color"},{"album_image":"","blur":0.0,"color":"","id":"89511355-8D9F-49e5-83A0-DE44C2B496DE","image":"","image_id":"","image_name":"","source_platform":0,"team_id":"","type":"canvas_color"},{"album_image":"","blur":0.0,"color":"","id":"B36233B4-8E4A-4e15-9969-B9E3903102F7","image":"","image_id":"","image_name":"","source_platform":0,"team_id":"","type":"canvas_color"},{"album_image":"","blur":0.0,"color":"","id":"157F4473-3202-4234-AB27-9FD18EE00982","image":"","image_id":"","image_name":"","source_platform":0,"team_id":"","type":"canvas_color"},{"album_image":"","blur":0.0,"color":"","id":"0ADA2770-4416-4cde-89EC-1DD171A1CD99","image":"","image_id":"","image_name":"","source_platform":0,"team_id":"","type":"canvas_color"},{"album_image":"","blur":0.0,"color":"","id":"5A24B1BB-3CE8-4e84-AB09-BC217745EA3C","image":"","image_id":"","image_name":"","source_platform":0,"team_id":"","type":"canvas_color"},{"album_image":"","blur":0.0,"color":"","id":"E1DE110A-00FF-40e9-8F52-55DA18831F85","image":"","image_id":"","image_name":"","source_platform":0,"team_id":"","type":"canvas_color"},{"album_image":"","blur":0.0,"color":"","id":"A2F488DF-B3CB-417d-B87F-1511A001564F","image":"","image_id":"","image_name":"","source_platform":0,"team_id":"","type":"canvas_color"},{"album_image":"","blur":0.0,"color":"","id":"38D70356-D45A-425c-B457-DA9BDA102592","image":"","image_id":"","image_name":"","source_platform":0,"team_id":"","type":"canvas_color"},{"album_image":"","blur":0.0,"color":"","id":"8BD49ECB-5D91-4908-976C-F7188A70EA14","image":"","image_id":"","image_name":"","source_platform":0,"team_id":"","type":"canvas_color"},{"album_image":"","blur":0.0,"color":"","id":"BAAE2442-4BDD-48cb-BE67-54BC34FD949D","image":"","image_id":"","image_name":"","source_platform":0,"team_id":"","type":"canvas_color"},{"album_image":"","blur":0.0,"color":"","id":"81CB3D12-EA9E-41cb-9A93-E3C4EB46A1FC","image":"","image_id":"","image_name":"","source_platform":0,"team_id":"","type":"canvas_color"},{"album_image":"","blur":0.0,"color":"","id":"52FFA38A-0E78-475b-8ED0-2475C097460F","image":"","image_id":"","image_name":"","source_platform":0,"team_id":"","type":"canvas_color"},{"album_image":"","blur":0.0,"color":"","id":"F15E66FB-48C8-43b1-966A-E6C4BB356886","image":"","image_id":"","image_name":"","source_platform":0,"team_id":"","type":"canvas_color"},{"album_image":"","blur":0.0,"color":"","id":"39CCD783-59EE-4c96-9CBA-CE8CF246860E","image":"","image_id":"","image_name":"","source_platform":0,"team_id":"","type":"canvas_color"},{"album_image":"","blur":0.0,"color":"","id":"8C20E3AF-5E5D-45bf-96CC-B84C0E89B6B0","image":"","image_id":"","image_name":"","source_platform":0,"team_id":"","type":"canvas_color"}],"chromas":[],"color_curves":[],"common_mask":[],"digital_humans":[],"drafts":[],"effects":[],"flowers":[],"green_screens":[],"handwrites":[],"hsl":[],"images":[],"log_color_wheels":[],"loudnesses":[],"manual_beautys":[],"manual_deformations":[],"material_animations":[{"animations":[],"id":"1F83B275-17D9-40a6-8635-16C51D040671","multi_language_current":"none","type":"sticker_animation"},{"animations":[],"id":"C198A1EF-6E3D-43b4-96BB-31FCE08AF344","multi_language_current":"none","type":"sticker_animation"},{"animations":[],"id":"D19FBFB5-E6F0-40b6-80C4-797FBB1BD059","multi_language_current":"none","type":"sticker_animation"},{"animations":[],"id":"A62105D8-8A4A-412d-AB07-006EA3286682","multi_language_current":"none","type":"sticker_animation"},{"animations":[],"id":"3BA0F954-F647-4f01-BE0C-4DD54D4D8A31","multi_language_current":"none","type":"sticker_animation"},{"animations":[],"id":"417AA34D-A4E3-4ba7-8E96-0932DD262CBF","multi_language_current":"none","type":"sticker_animation"},{"animations":[],"id":"CF4B94E1-0FA3-4f61-8AAC-B1CA0D060439","multi_language_current":"none","type":"sticker_animation"},{"animations":[],"id":"97CD03AB-10A0-4671-B725-6B8FE87F2254","multi_language_current":"none","type":"sticker_animation"},{"animations":[],"id":"1BE58F41-12DA-4c29-A29B-8A5D242FFD99","multi_language_current":"none","type":"sticker_animation"},{"animations":[],"id":"94D588D5-9BFD-4d7d-8419-38B10A8745BF","multi_language_current":"none","type":"sticker_animation"},{"animations":[],"id":"9E63F040-EAEC-4317-B911-710C58677BF8","multi_language_current":"none","type":"sticker_animation"}],"material_colors":[],"multi_language_refs":[],"placeholder_infos":[{"error_path":"","error_text":"","id":"FF4EC769-F387-45d0-8A5A-0E0750FF1526","meta_type":"none","res_path":"","res_text":"","type":"placeholder_info"},{"error_path":"","error_text":"","id":"52E08B30-1CDD-4887-9F59-DCDDF10DCAAE","meta_type":"none","res_path":"","res_text":"","type":"placeholder_info"},{"error_path":"","error_text":"","id":"714D665B-6A6F-4011-967D-2F8BEC3CDE52","meta_type":"none","res_path":"","res_text":"","type":"placeholder_info"},{"error_path":"","error_text":"","id":"F290CF56-1EB6-416b-9AFA-E3E2EA4DEDA8","meta_type":"none","res_path":"","res_text":"","type":"placeholder_info"},{"error_path":"","error_text":"","id":"8FE6D3CD-8B07-4f54-99A6-9392436E187B","meta_type":"none","res_path":"","res_text":"","type":"placeholder_info"},{"error_path":"","error_text":"","id":"6915F3C8-3B9B-41f9-925B-67D5335B8AD7","meta_type":"none","res_path":"","res_text":"","type":"placeholder_info"},{"error_path":"","error_text":"","id":"3FA82E9B-B289-4872-9554-7F64BE3D955E","meta_type":"none","res_path":"","res_text":"","type":"placeholder_info"},{"error_path":"","error_text":"","id":"1FA6A5D8-1316-499e-9FFC-71291DF59D8C","meta_type":"none","res_path":"","res_text":"","type":"placeholder_info"},{"error_path":"","error_text":"","id":"49603BF7-2912-486b-AD35-C74D8188EC77","meta_type":"none","res_path":"","res_text":"","type":"placeholder_info"},{"error_path":"","error_text":"","id":"9C4FCD12-C1A4-4e7a-BD4E-6604807D2A5F","meta_type":"none","res_path":"","res_text":"","type":"placeholder_info"},{"error_path":"","error_text":"","id":"04A31DA6-8ADD-4ab8-BE9A-F679841C03BA","meta_type":"none","res_path":"","res_text":"","type":"placeholder_info"},{"error_path":"","error_text":"","id":"C3ED40E6-4539-4ae2-B253-5F00A1A6FED1","meta_type":"none","res_path":"","res_text":"","type":"placeholder_info"},{"error_path":"","error_text":"","id":"C6C5D977-123C-4564-AF3C-8BF8339ADCF1","meta_type":"none","res_path":"","res_text":"","type":"placeholder_info"},{"error_path":"","error_text":"","id":"9A3195F7-1001-40c2-99E3-9A17477BB200","meta_type":"none","res_path":"","res_text":"","type":"placeholder_info"},{"error_path":"","error_text":"","id":"4C8F9A07-8EA1-4297-A603-4CFF62D89594","meta_type":"none","res_path":"","res_text":"","type":"placeholder_info"},{"error_path":"","error_text":"","id":"17C3F732-57D8-46ee-8BA6-9A8607DE3277","meta_type":"none","res_path":"","res_text":"","type":"placeholder_info"},{"error_path":"","error_text":"","id":"6375B1A4-FDD5-4c40-95EC-4F0E3ED7928D","meta_type":"none","res_path":"","res_text":"","type":"placeholder_info"},{"error_path":"","error_text":"","id":"37718C81-9EA9-4ae9-97FC-78FBFC745AE4","meta_type":"none","res_path":"","res_text":"","type":"placeholder_info"},{"error_path":"","error_text":"","id":"42155C1D-FE2E-4402-88F4-704D020D4907","meta_type":"none","res_path":"","res_text":"","type":"placeholder_info"},{"error_path":"","error_text":"","id":"285BFB7F-7FCC-43a7-8036-0D278E4E3484","meta_type":"none","res_path":"","res_text":"","type":"placeholder_info"}],"placeholders":[],"plugin_effects":[],"primary_color_wheels":[],"realtime_denoises":[],"shapes":[],"smart_crops":[],"smart_relights":[],"sound_channel_mappings":[{"audio_channel_mapping":0,"id":"E35A253F-9A14-4566-AA76-5BA5EF665662","is_config_open":false,"type":""},{"audio_channel_mapping":0,"id":"A9EA3F02-A270-4124-B105-4092398C4DA9","is_config_open":false,"type":""},{"audio_channel_mapping":0,"id":"CFACA607-EBF7-4257-9E06-862EA58C9EAE","is_config_open":false,"type":""},{"audio_channel_mapping":0,"id":"F69FEBB0-7893-4988-9F30-3846302C223E","is_config_open":false,"type":""},{"audio_channel_mapping":0,"id":"2F629E01-B90A-4010-A654-E4C89E0277E1","is_config_open":false,"type":""},{"audio_channel_mapping":0,"id":"520DF8B3-8CAD-432b-A0DA-BFBCAB371D62","is_config_open":false,"type":""},{"audio_channel_mapping":0,"id":"0BA4039E-BA2B-496f-B787-08759BC05FA4","is_config_open":false,"type":""},{"audio_channel_mapping":0,"id":"AD30D52D-A24B-435c-9FB8-8350B4AA3DEF","is_config_open":false,"type":""},{"audio_channel_mapping":0,"id":"0436485E-35D4-461b-AAB9-8AF46AED6202","is_config_open":false,"type":""},{"audio_channel_mapping":0,"id":"25663BD2-D960-4789-83C2-06A874756393","is_config_open":false,"type":""},{"audio_channel_mapping":0,"id":"D5319DB3-078E-4143-992F-A3525F156DF8","is_config_open":false,"type":""},{"audio_channel_mapping":0,"id":"A95E65CD-400F-4f8a-802E-663B09BE260A","is_config_open":false,"type":""},{"audio_channel_mapping":0,"id":"C14A4C34-8BFE-4766-9CEC-15AF6B48BEF5","is_config_open":false,"type":""},{"audio_channel_mapping":0,"id":"1B7E4114-F20D-4bb9-B0BA-8B36C02361A5","is_config_open":false,"type":""},{"audio_channel_mapping":0,"id":"FD94E61E-98C4-4ce7-9009-3679A9F9D452","is_config_open":false,"type":""},{"audio_channel_mapping":0,"id":"311F1897-3C8D-4e69-A0C7-2FFC594F76A9","is_config_open":false,"type":""},{"audio_channel_mapping":0,"id":"0A7D0641-6080-496f-BFAC-D97E9730A98D","is_config_open":false,"type":""},{"audio_channel_mapping":0,"id":"B00A1CF5-05A1-4e02-91AF-95FA2B9B2D27","is_config_open":false,"type":""},{"audio_channel_mapping":0,"id":"0CD02676-074A-44b8-B516-4CC23FFE634E","is_config_open":false,"type":""},{"audio_channel_mapping":0,"id":"9F1FE810-49E7-4ee6-B3F0-DF430A6C645B","is_config_open":false,"type":""}],"speeds":[{"curve_speed":null,"id":"CC5A1FFC-0979-4c50-85FF-AFD02DC48B22","mode":0,"speed":1.0,"type":"speed"},{"curve_speed":null,"id":"9CC7B0A8-505C-4b6b-8A11-B864095250CB","mode":0,"speed":1.0,"type":"speed"},{"curve_speed":null,"id":"6CA820BA-0F3E-4d12-82D7-21E6D06FDFDD","mode":0,"speed":1.0,"type":"speed"},{"curve_speed":null,"id":"F893AB36-8C96-4cb7-A725-9429926E58FE","mode":0,"speed":1.0,"type":"speed"},{"curve_speed":null,"id":"C8F9A34A-12A9-475a-8BA4-A6AD1CBE336A","mode":0,"speed":1.0,"type":"speed"},{"curve_speed":null,"id":"56C754E9-3548-4a5e-9CC7-CF6D6841FA0C","mode":0,"speed":1.0,"type":"speed"},{"curve_speed":null,"id":"644053C0-3526-4dc7-9118-C42906A227C1","mode":0,"speed":1.0,"type":"speed"},{"curve_speed":null,"id":"04A6AF74-4691-4f63-8F28-0B039CE146B9","mode":0,"speed":1.0,"type":"speed"},{"curve_speed":null,"id":"AAE7636F-D466-4d7a-8017-D3AC7D8DEF49","mode":0,"speed":1.0,"type":"speed"},{"curve_speed":null,"id":"25C8C3EE-7311-4f10-A6BF-2F42DA268104","mode":0,"speed":1.0,"type":"speed"},{"curve_speed":null,"id":"F4EFE842-D8D8-4eb7-8FAE-BAD8E38336C4","mode":0,"speed":0.7,"type":"speed"},{"curve_speed":null,"id":"19F9F67C-1BE6-4bdb-A8DE-D1518AFAECF8","mode":0,"speed":2.0,"type":"speed"},{"curve_speed":null,"id":"A489EF8F-5BCD-4fde-A05C-290123804DFA","mode":0,"speed":1.0,"type":"speed"},{"curve_speed":null,"id":"138E5108-3BE4-4f79-9754-6CB6065B2B88","mode":0,"speed":1.0,"type":"speed"},{"curve_speed":null,"id":"416C6F02-40F2-41a6-8315-9CC50EB50A35","mode":0,"speed":1.0,"type":"speed"},{"curve_speed":null,"id":"63B2015B-DF3E-4b33-8510-842C755F74ED","mode":0,"speed":1.5,"type":"speed"},{"curve_speed":null,"id":"92F775E3-7AB6-42e1-9D98-E47736A02A80","mode":0,"speed":1.5,"type":"speed"},{"curve_speed":null,"id":"E32F161E-ABA0-48bb-8366-0784FE435F23","mode":0,"speed":1.0,"type":"speed"},{"curve_speed":null,"id":"753B0E95-9E60-4f47-B6E7-F56E49289B41","mode":0,"speed":1.0,"type":"speed"},{"curve_speed":null,"id":"6B18E7B7-FFFD-4055-91CD-44BC032FEBCC","mode":0,"speed":1.0,"type":"speed"}],"stickers":[],"tail_leaders":[],"text_templates":[],"texts":[],"time_marks":[],"transitions":[{"category_id":"123456","category_name":"Transitions","duration":466666,"effect_id":"9290989","id":"3A43D46D-82D7-4184-B352-BF354417A255","is_overlap":true,"name":"Dissolve II","path":"C:/Users/Computer/AppData/Local/CapCut/User Data/Cache/effect/9290989/8179e342f9b24dd1817c56f7ef1f8f9b","platform":"all","request_id":"20250321144459010191015100405AEF1","resource_id":"6724866927933526542","source_platform":0,"third_resource_id":"0","type":"transition"},{"category_id":"123456","category_name":"Transitions","duration":466666,"effect_id":"9290989","id":"C23D1102-5F39-4a65-BFA8-D09DA1E0E7A7","is_overlap":true,"name":"Dissolve II","path":"C:/Users/Computer/AppData/Local/CapCut/User Data/Cache/effect/9290989/8179e342f9b24dd1817c56f7ef1f8f9b","platform":"all","request_id":"20250321144459010191015100405AEF1","resource_id":"6724866927933526542","source_platform":0,"third_resource_id":"0","type":"transition"},{"category_id":"123456","category_name":"Transitions","duration":466666,"effect_id":"3202293","id":"6401768A-39B2-4a05-92C7-58C4A9AF7C33","is_overlap":true,"name":"Mix","path":"C:/Users/Computer/AppData/Local/CapCut/User Data/Cache/effect/3202293/6f18fb242b64f9641da79aa773a33687","platform":"all","request_id":"","resource_id":"6724845717472416269","source_platform":0,"third_resource_id":"","type":"transition"},{"category_id":"123456","category_name":"Transitions","duration":466666,"effect_id":"3202293","id":"58A4F7DE-2A0C-48fe-AA6B-9F89DD372324","is_overlap":true,"name":"Mix","path":"C:/Users/Computer/AppData/Local/CapCut/User Data/Cache/effect/3202293/6f18fb242b64f9641da79aa773a33687","platform":"all","request_id":"","resource_id":"6724845717472416269","source_platform":0,"third_resource_id":"","type":"transition"},{"category_id":"123456","category_name":"Transitions","duration":466666,"effect_id":"3202293","id":"70735C11-72DC-43bf-BD4B-7284F8A7C37B","is_overlap":true,"name":"Mix","path":"C:/Users/Computer/AppData/Local/CapCut/User Data/Cache/effect/3202293/6f18fb242b64f9641da79aa773a33687","platform":"all","request_id":"","resource_id":"6724845717472416269","source_platform":0,"third_resource_id":"","type":"transition"},{"category_id":"123456","category_name":"Transitions","duration":466666,"effect_id":"3202293","id":"109B5397-B8E7-4985-B480-39FF6EA79409","is_overlap":true,"name":"Mix","path":"C:/Users/Computer/AppData/Local/CapCut/User Data/Cache/effect/3202293/6f18fb242b64f9641da79aa773a33687","platform":"all","request_id":"","resource_id":"6724845717472416269","source_platform":0,"third_resource_id":"","type":"transition"}],"video_effects":[],"video_trackings":[],"videos":[{"aigc_history_id":"","aigc_item_id":"","aigc_type":"none","audio_fade":null,"beauty_body_preset_id":"","beauty_face_auto_preset":{"name":"","preset_id":"","rate_map":""},"beauty_face_auto_preset_infos":[],"beauty_face_preset_infos":[],"cartoon_path":"","category_id":"","category_name":"local","check_flag":62978047,"crop":{"lower_left_x":0.0,"lower_left_y":1.0,"lower_right_x":1.0,"lower_right_y":1.0,"upper_left_x":0.0,"upper_left_y":0.0,"upper_right_x":1.0,"upper_right_y":0.0},"crop_ratio":"free","crop_scale":1.0,"duration":10000000,"extra_type_option":0,"formula_id":"","freeze":null,"has_audio":false,"has_sound_separated":false,"height":480,"id":"7B5CED52-8692-4240-AFE5-31C047DEFB9B","intensifies_audio_path":"","intensifies_path":"","is_ai_generate_content":false,"is_copyright":false,"is_text_edit_overdub":false,"is_unified_beauty_mode":false,"live_photo_cover_path":"","live_photo_timestamp":-1,"local_id":"","local_material_from":"","local_material_id":"7341507e-f09d-402f-949a-7aa3f8ea5281","material_id":"","material_name":"1.01_20250320_2123_Excited Dog's Park Adventure_simple_compose_01jpv4rf21fvsb4p9w56x21fgn.mp4","material_url":"","matting":{"custom_matting_id":"","enable_matting_stroke":false,"expansion":0,"feather":0,"flag":0,"has_use_quick_brush":false,"has_use_quick_eraser":false,"interactiveTime":[],"path":"","reverse":false,"strokes":[]},"media_path":"","multi_camera_info":null,"object_locked":null,"origin_material_id":"","path":"##_draftpath_placeholder_0E685133-18CE-45ED-8CB8-2904A212EC80_##/sora/1.01_20250320_2123_Excited Dog's Park Adventure_simple_compose_01jpv4rf21fvsb4p9w56x21fgn.mp4","picture_from":"none","picture_set_category_id":"","picture_set_category_name":"","request_id":"","reverse_intensifies_path":"","reverse_path":"","smart_match_info":null,"smart_motion":null,"source":0,"source_platform":0,"stable":{"matrix_path":"","stable_level":0,"time_range":{"duration":0,"start":0}},"team_id":"","type":"video","video_algorithm":{"ai_background_configs":[],"ai_expression_driven":null,"ai_motion_driven":null,"aigc_generate":null,"algorithms":[],"complement_frame_config":null,"deflicker":null,"gameplay_configs":[],"motion_blur_config":null,"mouth_shape_driver":null,"noise_reduction":null,"path":"","quality_enhance":null,"smart_complement_frame":null,"super_resolution":null,"time_range":{"duration":7000000,"start":3000000}},"width":480},{"aigc_history_id":"","aigc_item_id":"","aigc_type":"none","audio_fade":null,"beauty_body_preset_id":"","beauty_face_auto_preset":{"name":"","preset_id":"","rate_map":""},"beauty_face_auto_preset_infos":[],"beauty_face_preset_infos":[],"cartoon_path":"","category_id":"","category_name":"local","check_flag":62978047,"crop":{"lower_left_x":0.0,"lower_left_y":1.0,"lower_right_x":1.0,"lower_right_y":1.0,"upper_left_x":0.0,"upper_left_y":0.0,"upper_right_x":1.0,"upper_right_y":0.0},"crop_ratio":"free","crop_scale":1.0,"duration":10000000,"extra_type_option":0,"formula_id":"","freeze":null,"has_audio":false,"has_sound_separated":false,"height":480,"id":"5BD7D6A4-AB33-4ddb-B4C5-54798A449229","intensifies_audio_path":"","intensifies_path":"","is_ai_generate_content":false,"is_copyright":false,"is_text_edit_overdub":false,"is_unified_beauty_mode":false,"live_photo_cover_path":"","live_photo_timestamp":-1,"local_id":"","local_material_from":"","local_material_id":"e8817878-c313-438f-a902-c22cea2952d2","material_id":"","material_name":"1.02_20250320_2125_Leash of Curiosity_storyboard_01jpv4vc0hfmbv040p54wsnrvs.mp4","material_url":"","matting":{"custom_matting_id":"","enable_matting_stroke":false,"expansion":0,"feather":0,"flag":0,"has_use_quick_brush":false,"has_use_quick_eraser":false,"interactiveTime":[],"path":"","reverse":false,"strokes":[]},"media_path":"","multi_camera_info":null,"object_locked":null,"origin_material_id":"","path":"##_draftpath_placeholder_0E685133-18CE-45ED-8CB8-2904A212EC80_##/sora/1.02_20250320_2125_Leash of Curiosity_storyboard_01jpv4vc0hfmbv040p54wsnrvs.mp4","picture_from":"none","picture_set_category_id":"","picture_set_category_name":"","request_id":"","reverse_intensifies_path":"","reverse_path":"","smart_match_info":null,"smart_motion":null,"source":0,"source_platform":0,"stable":{"matrix_path":"","stable_level":0,"time_range":{"duration":0,"start":0}},"team_id":"","type":"video","video_algorithm":{"ai_background_configs":[],"ai_expression_driven":null,"ai_motion_driven":null,"aigc_generate":null,"algorithms":[],"complement_frame_config":null,"deflicker":null,"gameplay_configs":[],"motion_blur_config":null,"mouth_shape_driver":null,"noise_reduction":null,"path":"","quality_enhance":null,"smart_complement_frame":null,"super_resolution":null,"time_range":{"duration":10000000,"start":0}},"width":480},{"aigc_history_id":"","aigc_item_id":"","aigc_type":"none","audio_fade":null,"beauty_body_preset_id":"","beauty_face_auto_preset":{"name":"","preset_id":"","rate_map":""},"beauty_face_auto_preset_infos":[],"beauty_face_preset_infos":[],"cartoon_path":"","category_id":"","category_name":"local","check_flag":62978047,"crop":{"lower_left_x":0.0,"lower_left_y":1.0,"lower_right_x":1.0,"lower_right_y":1.0,"upper_left_x":0.0,"upper_left_y":0.0,"upper_right_x":1.0,"upper_right_y":0.0},"crop_ratio":"free","crop_scale":1.0,"duration":10000000,"extra_type_option":0,"formula_id":"","freeze":null,"has_audio":false,"has_sound_separated":false,"height":480,"id":"5E36081C-F7E0-46ae-B149-9E536519238B","intensifies_audio_path":"","intensifies_path":"","is_ai_generate_content":false,"is_copyright":false,"is_text_edit_overdub":false,"is_unified_beauty_mode":false,"live_photo_cover_path":"","live_photo_timestamp":-1,"local_id":"","local_material_from":"","local_material_id":"8c6e50a0-529f-4a55-98e5-4f8f2432329f","material_id":"","material_name":"1.03_20250320_2131_Interrupted Pooch Ceremony_storyboard_01jpv56jbwfxarz8kaqs5qjxp8.mp4","material_url":"","matting":{"custom_matting_id":"","enable_matting_stroke":false,"expansion":0,"feather":0,"flag":0,"has_use_quick_brush":false,"has_use_quick_eraser":false,"interactiveTime":[],"path":"","reverse":false,"strokes":[]},"media_path":"","multi_camera_info":null,"object_locked":null,"origin_material_id":"","path":"##_draftpath_placeholder_0E685133-18CE-45ED-8CB8-2904A212EC80_##/sora/1.03_20250320_2131_Interrupted Pooch Ceremony_storyboard_01jpv56jbwfxarz8kaqs5qjxp8.mp4","picture_from":"none","picture_set_category_id":"","picture_set_category_name":"","request_id":"","reverse_intensifies_path":"","reverse_path":"","smart_match_info":null,"smart_motion":null,"source":0,"source_platform":0,"stable":{"matrix_path":"","stable_level":0,"time_range":{"duration":0,"start":0}},"team_id":"","type":"video","video_algorithm":{"ai_background_configs":[],"ai_expression_driven":null,"ai_motion_driven":null,"aigc_generate":null,"algorithms":[],"complement_frame_config":null,"deflicker":null,"gameplay_configs":[],"motion_blur_config":null,"mouth_shape_driver":null,"noise_reduction":null,"path":"","quality_enhance":null,"smart_complement_frame":null,"super_resolution":null,"time_range":{"duration":10000000,"start":0}},"width":480},{"aigc_history_id":"","aigc_item_id":"","aigc_type":"none","audio_fade":null,"beauty_body_preset_id":"","beauty_face_auto_preset":{"name":"","preset_id":"","rate_map":""},"beauty_face_auto_preset_infos":[],"beauty_face_preset_infos":[],"cartoon_path":"","category_id":"","category_name":"local","check_flag":62978047,"crop":{"lower_left_x":0.0,"lower_left_y":1.0,"lower_right_x":1.0,"lower_right_y":1.0,"upper_left_x":0.0,"upper_left_y":0.0,"upper_right_x":1.0,"upper_right_y":0.0},"crop_ratio":"free","crop_scale":1.0,"duration":10000000,"extra_type_option":0,"formula_id":"","freeze":null,"has_audio":false,"has_sound_separated":false,"height":480,"id":"E4731F87-E604-4e60-9974-429925F0BA65","intensifies_audio_path":"","intensifies_path":"","is_ai_generate_content":false,"is_copyright":false,"is_text_edit_overdub":false,"is_unified_beauty_mode":false,"live_photo_cover_path":"","live_photo_timestamp":-1,"local_id":"","local_material_from":"","local_material_id":"c21f2d29-ec98-43b5-99f5-3612fe48155c","material_id":"","material_name":"1.04_20250320_2203_Dog's Curious Sniff_storyboard_01jpv70r6ve3ts8r49zas0jgbe.mp4","material_url":"","matting":{"custom_matting_id":"","enable_matting_stroke":false,"expansion":0,"feather":0,"flag":0,"has_use_quick_brush":false,"has_use_quick_eraser":false,"interactiveTime":[],"path":"","reverse":false,"strokes":[]},"media_path":"","multi_camera_info":null,"object_locked":null,"origin_material_id":"","path":"##_draftpath_placeholder_0E685133-18CE-45ED-8CB8-2904A212EC80_##/sora/1.04_20250320_2203_Dog's Curious Sniff_storyboard_01jpv70r6ve3ts8r49zas0jgbe.mp4","picture_from":"none","picture_set_category_id":"","picture_set_category_name":"","request_id":"","reverse_intensifies_path":"","reverse_path":"","smart_match_info":null,"smart_motion":null,"source":0,"source_platform":0,"stable":{"matrix_path":"","stable_level":0,"time_range":{"duration":0,"start":0}},"team_id":"","type":"video","video_algorithm":{"ai_background_configs":[],"ai_expression_driven":null,"ai_motion_driven":null,"aigc_generate":null,"algorithms":[],"complement_frame_config":null,"deflicker":null,"gameplay_configs":[],"motion_blur_config":null,"mouth_shape_driver":null,"noise_reduction":null,"path":"","quality_enhance":null,"smart_complement_frame":null,"super_resolution":null,"time_range":{"duration":10000000,"start":0}},"width":480},{"aigc_history_id":"","aigc_item_id":"","aigc_type":"none","audio_fade":null,"beauty_body_preset_id":"","beauty_face_auto_preset":{"name":"","preset_id":"","rate_map":""},"beauty_face_auto_preset_infos":[],"beauty_face_preset_infos":[],"cartoon_path":"","category_id":"","category_name":"local","check_flag":62978047,"crop":{"lower_left_x":0.0,"lower_left_y":1.0,"lower_right_x":1.0,"lower_right_y":1.0,"upper_left_x":0.0,"upper_left_y":0.0,"upper_right_x":1.0,"upper_right_y":0.0},"crop_ratio":"free","crop_scale":1.0,"duration":10000000,"extra_type_option":0,"formula_id":"","freeze":null,"has_audio":false,"has_sound_separated":false,"height":480,"id":"2BF39E74-F71F-44a2-9758-DAE199878939","intensifies_audio_path":"","intensifies_path":"","is_ai_generate_content":false,"is_copyright":false,"is_text_edit_overdub":false,"is_unified_beauty_mode":false,"live_photo_cover_path":"","live_photo_timestamp":-1,"local_id":"","local_material_from":"","local_material_id":"3ff8643f-36c0-49b4-84de-05a7f94bd6f5","material_id":"","material_name":"1.05_20250320_2211_Man-Dog Identity Crisis_storyboard_01jpv7gpzvfmdv5p9x5y4vw53q.mp4","material_url":"","matting":{"custom_matting_id":"","enable_matting_stroke":false,"expansion":0,"feather":0,"flag":0,"has_use_quick_brush":false,"has_use_quick_eraser":false,"interactiveTime":[],"path":"","reverse":false,"strokes":[]},"media_path":"","multi_camera_info":null,"object_locked":null,"origin_material_id":"","path":"##_draftpath_placeholder_0E685133-18CE-45ED-8CB8-2904A212EC80_##/sora/1.05_20250320_2211_Man-Dog Identity Crisis_storyboard_01jpv7gpzvfmdv5p9x5y4vw53q.mp4","picture_from":"none","picture_set_category_id":"","picture_set_category_name":"","request_id":"","reverse_intensifies_path":"","reverse_path":"","smart_match_info":null,"smart_motion":null,"source":0,"source_platform":0,"stable":{"matrix_path":"","stable_level":0,"time_range":{"duration":0,"start":0}},"team_id":"","type":"video","video_algorithm":{"ai_background_configs":[],"ai_expression_driven":null,"ai_motion_driven":null,"aigc_generate":null,"algorithms":[],"complement_frame_config":null,"deflicker":null,"gameplay_configs":[],"motion_blur_config":null,"mouth_shape_driver":null,"noise_reduction":null,"path":"","quality_enhance":null,"smart_complement_frame":null,"super_resolution":null,"time_range":{"duration":10000000,"start":0}},"width":480},{"aigc_history_id":"","aigc_item_id":"","aigc_type":"none","audio_fade":null,"beauty_body_preset_id":"","beauty_face_auto_preset":{"name":"","preset_id":"","rate_map":""},"beauty_face_auto_preset_infos":[],"beauty_face_preset_infos":[],"cartoon_path":"","category_id":"","category_name":"local","check_flag":62978047,"crop":{"lower_left_x":0.0,"lower_left_y":1.0,"lower_right_x":1.0,"lower_right_y":1.0,"upper_left_x":0.0,"upper_left_y":0.0,"upper_right_x":1.0,"upper_right_y":0.0},"crop_ratio":"free","crop_scale":1.0,"duration":10000000,"extra_type_option":0,"formula_id":"","freeze":null,"has_audio":false,"has_sound_separated":false,"height":480,"id":"02E3DF96-31C4-4592-9A20-4A2E80AB92C3","intensifies_audio_path":"","intensifies_path":"","is_ai_generate_content":false,"is_copyright":false,"is_text_edit_overdub":false,"is_unified_beauty_mode":false,"live_photo_cover_path":"","live_photo_timestamp":-1,"local_id":"","local_material_from":"","local_material_id":"cdb57a2d-05d8-4d79-94b8-fa14cb4731d6","material_id":"","material_name":"1.07_20250320_2215_Desperate Escape_storyboard_01jpv7pw2vfq4v5x2g60jyzp0m.mp4","material_url":"","matting":{"custom_matting_id":"","enable_matting_stroke":false,"expansion":0,"feather":0,"flag":0,"has_use_quick_brush":false,"has_use_quick_eraser":false,"interactiveTime":[],"path":"","reverse":false,"strokes":[]},"media_path":"","multi_camera_info":null,"object_locked":null,"origin_material_id":"","path":"##_draftpath_placeholder_0E685133-18CE-45ED-8CB8-2904A212EC80_##/sora/1.07_20250320_2215_Desperate Escape_storyboard_01jpv7pw2vfq4v5x2g60jyzp0m.mp4","picture_from":"none","picture_set_category_id":"","picture_set_category_name":"","request_id":"","reverse_intensifies_path":"","reverse_path":"","smart_match_info":null,"smart_motion":null,"source":0,"source_platform":0,"stable":{"matrix_path":"","stable_level":0,"time_range":{"duration":0,"start":0}},"team_id":"","type":"video","video_algorithm":{"ai_background_configs":[],"ai_expression_driven":null,"ai_motion_driven":null,"aigc_generate":null,"algorithms":[],"complement_frame_config":null,"deflicker":null,"gameplay_configs":[],"motion_blur_config":null,"mouth_shape_driver":null,"noise_reduction":null,"path":"","quality_enhance":null,"smart_complement_frame":null,"super_resolution":null,"time_range":{"duration":8366666,"start":0}},"width":480},{"aigc_history_id":"","aigc_item_id":"","aigc_type":"none","audio_fade":null,"beauty_body_preset_id":"","beauty_face_auto_preset":{"name":"","preset_id":"","rate_map":""},"beauty_face_auto_preset_infos":[],"beauty_face_preset_infos":[],"cartoon_path":"","category_id":"","category_name":"local","check_flag":62978047,"crop":{"lower_left_x":0.0,"lower_left_y":1.0,"lower_right_x":1.0,"lower_right_y":1.0,"upper_left_x":0.0,"upper_left_y":0.0,"upper_right_x":1.0,"upper_right_y":0.0},"crop_ratio":"free","crop_scale":1.0,"duration":10000000,"extra_type_option":0,"formula_id":"","freeze":null,"has_audio":false,"has_sound_separated":false,"height":480,"id":"29BFC2EF-DEF6-47e6-8766-C79B783FD72E","intensifies_audio_path":"","intensifies_path":"","is_ai_generate_content":false,"is_copyright":false,"is_text_edit_overdub":false,"is_unified_beauty_mode":false,"live_photo_cover_path":"","live_photo_timestamp":-1,"local_id":"","local_material_from":"","local_material_id":"f165027b-3321-4165-ad70-3e5ec8b03a45","material_id":"","material_name":"1.06_20250320_2215_Desperate Escape_storyboard_01jpv7pw31f778apfephmg29tq.mp4","material_url":"","matting":{"custom_matting_id":"","enable_matting_stroke":false,"expansion":0,"feather":0,"flag":0,"has_use_quick_brush":false,"has_use_quick_eraser":false,"interactiveTime":[],"path":"","reverse":false,"strokes":[]},"media_path":"","multi_camera_info":null,"object_locked":null,"origin_material_id":"","path":"##_draftpath_placeholder_0E685133-18CE-45ED-8CB8-2904A212EC80_##/sora/1.06_20250320_2215_Desperate Escape_storyboard_01jpv7pw31f778apfephmg29tq.mp4","picture_from":"none","picture_set_category_id":"","picture_set_category_name":"","request_id":"","reverse_intensifies_path":"","reverse_path":"","smart_match_info":null,"smart_motion":null,"source":0,"source_platform":0,"stable":{"matrix_path":"","stable_level":0,"time_range":{"duration":0,"start":0}},"team_id":"","type":"video","video_algorithm":{"ai_background_configs":[],"ai_expression_driven":null,"ai_motion_driven":null,"aigc_generate":null,"algorithms":[],"complement_frame_config":null,"deflicker":null,"gameplay_configs":[],"motion_blur_config":null,"mouth_shape_driver":null,"noise_reduction":null,"path":"","quality_enhance":null,"smart_complement_frame":null,"super_resolution":null,"time_range":{"duration":10000000,"start":0}},"width":480},{"aigc_history_id":"","aigc_item_id":"","aigc_type":"none","audio_fade":null,"beauty_body_preset_id":"","beauty_face_auto_preset":{"name":"","preset_id":"","rate_map":""},"beauty_face_auto_preset_infos":[],"beauty_face_preset_infos":[],"cartoon_path":"","category_id":"","category_name":"local","check_flag":62978047,"crop":{"lower_left_x":0.0,"lower_left_y":1.0,"lower_right_x":1.0,"lower_right_y":1.0,"upper_left_x":0.0,"upper_left_y":0.0,"upper_right_x":1.0,"upper_right_y":0.0},"crop_ratio":"free","crop_scale":1.0,"duration":10000000,"extra_type_option":0,"formula_id":"","freeze":null,"has_audio":false,"has_sound_separated":false,"height":480,"id":"A8FC0731-9D57-444c-8D53-2C8ADA6B6149","intensifies_audio_path":"","intensifies_path":"","is_ai_generate_content":false,"is_copyright":false,"is_text_edit_overdub":false,"is_unified_beauty_mode":false,"live_photo_cover_path":"","live_photo_timestamp":-1,"local_id":"","local_material_from":"","local_material_id":"ca63effd-f81b-491f-b6f4-dff76950cf8d","material_id":"","material_name":"1.08_20250320_2223_Reflections of Identity_storyboard_01jpv85xwnfv2sgnhd5a8wg1gp.mp4","material_url":"","matting":{"custom_matting_id":"","enable_matting_stroke":false,"expansion":0,"feather":0,"flag":0,"has_use_quick_brush":false,"has_use_quick_eraser":false,"interactiveTime":[],"path":"","reverse":false,"strokes":[]},"media_path":"","multi_camera_info":null,"object_locked":null,"origin_material_id":"","path":"##_draftpath_placeholder_0E685133-18CE-45ED-8CB8-2904A212EC80_##/sora/1.08_20250320_2223_Reflections of Identity_storyboard_01jpv85xwnfv2sgnhd5a8wg1gp.mp4","picture_from":"none","picture_set_category_id":"","picture_set_category_name":"","request_id":"","reverse_intensifies_path":"","reverse_path":"","smart_match_info":null,"smart_motion":null,"source":0,"source_platform":0,"stable":{"matrix_path":"","stable_level":0,"time_range":{"duration":0,"start":0}},"team_id":"","type":"video","video_algorithm":{"ai_background_configs":[],"ai_expression_driven":null,"ai_motion_driven":null,"aigc_generate":null,"algorithms":[],"complement_frame_config":null,"deflicker":null,"gameplay_configs":[],"motion_blur_config":null,"mouth_shape_driver":null,"noise_reduction":null,"path":"","quality_enhance":null,"smart_complement_frame":null,"super_resolution":null,"time_range":{"duration":10000000,"start":0}},"width":480},{"aigc_history_id":"","aigc_item_id":"","aigc_type":"none","audio_fade":null,"beauty_body_preset_id":"","beauty_face_auto_preset":{"name":"","preset_id":"","rate_map":""},"beauty_face_auto_preset_infos":[],"beauty_face_preset_infos":[],"cartoon_path":"","category_id":"","category_name":"local","check_flag":62978047,"crop":{"lower_left_x":0.0,"lower_left_y":1.0,"lower_right_x":1.0,"lower_right_y":1.0,"upper_left_x":0.0,"upper_left_y":0.0,"upper_right_x":1.0,"upper_right_y":0.0},"crop_ratio":"free","crop_scale":1.0,"duration":10000000,"extra_type_option":0,"formula_id":"","freeze":null,"has_audio":false,"has_sound_separated":false,"height":480,"id":"0EA3BA64-A57C-4170-9385-145844AB5B2F","intensifies_audio_path":"","intensifies_path":"","is_ai_generate_content":false,"is_copyright":false,"is_text_edit_overdub":false,"is_unified_beauty_mode":false,"live_photo_cover_path":"","live_photo_timestamp":-1,"local_id":"","local_material_from":"","local_material_id":"ede044c2-39d1-47dd-a3bf-3f52b585ccf4","material_id":"","material_name":"1.09_20250320_2227_Clone Park Glitch_storyboard_01jpv8djv8ewysshfzwyrzx9nq.mp4","material_url":"","matting":{"custom_matting_id":"","enable_matting_stroke":false,"expansion":0,"feather":0,"flag":0,"has_use_quick_brush":false,"has_use_quick_eraser":false,"interactiveTime":[],"path":"","reverse":false,"strokes":[]},"media_path":"","multi_camera_info":null,"object_locked":null,"origin_material_id":"","path":"##_draftpath_placeholder_0E685133-18CE-45ED-8CB8-2904A212EC80_##/sora/1.09_20250320_2227_Clone Park Glitch_storyboard_01jpv8djv8ewysshfzwyrzx9nq.mp4","picture_from":"none","picture_set_category_id":"","picture_set_category_name":"","request_id":"","reverse_intensifies_path":"","reverse_path":"","smart_match_info":null,"smart_motion":null,"source":0,"source_platform":0,"stable":{"matrix_path":"","stable_level":0,"time_range":{"duration":0,"start":0}},"team_id":"","type":"video","video_algorithm":{"ai_background_configs":[],"ai_expression_driven":null,"ai_motion_driven":null,"aigc_generate":null,"algorithms":[],"complement_frame_config":null,"deflicker":null,"gameplay_configs":[],"motion_blur_config":null,"mouth_shape_driver":null,"noise_reduction":null,"path":"","quality_enhance":null,"smart_complement_frame":null,"super_resolution":null,"time_range":null},"width":480},{"aigc_history_id":"","aigc_item_id":"","aigc_type":"none","audio_fade":null,"beauty_body_preset_id":"","beauty_face_auto_preset":{"name":"","preset_id":"","rate_map":""},"beauty_face_auto_preset_infos":[],"beauty_face_preset_infos":[],"cartoon_path":"","category_id":"","category_name":"local","check_flag":62978047,"crop":{"lower_left_x":0.0,"lower_left_y":1.0,"lower_right_x":1.0,"lower_right_y":1.0,"upper_left_x":0.0,"upper_left_y":0.0,"upper_right_x":1.0,"upper_right_y":0.0},"crop_ratio":"free","crop_scale":1.0,"duration":10000000,"extra_type_option":0,"formula_id":"","freeze":null,"has_audio":false,"has_sound_separated":false,"height":480,"id":"D4DD3C9A-A8D1-4601-91C8-4EAF024F905A","intensifies_audio_path":"","intensifies_path":"","is_ai_generate_content":false,"is_copyright":false,"is_text_edit_overdub":false,"is_unified_beauty_mode":false,"live_photo_cover_path":"","live_photo_timestamp":-1,"local_id":"","local_material_from":"","local_material_id":"e1dbe591-4530-46b3-a001-af06f425c1f6","material_id":"","material_name":"1.10_20250320_2228_Escaping Father's Shadow_storyboard_01jpv8fx6nf63ar1eqnk7457zy.mp4","material_url":"","matting":{"custom_matting_id":"","enable_matting_stroke":false,"expansion":0,"feather":0,"flag":0,"has_use_quick_brush":false,"has_use_quick_eraser":false,"interactiveTime":[],"path":"","reverse":false,"strokes":[]},"media_path":"","multi_camera_info":null,"object_locked":null,"origin_material_id":"","path":"##_draftpath_placeholder_0E685133-18CE-45ED-8CB8-2904A212EC80_##/sora/1.10_20250320_2228_Escaping Father's Shadow_storyboard_01jpv8fx6nf63ar1eqnk7457zy.mp4","picture_from":"none","picture_set_category_id":"","picture_set_category_name":"","request_id":"","reverse_intensifies_path":"","reverse_path":"","smart_match_info":null,"smart_motion":null,"source":0,"source_platform":0,"stable":{"matrix_path":"","stable_level":0,"time_range":{"duration":0,"start":0}},"team_id":"","type":"video","video_algorithm":{"ai_background_configs":[],"ai_expression_driven":null,"ai_motion_driven":null,"aigc_generate":null,"algorithms":[],"complement_frame_config":null,"deflicker":null,"gameplay_configs":[],"motion_blur_config":null,"mouth_shape_driver":null,"noise_reduction":null,"path":"","quality_enhance":null,"smart_complement_frame":null,"super_resolution":null,"time_range":{"duration":4166666,"start":0}},"width":480},{"aigc_history_id":"","aigc_item_id":"","aigc_type":"none","audio_fade":null,"beauty_body_preset_id":"","beauty_face_auto_preset":{"name":"","preset_id":"","rate_map":""},"beauty_face_auto_preset_infos":[],"beauty_face_preset_infos":[],"cartoon_path":"","category_id":"","category_name":"local","check_flag":62978047,"crop":{"lower_left_x":0.0,"lower_left_y":1.0,"lower_right_x":1.0,"lower_right_y":1.0,"upper_left_x":0.0,"upper_left_y":0.0,"upper_right_x":1.0,"upper_right_y":0.0},"crop_ratio":"free","crop_scale":1.0,"duration":10000000,"extra_type_option":0,"formula_id":"","freeze":null,"has_audio":false,"has_sound_separated":false,"height":480,"id":"D1D9BF71-F0C9-4144-9690-995ADA691644","intensifies_audio_path":"","intensifies_path":"","is_ai_generate_content":false,"is_copyright":false,"is_text_edit_overdub":false,"is_unified_beauty_mode":false,"live_photo_cover_path":"","live_photo_timestamp":-1,"local_id":"","local_material_from":"","local_material_id":"e1dbe591-4530-46b3-a001-af06f425c1f6","material_id":"","material_name":"1.10_20250320_2228_Escaping Father's Shadow_storyboard_01jpv8fx6nf63ar1eqnk7457zy.mp4","material_url":"","matting":{"custom_matting_id":"","enable_matting_stroke":false,"expansion":0,"feather":0,"flag":0,"has_use_quick_brush":false,"has_use_quick_eraser":false,"interactiveTime":[],"path":"","reverse":false,"strokes":[]},"media_path":"","multi_camera_info":null,"object_locked":null,"origin_material_id":"","path":"##_draftpath_placeholder_0E685133-18CE-45ED-8CB8-2904A212EC80_##/sora/1.10_20250320_2228_Escaping Father's Shadow_storyboard_01jpv8fx6nf63ar1eqnk7457zy.mp4","picture_from":"none","picture_set_category_id":"","picture_set_category_name":"","request_id":"","reverse_intensifies_path":"","reverse_path":"","smart_match_info":null,"smart_motion":null,"source":0,"source_platform":0,"stable":{"matrix_path":"","stable_level":0,"time_range":{"duration":0,"start":0}},"team_id":"","type":"video","video_algorithm":{"ai_background_configs":[],"ai_expression_driven":null,"ai_motion_driven":null,"aigc_generate":null,"algorithms":[],"complement_frame_config":null,"deflicker":null,"gameplay_configs":[],"motion_blur_config":null,"mouth_shape_driver":null,"noise_reduction":null,"path":"","quality_enhance":null,"smart_complement_frame":null,"super_resolution":null,"time_range":{"duration":5733333,"start":0}},"width":480},{"aigc_history_id":"","aigc_item_id":"","aigc_type":"none","audio_fade":null,"beauty_body_preset_id":"","beauty_face_auto_preset":{"name":"","preset_id":"","rate_map":""},"beauty_face_auto_preset_infos":[],"beauty_face_preset_infos":[],"cartoon_path":"","category_id":"","category_name":"local","check_flag":62978047,"crop":{"lower_left_x":0.0,"lower_left_y":1.0,"lower_right_x":1.0,"lower_right_y":1.0,"upper_left_x":0.0,"upper_left_y":0.0,"upper_right_x":1.0,"upper_right_y":0.0},"crop_ratio":"free","crop_scale":1.0,"duration":10000000,"extra_type_option":0,"formula_id":"","freeze":null,"has_audio":false,"has_sound_separated":false,"height":480,"id":"69A1D1CE-5687-4f0d-ADCE-5B8116BA3823","intensifies_audio_path":"","intensifies_path":"","is_ai_generate_content":false,"is_copyright":false,"is_text_edit_overdub":false,"is_unified_beauty_mode":false,"live_photo_cover_path":"","live_photo_timestamp":-1,"local_id":"","local_material_from":"","local_material_id":"e1dbe591-4530-46b3-a001-af06f425c1f6","material_id":"","material_name":"1.10_20250320_2228_Escaping Father's Shadow_storyboard_01jpv8fx6nf63ar1eqnk7457zy.mp4","material_url":"","matting":{"custom_matting_id":"","enable_matting_stroke":false,"expansion":0,"feather":0,"flag":0,"has_use_quick_brush":false,"has_use_quick_eraser":false,"interactiveTime":[],"path":"","reverse":false,"strokes":[]},"media_path":"","multi_camera_info":null,"object_locked":null,"origin_material_id":"","path":"##_draftpath_placeholder_0E685133-18CE-45ED-8CB8-2904A212EC80_##/sora/1.10_20250320_2228_Escaping Father's Shadow_storyboard_01jpv8fx6nf63ar1eqnk7457zy.mp4","picture_from":"none","picture_set_category_id":"","picture_set_category_name":"","request_id":"","reverse_intensifies_path":"","reverse_path":"","smart_match_info":null,"smart_motion":null,"source":0,"source_platform":0,"stable":{"matrix_path":"","stable_level":0,"time_range":{"duration":0,"start":0}},"team_id":"","type":"video","video_algorithm":{"ai_background_configs":[],"ai_expression_driven":null,"ai_motion_driven":null,"aigc_generate":null,"algorithms":[],"complement_frame_config":null,"deflicker":null,"gameplay_configs":[],"motion_blur_config":null,"mouth_shape_driver":null,"noise_reduction":null,"path":"","quality_enhance":null,"smart_complement_frame":null,"super_resolution":null,"time_range":{"duration":10000000,"start":0}},"width":480},{"aigc_history_id":"","aigc_item_id":"","aigc_type":"none","audio_fade":null,"beauty_body_preset_id":"","beauty_face_auto_preset":{"name":"","preset_id":"","rate_map":""},"beauty_face_auto_preset_infos":[],"beauty_face_preset_infos":[],"cartoon_path":"","category_id":"","category_name":"local","check_flag":62978047,"crop":{"lower_left_x":0.0,"lower_left_y":1.0,"lower_right_x":1.0,"lower_right_y":1.0,"upper_left_x":0.0,"upper_left_y":0.0,"upper_right_x":1.0,"upper_right_y":0.0},"crop_ratio":"free","crop_scale":1.0,"duration":10000000,"extra_type_option":0,"formula_id":"","freeze":null,"has_audio":false,"has_sound_separated":false,"height":480,"id":"51DFCFD9-43B4-479f-B666-0031E79C2C2C","intensifies_audio_path":"","intensifies_path":"","is_ai_generate_content":false,"is_copyright":false,"is_text_edit_overdub":false,"is_unified_beauty_mode":false,"live_photo_cover_path":"","live_photo_timestamp":-1,"local_id":"","local_material_from":"","local_material_id":"ce81a279-e914-43ad-b72a-8e715a12960f","material_id":"","material_name":"1.11_20250321_0839_Dog Reflection Mystery_storyboard_01jpwbf170e1pvmbkhxmxn33cy.mp4","material_url":"","matting":{"custom_matting_id":"","enable_matting_stroke":false,"expansion":0,"feather":0,"flag":0,"has_use_quick_brush":false,"has_use_quick_eraser":false,"interactiveTime":[],"path":"","reverse":false,"strokes":[]},"media_path":"","multi_camera_info":null,"object_locked":null,"origin_material_id":"","path":"##_draftpath_placeholder_0E685133-18CE-45ED-8CB8-2904A212EC80_##/sora/1.11_20250321_0839_Dog Reflection Mystery_storyboard_01jpwbf170e1pvmbkhxmxn33cy.mp4","picture_from":"none","picture_set_category_id":"","picture_set_category_name":"","request_id":"","reverse_intensifies_path":"","reverse_path":"","smart_match_info":null,"smart_motion":null,"source":0,"source_platform":0,"stable":{"matrix_path":"","stable_level":0,"time_range":{"duration":0,"start":0}},"team_id":"","type":"video","video_algorithm":{"ai_background_configs":[],"ai_expression_driven":null,"ai_motion_driven":null,"aigc_generate":null,"algorithms":[],"complement_frame_config":null,"deflicker":null,"gameplay_configs":[],"motion_blur_config":null,"mouth_shape_driver":null,"noise_reduction":null,"path":"","quality_enhance":null,"smart_complement_frame":null,"super_resolution":null,"time_range":{"duration":9466666,"start":0}},"width":480},{"aigc_history_id":"","aigc_item_id":"","aigc_type":"none","audio_fade":null,"beauty_body_preset_id":"","beauty_face_auto_preset":{"name":"","preset_id":"","rate_map":""},"beauty_face_auto_preset_infos":[],"beauty_face_preset_infos":[],"cartoon_path":"","category_id":"","category_name":"local","check_flag":62978047,"crop":{"lower_left_x":0.0,"lower_left_y":1.0,"lower_right_x":1.0,"lower_right_y":1.0,"upper_left_x":0.0,"upper_left_y":0.0,"upper_right_x":1.0,"upper_right_y":0.0},"crop_ratio":"free","crop_scale":1.0,"duration":10000000,"extra_type_option":0,"formula_id":"","freeze":null,"has_audio":false,"has_sound_separated":false,"height":480,"id":"0930945D-1B29-4c89-8869-EBAC17C8EF1B","intensifies_audio_path":"","intensifies_path":"","is_ai_generate_content":false,"is_copyright":false,"is_text_edit_overdub":false,"is_unified_beauty_mode":false,"live_photo_cover_path":"","live_photo_timestamp":-1,"local_id":"","local_material_from":"","local_material_id":"b8a171d3-daba-4b78-8030-93886adb8da7","material_id":"","material_name":"1.12_20250321_1654_Reflections of Unity_storyboard_01jpx7rtvzffa9cybswa0qvrfv.mp4","material_url":"","matting":{"custom_matting_id":"","enable_matting_stroke":false,"expansion":0,"feather":0,"flag":0,"has_use_quick_brush":false,"has_use_quick_eraser":false,"interactiveTime":[],"path":"","reverse":false,"strokes":[]},"media_path":"","multi_camera_info":null,"object_locked":null,"origin_material_id":"","path":"##_draftpath_placeholder_0E685133-18CE-45ED-8CB8-2904A212EC80_##/sora/1.12_20250321_1654_Reflections of Unity_storyboard_01jpx7rtvzffa9cybswa0qvrfv.mp4","picture_from":"none","picture_set_category_id":"","picture_set_category_name":"","request_id":"","reverse_intensifies_path":"","reverse_path":"","smart_match_info":null,"smart_motion":null,"source":0,"source_platform":0,"stable":{"matrix_path":"","stable_level":0,"time_range":{"duration":0,"start":0}},"team_id":"","type":"video","video_algorithm":{"ai_background_configs":[],"ai_expression_driven":null,"ai_motion_driven":null,"aigc_generate":null,"algorithms":[],"complement_frame_config":null,"deflicker":null,"gameplay_configs":[],"motion_blur_config":null,"mouth_shape_driver":null,"noise_reduction":null,"path":"","quality_enhance":null,"smart_complement_frame":null,"super_resolution":null,"time_range":{"duration":10000000,"start":0}},"width":480},{"aigc_history_id":"","aigc_item_id":"","aigc_type":"none","audio_fade":null,"beauty_body_preset_id":"","beauty_face_auto_preset":{"name":"","preset_id":"","rate_map":""},"beauty_face_auto_preset_infos":[],"beauty_face_preset_infos":[],"cartoon_path":"","category_id":"","category_name":"local","check_flag":62978047,"crop":{"lower_left_x":0.0,"lower_left_y":1.0,"lower_right_x":1.0,"lower_right_y":1.0,"upper_left_x":0.0,"upper_left_y":0.0,"upper_right_x":1.0,"upper_right_y":0.0},"crop_ratio":"free","crop_scale":1.0,"duration":10000000,"extra_type_option":0,"formula_id":"","freeze":null,"has_audio":false,"has_sound_separated":false,"height":480,"id":"46F6B831-E840-4874-AA3A-8CD7703BCD91","intensifies_audio_path":"","intensifies_path":"","is_ai_generate_content":false,"is_copyright":false,"is_text_edit_overdub":false,"is_unified_beauty_mode":false,"live_photo_cover_path":"","live_photo_timestamp":-1,"local_id":"","local_material_from":"","local_material_id":"9a934199-17b1-44d2-9ca7-1928c8d4d436","material_id":"","material_name":"1.12_20250321_1701_Memories Unleashed_storyboard_01jpx84j05e1ga2crt0sx3vfgk.mp4","material_url":"","matting":{"custom_matting_id":"","enable_matting_stroke":false,"expansion":0,"feather":0,"flag":0,"has_use_quick_brush":false,"has_use_quick_eraser":false,"interactiveTime":[],"path":"","reverse":false,"strokes":[]},"media_path":"","multi_camera_info":null,"object_locked":null,"origin_material_id":"","path":"C:/Users/Computer/Downloads/1.12_20250321_1701_Memories Unleashed_storyboard_01jpx84j05e1ga2crt0sx3vfgk.mp4","picture_from":"none","picture_set_category_id":"","picture_set_category_name":"","request_id":"","reverse_intensifies_path":"","reverse_path":"","smart_match_info":null,"smart_motion":null,"source":0,"source_platform":0,"stable":{"matrix_path":"","stable_level":0,"time_range":{"duration":0,"start":0}},"team_id":"","type":"video","video_algorithm":{"ai_background_configs":[],"ai_expression_driven":null,"ai_motion_driven":null,"aigc_generate":null,"algorithms":[],"complement_frame_config":null,"deflicker":null,"gameplay_configs":[],"motion_blur_config":null,"mouth_shape_driver":null,"noise_reduction":null,"path":"","quality_enhance":null,"smart_complement_frame":null,"super_resolution":null,"time_range":{"duration":5333333,"start":0}},"width":480},{"aigc_history_id":"","aigc_item_id":"","aigc_type":"none","audio_fade":null,"beauty_body_preset_id":"","beauty_face_auto_preset":{"name":"","preset_id":"","rate_map":""},"beauty_face_auto_preset_infos":[],"beauty_face_preset_infos":[],"cartoon_path":"","category_id":"","category_name":"local","check_flag":62978047,"crop":{"lower_left_x":0.0,"lower_left_y":1.0,"lower_right_x":1.0,"lower_right_y":1.0,"upper_left_x":0.0,"upper_left_y":0.0,"upper_right_x":1.0,"upper_right_y":0.0},"crop_ratio":"free","crop_scale":1.0,"duration":10000000,"extra_type_option":0,"formula_id":"","freeze":null,"has_audio":false,"has_sound_separated":false,"height":480,"id":"76851E41-2C9D-495f-818C-B84FD668A00D","intensifies_audio_path":"","intensifies_path":"","is_ai_generate_content":false,"is_copyright":false,"is_text_edit_overdub":false,"is_unified_beauty_mode":false,"live_photo_cover_path":"","live_photo_timestamp":-1,"local_id":"","local_material_from":"","local_material_id":"9a934199-17b1-44d2-9ca7-1928c8d4d436","material_id":"","material_name":"1.12_20250321_1701_Memories Unleashed_storyboard_01jpx84j05e1ga2crt0sx3vfgk.mp4","material_url":"","matting":{"custom_matting_id":"","enable_matting_stroke":false,"expansion":0,"feather":0,"flag":0,"has_use_quick_brush":false,"has_use_quick_eraser":false,"interactiveTime":[],"path":"","reverse":false,"strokes":[]},"media_path":"","multi_camera_info":null,"object_locked":null,"origin_material_id":"","path":"C:/Users/Computer/Downloads/1.12_20250321_1701_Memories Unleashed_storyboard_01jpx84j05e1ga2crt0sx3vfgk.mp4","picture_from":"none","picture_set_category_id":"","picture_set_category_name":"","request_id":"","reverse_intensifies_path":"","reverse_path":"","smart_match_info":null,"smart_motion":null,"source":0,"source_platform":0,"stable":{"matrix_path":"","stable_level":0,"time_range":{"duration":0,"start":0}},"team_id":"","type":"video","video_algorithm":{"ai_background_configs":[],"ai_expression_driven":null,"ai_motion_driven":null,"aigc_generate":null,"algorithms":[],"complement_frame_config":null,"deflicker":null,"gameplay_configs":[],"motion_blur_config":null,"mouth_shape_driver":null,"noise_reduction":null,"path":"","quality_enhance":null,"smart_complement_frame":null,"super_resolution":null,"time_range":{"duration":10000000,"start":0}},"width":480},{"aigc_history_id":"","aigc_item_id":"","aigc_type":"none","audio_fade":null,"beauty_body_preset_id":"","beauty_face_auto_preset":{"name":"","preset_id":"","rate_map":""},"beauty_face_auto_preset_infos":[],"beauty_face_preset_infos":[],"cartoon_path":"","category_id":"","category_name":"local","check_flag":62978047,"crop":{"lower_left_x":0.0,"lower_left_y":1.0,"lower_right_x":1.0,"lower_right_y":1.0,"upper_left_x":0.0,"upper_left_y":0.0,"upper_right_x":1.0,"upper_right_y":0.0},"crop_ratio":"free","crop_scale":1.0,"duration":10000000,"extra_type_option":0,"formula_id":"","freeze":null,"has_audio":false,"has_sound_separated":false,"height":480,"id":"F427F4FD-BED5-4f5d-B821-F2822BCCF8CB","intensifies_audio_path":"","intensifies_path":"","is_ai_generate_content":false,"is_copyright":false,"is_text_edit_overdub":false,"is_unified_beauty_mode":false,"live_photo_cover_path":"","live_photo_timestamp":-1,"local_id":"","local_material_from":"","local_material_id":"679664af-2ed2-4b54-b27b-4c1951f2e7de","material_id":"","material_name":"1.13_20250321_1712_Mystery Image Scene_storyboard_01jpx8t0saf49947dshdha8fdp.mp4","material_url":"","matting":{"custom_matting_id":"","enable_matting_stroke":false,"expansion":0,"feather":0,"flag":0,"has_use_quick_brush":false,"has_use_quick_eraser":false,"interactiveTime":[],"path":"","reverse":false,"strokes":[]},"media_path":"","multi_camera_info":null,"object_locked":null,"origin_material_id":"","path":"##_draftpath_placeholder_0E685133-18CE-45ED-8CB8-2904A212EC80_##/sora/1.13_20250321_1712_Mystery Image Scene_storyboard_01jpx8t0saf49947dshdha8fdp.mp4","picture_from":"none","picture_set_category_id":"","picture_set_category_name":"","request_id":"","reverse_intensifies_path":"","reverse_path":"","smart_match_info":null,"smart_motion":null,"source":0,"source_platform":0,"stable":{"matrix_path":"","stable_level":0,"time_range":{"duration":0,"start":0}},"team_id":"","type":"video","video_algorithm":{"ai_background_configs":[],"ai_expression_driven":null,"ai_motion_driven":null,"aigc_generate":null,"algorithms":[],"complement_frame_config":null,"deflicker":null,"gameplay_configs":[],"motion_blur_config":null,"mouth_shape_driver":null,"noise_reduction":null,"path":"","quality_enhance":null,"smart_complement_frame":null,"super_resolution":null,"time_range":{"duration":10000000,"start":0}},"width":480},{"aigc_history_id":"","aigc_item_id":"","aigc_type":"none","audio_fade":null,"beauty_body_preset_id":"","beauty_face_auto_preset":{"name":"","preset_id":"","rate_map":""},"beauty_face_auto_preset_infos":[],"beauty_face_preset_infos":[],"cartoon_path":"","category_id":"","category_name":"local","check_flag":62978047,"crop":{"lower_left_x":0.0,"lower_left_y":1.0,"lower_right_x":1.0,"lower_right_y":1.0,"upper_left_x":0.0,"upper_left_y":0.0,"upper_right_x":1.0,"upper_right_y":0.0},"crop_ratio":"free","crop_scale":1.0,"duration":10000000,"extra_type_option":0,"formula_id":"","freeze":null,"has_audio":false,"has_sound_separated":false,"height":480,"id":"394998C2-51B9-434f-BF6C-5F7673FE136E","intensifies_audio_path":"","intensifies_path":"","is_ai_generate_content":false,"is_copyright":false,"is_text_edit_overdub":false,"is_unified_beauty_mode":false,"live_photo_cover_path":"","live_photo_timestamp":-1,"local_id":"","local_material_from":"","local_material_id":"679664af-2ed2-4b54-b27b-4c1951f2e7de","material_id":"","material_name":"1.13_20250321_1712_Mystery Image Scene_storyboard_01jpx8t0saf49947dshdha8fdp.mp4","material_url":"","matting":{"custom_matting_id":"","enable_matting_stroke":false,"expansion":0,"feather":0,"flag":0,"has_use_quick_brush":false,"has_use_quick_eraser":false,"interactiveTime":[],"path":"","reverse":false,"strokes":[]},"media_path":"","multi_camera_info":null,"object_locked":null,"origin_material_id":"","path":"##_draftpath_placeholder_0E685133-18CE-45ED-8CB8-2904A212EC80_##/sora/1.13_20250321_1712_Mystery Image Scene_storyboard_01jpx8t0saf49947dshdha8fdp.mp4","picture_from":"none","picture_set_category_id":"","picture_set_category_name":"","request_id":"","reverse_intensifies_path":"","reverse_path":"","smart_match_info":null,"smart_motion":null,"source":0,"source_platform":0,"stable":{"matrix_path":"","stable_level":0,"time_range":{"duration":0,"start":0}},"team_id":"","type":"video","video_algorithm":{"ai_background_configs":[],"ai_expression_driven":null,"ai_motion_driven":null,"aigc_generate":null,"algorithms":[],"complement_frame_config":null,"deflicker":null,"gameplay_configs":[],"motion_blur_config":null,"mouth_shape_driver":null,"noise_reduction":null,"path":"","quality_enhance":null,"smart_complement_frame":null,"super_resolution":null,"time_range":{"duration":7466667,"start":2533333}},"width":480},{"aigc_history_id":"","aigc_item_id":"","aigc_type":"none","audio_fade":null,"beauty_body_preset_id":"","beauty_face_auto_preset":{"name":"","preset_id":"","rate_map":""},"beauty_face_auto_preset_infos":[],"beauty_face_preset_infos":[],"cartoon_path":"","category_id":"","category_name":"local","check_flag":62978047,"crop":{"lower_left_x":0.0,"lower_left_y":1.0,"lower_right_x":1.0,"lower_right_y":1.0,"upper_left_x":0.0,"upper_left_y":0.0,"upper_right_x":1.0,"upper_right_y":0.0},"crop_ratio":"free","crop_scale":1.0,"duration":10000000,"extra_type_option":0,"formula_id":"","freeze":null,"has_audio":false,"has_sound_separated":false,"height":480,"id":"816316C1-B52C-4dcc-86B5-3F8E4297836C","intensifies_audio_path":"","intensifies_path":"","is_ai_generate_content":false,"is_copyright":false,"is_text_edit_overdub":false,"is_unified_beauty_mode":false,"live_photo_cover_path":"","live_photo_timestamp":-1,"local_id":"","local_material_from":"","local_material_id":"c998ad65-3ec5-44ed-abad-a1f78edb2119","material_id":"","material_name":"1.14_20250321_1716_Image-Only Prompt_storyboard_01jpx91dwmfs1vgm833680tk4g.mp4","material_url":"","matting":{"custom_matting_id":"","enable_matting_stroke":false,"expansion":0,"feather":0,"flag":0,"has_use_quick_brush":false,"has_use_quick_eraser":false,"interactiveTime":[],"path":"","reverse":false,"strokes":[]},"media_path":"","multi_camera_info":null,"object_locked":null,"origin_material_id":"","path":"##_draftpath_placeholder_0E685133-18CE-45ED-8CB8-2904A212EC80_##/sora/1.14_20250321_1716_Image-Only Prompt_storyboard_01jpx91dwmfs1vgm833680tk4g.mp4","picture_from":"none","picture_set_category_id":"","picture_set_category_name":"","request_id":"","reverse_intensifies_path":"","reverse_path":"","smart_match_info":null,"smart_motion":null,"source":0,"source_platform":0,"stable":{"matrix_path":"","stable_level":0,"time_range":{"duration":0,"start":0}},"team_id":"","type":"video","video_algorithm":{"ai_background_configs":[],"ai_expression_driven":null,"ai_motion_driven":null,"aigc_generate":null,"algorithms":[],"complement_frame_config":null,"deflicker":null,"gameplay_configs":[],"motion_blur_config":null,"mouth_shape_driver":null,"noise_reduction":null,"path":"","quality_enhance":null,"smart_complement_frame":null,"super_resolution":null,"time_range":{"duration":7633333,"start":0}},"width":480}],"vocal_beautifys":[],"vocal_separations":[{"choice":0,"id":"92291A3F-8FFB-4f06-AA17-C4E9740C3D1E","production_path":"","removed_sounds":[],"time_range":null,"type":"vocal_separation"},{"choice":0,"id":"4DD7A547-594E-4b15-B249-62535DF70EFB","production_path":"","removed_sounds":[],"time_range":null,"type":"vocal_separation"},{"choice":0,"id":"2FDEE5CB-2317-4cc6-A5B0-F7CFF4E7F50B","production_path":"","removed_sounds":[],"time_range":null,"type":"vocal_separation"},{"choice":0,"id":"BB5E6FE6-0EF4-402b-882E-B982A43CC645","production_path":"","removed_sounds":[],"time_range":null,"type":"vocal_separation"},{"choice":0,"id":"B4AD9B1C-0198-4405-9175-EE2855F91208","production_path":"","removed_sounds":[],"time_range":null,"type":"vocal_separation"},{"choice":0,"id":"1DEFF380-7009-40cf-BFFD-BBF5872EFCB3","production_path":"","removed_sounds":[],"time_range":null,"type":"vocal_separation"},{"choice":0,"id":"0D48533B-FCF3-40cb-A50A-0EAB02134CB8","production_path":"","removed_sounds":[],"time_range":null,"type":"vocal_separation"},{"choice":0,"id":"1E569E8A-5912-428b-8B42-D4F2999ECEB0","production_path":"","removed_sounds":[],"time_range":null,"type":"vocal_separation"},{"choice":0,"id":"7660F630-0E4F-40ea-8FDB-D379794D9872","production_path":"","removed_sounds":[],"time_range":null,"type":"vocal_separation"},{"choice":0,"id":"739D28E0-8A6C-451d-A8D1-FE3CBE85C70D","production_path":"","removed_sounds":[],"time_range":null,"type":"vocal_separation"},{"choice":0,"id":"4BEFB113-CB7D-4d3a-A863-F33FF3F5741F","production_path":"","removed_sounds":[],"time_range":null,"type":"vocal_separation"},{"choice":0,"id":"3634B272-6F8B-4f60-86CB-74BB515E1B01","production_path":"","removed_sounds":[],"time_range":null,"type":"vocal_separation"},{"choice":0,"id":"9B1D825B-41DA-4ab0-8170-98DCF12BAD49","production_path":"","removed_sounds":[],"time_range":null,"type":"vocal_separation"},{"choice":0,"id":"C64EC865-CF67-4e40-8F62-0D5D93D78200","production_path":"","removed_sounds":[],"time_range":null,"type":"vocal_separation"},{"choice":0,"id":"276ADDE2-1F1A-41ce-8641-34EB639A8985","production_path":"","removed_sounds":[],"time_range":null,"type":"vocal_separation"},{"choice":0,"id":"81AEEF4B-2A20-4432-BD18-0299CDDAA5C5","production_path":"","removed_sounds":[],"time_range":null,"type":"vocal_separation"},{"choice":0,"id":"327F6C5A-BB0B-434f-A9C9-61DFBA08FA47","production_path":"","removed_sounds":[],"time_range":null,"type":"vocal_separation"},{"choice":0,"id":"7C168503-8154-4d10-A7D9-844FF153493D","production_path":"","removed_sounds":[],"time_range":null,"type":"vocal_separation"},{"choice":0,"id":"E4FA8E2D-D531-490e-8E22-E222BC2A1854","production_path":"","removed_sounds":[],"time_range":null,"type":"vocal_separation"},{"choice":0,"id":"C89B4F55-66E9-4ada-A119-7630AF6D55A5","production_path":"","removed_sounds":[],"time_range":null,"type":"vocal_separation"}]},"mutable_config":null,"name":"","new_version":"132.0.0","path":"","platform":{"app_id":359289,"app_source":"cc","app_version":"5.9.0","device_id":"c87871b01ed15b67aca19f3efea983b4","hard_disk_id":"98697f5b2672733057711c84e4b517c3","mac_address":"09861091e4eef2367b35d8703476edfc,3ab780bc59d11a00e1ba676c31de1115","os":"windows","os_version":"10.0.26100"},"relationships":[],"render_index_track_mode_on":true,"retouch_cover":null,"source":"default","static_cover_image_path":"","time_marks":null,"tracks":[{"attribute":0,"flag":0,"id":"652FE3CC-AC43-49a7-A622-D17E18B39692","is_default_name":true,"name":"","segments":[{"caption_info":null,"cartoon":false,"clip":{"alpha":1.0,"flip":{"horizontal":false,"vertical":false},"rotation":0.0,"scale":{"x":1.0,"y":1.0},"transform":{"x":0.0,"y":0.0}},"color_correct_alg_result":"","common_keyframes":[],"desc":"","digital_human_template_group_id":"","enable_adjust":true,"enable_adjust_mask":false,"enable_color_correct_adjust":false,"enable_color_curves":true,"enable_color_match_adjust":false,"enable_color_wheels":true,"enable_hsl":false,"enable_lut":true,"enable_smart_color_adjust":false,"enable_video_mask":true,"extra_material_refs":["CC5A1FFC-0979-4c50-85FF-AFD02DC48B22","FF4EC769-F387-45d0-8A5A-0E0750FF1526","2DC93F7E-188E-49e2-A65A-8E2548727DF0","E35A253F-9A14-4566-AA76-5BA5EF665662","92291A3F-8FFB-4f06-AA17-C4E9740C3D1E"],"group_id":"","hdr_settings":{"intensity":1.0,"mode":1,"nits":1000},"id":"AB1819E8-433D-48b2-904B-197FB67A4808","intensifies_audio":false,"is_loop":false,"is_placeholder":false,"is_tone_modify":false,"keyframe_refs":[],"last_nonzero_volume":1.0,"lyric_keyframes":null,"material_id":"7B5CED52-8692-4240-AFE5-31C047DEFB9B","raw_segment_id":"","render_index":0,"render_timerange":{"duration":0,"start":0},"responsive_layout":{"enable":false,"horizontal_pos_layout":0,"size_layout":0,"target_follow":"","vertical_pos_layout":0},"reverse":false,"source_timerange":{"duration":4000000,"start":6000000},"speed":1.0,"state":0,"target_timerange":{"duration":4000000,"start":0},"template_id":"","template_scene":"default","track_attribute":0,"track_render_index":0,"uniform_scale":{"on":true,"value":1.0},"visible":true,"volume":1.0},{"caption_info":null,"cartoon":false,"clip":{"alpha":1.0,"flip":{"horizontal":false,"vertical":false},"rotation":0.0,"scale":{"x":1.0,"y":1.0},"transform":{"x":0.0,"y":0.0}},"color_correct_alg_result":"","common_keyframes":[],"desc":"","digital_human_template_group_id":"","enable_adjust":true,"enable_adjust_mask":false,"enable_color_correct_adjust":false,"enable_color_curves":true,"enable_color_match_adjust":false,"enable_color_wheels":true,"enable_hsl":false,"enable_lut":true,"enable_smart_color_adjust":false,"enable_video_mask":true,"extra_material_refs":["9CC7B0A8-505C-4b6b-8A11-B864095250CB","52E08B30-1CDD-4887-9F59-DCDDF10DCAAE","268366A9-6A40-40d7-BCDF-83336F2E6F6C","A9EA3F02-A270-4124-B105-4092398C4DA9","4DD7A547-594E-4b15-B249-62535DF70EFB"],"group_id":"","hdr_settings":{"intensity":1.0,"mode":1,"nits":1000},"id":"C62003EA-B856-4c06-A3C9-DCB334AEE9BE","intensifies_audio":false,"is_loop":false,"is_placeholder":false,"is_tone_modify":false,"keyframe_refs":[],"last_nonzero_volume":1.0,"lyric_keyframes":null,"material_id":"5BD7D6A4-AB33-4ddb-B4C5-54798A449229","raw_segment_id":"","render_index":0,"render_timerange":{"duration":0,"start":0},"responsive_layout":{"enable":false,"horizontal_pos_layout":0,"size_layout":0,"target_follow":"","vertical_pos_layout":0},"reverse":false,"source_timerange":{"duration":9500000,"start":500000},"speed":1.0,"state":0,"target_timerange":{"duration":9500000,"start":4000000},"template_id":"","template_scene":"default","track_attribute":0,"track_render_index":0,"uniform_scale":{"on":true,"value":1.0},"visible":true,"volume":1.0},{"caption_info":null,"cartoon":false,"clip":{"alpha":1.0,"flip":{"horizontal":false,"vertical":false},"rotation":0.0,"scale":{"x":1.0,"y":1.0},"transform":{"x":0.0,"y":0.0}},"color_correct_alg_result":"","common_keyframes":[],"desc":"","digital_human_template_group_id":"","enable_adjust":true,"enable_adjust_mask":false,"enable_color_correct_adjust":false,"enable_color_curves":true,"enable_color_match_adjust":false,"enable_color_wheels":true,"enable_hsl":false,"enable_lut":true,"enable_smart_color_adjust":false,"enable_video_mask":true,"extra_material_refs":["6CA820BA-0F3E-4d12-82D7-21E6D06FDFDD","714D665B-6A6F-4011-967D-2F8BEC3CDE52","8272CA5E-0236-4396-B0E1-61D572881F99","CFACA607-EBF7-4257-9E06-862EA58C9EAE","2FDEE5CB-2317-4cc6-A5B0-F7CFF4E7F50B"],"group_id":"","hdr_settings":{"intensity":1.0,"mode":1,"nits":1000},"id":"0666680D-B1C5-4809-AD2F-F26C47E7CE0F","intensifies_audio":false,"is_loop":false,"is_placeholder":false,"is_tone_modify":false,"keyframe_refs":[],"last_nonzero_volume":1.0,"lyric_keyframes":null,"material_id":"5E36081C-F7E0-46ae-B149-9E536519238B","raw_segment_id":"","render_index":0,"render_timerange":{"duration":0,"start":0},"responsive_layout":{"enable":false,"horizontal_pos_layout":0,"size_layout":0,"target_follow":"","vertical_pos_layout":0},"reverse":false,"source_timerange":{"duration":9500000,"start":500000},"speed":1.0,"state":0,"target_timerange":{"duration":9500000,"start":13500000},"template_id":"","template_scene":"default","track_attribute":0,"track_render_index":0,"uniform_scale":{"on":true,"value":1.0},"visible":true,"volume":1.0},{"caption_info":null,"cartoon":false,"clip":{"alpha":1.0,"flip":{"horizontal":false,"vertical":false},"rotation":0.0,"scale":{"x":1.0,"y":1.0},"transform":{"x":0.0,"y":0.0}},"color_correct_alg_result":"","common_keyframes":[],"desc":"","digital_human_template_group_id":"","enable_adjust":true,"enable_adjust_mask":false,"enable_color_correct_adjust":false,"enable_color_curves":true,"enable_color_match_adjust":false,"enable_color_wheels":true,"enable_hsl":false,"enable_lut":true,"enable_smart_color_adjust":false,"enable_video_mask":true,"extra_material_refs":["F893AB36-8C96-4cb7-A725-9429926E58FE","F290CF56-1EB6-416b-9AFA-E3E2EA4DEDA8","A8D99ECE-B931-4133-BBC9-0E9C020B057F","F69FEBB0-7893-4988-9F30-3846302C223E","BB5E6FE6-0EF4-402b-882E-B982A43CC645"],"group_id":"","hdr_settings":{"intensity":1.0,"mode":1,"nits":1000},"id":"58488CF7-27F5-49ad-AA27-195B1365C72B","intensifies_audio":false,"is_loop":false,"is_placeholder":false,"is_tone_modify":false,"keyframe_refs":[],"last_nonzero_volume":1.0,"lyric_keyframes":null,"material_id":"E4731F87-E604-4e60-9974-429925F0BA65","raw_segment_id":"","render_index":0,"render_timerange":{"duration":0,"start":0},"responsive_layout":{"enable":false,"horizontal_pos_layout":0,"size_layout":0,"target_follow":"","vertical_pos_layout":0},"reverse":false,"source_timerange":{"duration":9500000,"start":500000},"speed":1.0,"state":0,"target_timerange":{"duration":9500000,"start":23000000},"template_id":"","template_scene":"default","track_attribute":0,"track_render_index":0,"uniform_scale":{"on":true,"value":1.0},"visible":true,"volume":1.0},{"caption_info":null,"cartoon":false,"clip":{"alpha":1.0,"flip":{"horizontal":false,"vertical":false},"rotation":0.0,"scale":{"x":1.0,"y":1.0},"transform":{"x":0.0,"y":0.0}},"color_correct_alg_result":"","common_keyframes":[],"desc":"","digital_human_template_group_id":"","enable_adjust":true,"enable_adjust_mask":false,"enable_color_correct_adjust":false,"enable_color_curves":true,"enable_color_match_adjust":false,"enable_color_wheels":true,"enable_hsl":false,"enable_lut":true,"enable_smart_color_adjust":false,"enable_video_mask":true,"extra_material_refs":["C8F9A34A-12A9-475a-8BA4-A6AD1CBE336A","8FE6D3CD-8B07-4f54-99A6-9392436E187B","89511355-8D9F-49e5-83A0-DE44C2B496DE","2F629E01-B90A-4010-A654-E4C89E0277E1","B4AD9B1C-0198-4405-9175-EE2855F91208"],"group_id":"","hdr_settings":{"intensity":1.0,"mode":1,"nits":1000},"id":"A9D05AE7-D874-4234-81DF-37FD6AB712A2","intensifies_audio":false,"is_loop":false,"is_placeholder":false,"is_tone_modify":false,"keyframe_refs":[],"last_nonzero_volume":1.0,"lyric_keyframes":null,"material_id":"2BF39E74-F71F-44a2-9758-DAE199878939","raw_segment_id":"","render_index":0,"render_timerange":{"duration":0,"start":0},"responsive_layout":{"enable":false,"horizontal_pos_layout":0,"size_layout":0,"target_follow":"","vertical_pos_layout":0},"reverse":false,"source_timerange":{"duration":9433334,"start":566666},"speed":1.0,"state":0,"target_timerange":{"duration":9433333,"start":32500000},"template_id":"","template_scene":"default","track_attribute":0,"track_render_index":0,"uniform_scale":{"on":true,"value":1.0},"visible":true,"volume":1.0},{"caption_info":null,"cartoon":false,"clip":{"alpha":1.0,"flip":{"horizontal":false,"vertical":false},"rotation":0.0,"scale":{"x":1.0,"y":1.0},"transform":{"x":0.0,"y":0.0}},"color_correct_alg_result":"","common_keyframes":[],"desc":"","digital_human_template_group_id":"","enable_adjust":true,"enable_adjust_mask":false,"enable_color_correct_adjust":false,"enable_color_curves":true,"enable_color_match_adjust":false,"enable_color_wheels":true,"enable_hsl":false,"enable_lut":true,"enable_smart_color_adjust":false,"enable_video_mask":true,"extra_material_refs":["56C754E9-3548-4a5e-9CC7-CF6D6841FA0C","6915F3C8-3B9B-41f9-925B-67D5335B8AD7","3A43D46D-82D7-4184-B352-BF354417A255","B36233B4-8E4A-4e15-9969-B9E3903102F7","1F83B275-17D9-40a6-8635-16C51D040671","520DF8B3-8CAD-432b-A0DA-BFBCAB371D62","1DEFF380-7009-40cf-BFFD-BBF5872EFCB3"],"group_id":"","hdr_settings":{"intensity":1.0,"mode":1,"nits":1000},"id":"A927A97F-8FC6-4d9d-84FA-04CA0A443067","intensifies_audio":false,"is_loop":false,"is_placeholder":false,"is_tone_modify":false,"keyframe_refs":[],"last_nonzero_volume":1.0,"lyric_keyframes":null,"material_id":"02E3DF96-31C4-4592-9A20-4A2E80AB92C3","raw_segment_id":"","render_index":0,"render_timerange":{"duration":0,"start":0},"responsive_layout":{"enable":false,"horizontal_pos_layout":0,"size_layout":0,"target_follow":"","vertical_pos_layout":0},"reverse":false,"source_timerange":{"duration":4866666,"start":500000},"speed":1.0,"state":0,"target_timerange":{"duration":4866667,"start":41933333},"template_id":"","template_scene":"default","track_attribute":0,"track_render_index":0,"uniform_scale":{"on":true,"value":1.0},"visible":true,"volume":1.0},{"caption_info":null,"cartoon":false,"clip":{"alpha":1.0,"flip":{"horizontal":false,"vertical":false},"rotation":0.0,"scale":{"x":1.0,"y":1.0},"transform":{"x":0.0,"y":0.0}},"color_correct_alg_result":"","common_keyframes":[],"desc":"","digital_human_template_group_id":"","enable_adjust":true,"enable_adjust_mask":false,"enable_color_correct_adjust":false,"enable_color_curves":true,"enable_color_match_adjust":false,"enable_color_wheels":true,"enable_hsl":false,"enable_lut":true,"enable_smart_color_adjust":false,"enable_video_mask":true,"extra_material_refs":["644053C0-3526-4dc7-9118-C42906A227C1","3FA82E9B-B289-4872-9554-7F64BE3D955E","157F4473-3202-4234-AB27-9FD18EE00982","C198A1EF-6E3D-43b4-96BB-31FCE08AF344","0BA4039E-BA2B-496f-B787-08759BC05FA4","0D48533B-FCF3-40cb-A50A-0EAB02134CB8"],"group_id":"","hdr_settings":{"intensity":1.0,"mode":1,"nits":1000},"id":"1A536739-411B-4690-8000-A6A7A0D62234","intensifies_audio":false,"is_loop":false,"is_placeholder":false,"is_tone_modify":false,"keyframe_refs":[],"last_nonzero_volume":1.0,"lyric_keyframes":null,"material_id":"29BFC2EF-DEF6-47e6-8766-C79B783FD72E","raw_segment_id":"","render_index":0,"render_timerange":{"duration":0,"start":0},"responsive_layout":{"enable":false,"horizontal_pos_layout":0,"size_layout":0,"target_follow":"","vertical_pos_layout":0},"reverse":false,"source_timerange":{"duration":8466667,"start":1533333},"speed":1.0,"state":0,"target_timerange":{"duration":8466666,"start":46800000},"template_id":"","template_scene":"default","track_attribute":0,"track_render_index":0,"uniform_scale":{"on":true,"value":1.0},"visible":true,"volume":1.0},{"caption_info":null,"cartoon":false,"clip":{"alpha":1.0,"flip":{"horizontal":false,"vertical":false},"rotation":0.0,"scale":{"x":1.0,"y":1.0},"transform":{"x":0.0,"y":0.0}},"color_correct_alg_result":"","common_keyframes":[],"desc":"","digital_human_template_group_id":"","enable_adjust":true,"enable_adjust_mask":false,"enable_color_correct_adjust":false,"enable_color_curves":true,"enable_color_match_adjust":false,"enable_color_wheels":true,"enable_hsl":false,"enable_lut":true,"enable_smart_color_adjust":false,"enable_video_mask":true,"extra_material_refs":["04A6AF74-4691-4f63-8F28-0B039CE146B9","1FA6A5D8-1316-499e-9FFC-71291DF59D8C","C23D1102-5F39-4a65-BFA8-D09DA1E0E7A7","0ADA2770-4416-4cde-89EC-1DD171A1CD99","D19FBFB5-E6F0-40b6-80C4-797FBB1BD059","AD30D52D-A24B-435c-9FB8-8350B4AA3DEF","1E569E8A-5912-428b-8B42-D4F2999ECEB0"],"group_id":"","hdr_settings":{"intensity":1.0,"mode":1,"nits":1000},"id":"0C7E6454-3B5D-4b3d-AC07-34AD4483F342","intensifies_audio":false,"is_loop":false,"is_placeholder":false,"is_tone_modify":false,"keyframe_refs":[],"last_nonzero_volume":1.0,"lyric_keyframes":null,"material_id":"A8FC0731-9D57-444c-8D53-2C8ADA6B6149","raw_segment_id":"","render_index":0,"render_timerange":{"duration":0,"start":0},"responsive_layout":{"enable":false,"horizontal_pos_layout":0,"size_layout":0,"target_follow":"","vertical_pos_layout":0},"reverse":false,"source_timerange":{"duration":9466667,"start":533333},"speed":1.0,"state":0,"target_timerange":{"duration":9466667,"start":55266666},"template_id":"","template_scene":"default","track_attribute":0,"track_render_index":0,"uniform_scale":{"on":true,"value":1.0},"visible":true,"volume":1.0},{"caption_info":null,"cartoon":false,"clip":{"alpha":1.0,"flip":{"horizontal":false,"vertical":false},"rotation":0.0,"scale":{"x":1.0,"y":1.0},"transform":{"x":0.0,"y":0.0}},"color_correct_alg_result":"","common_keyframes":[],"desc":"","digital_human_template_group_id":"","enable_adjust":true,"enable_adjust_mask":false,"enable_color_correct_adjust":false,"enable_color_curves":true,"enable_color_match_adjust":false,"enable_color_wheels":true,"enable_hsl":false,"enable_lut":true,"enable_smart_color_adjust":false,"enable_video_mask":true,"extra_material_refs":["AAE7636F-D466-4d7a-8017-D3AC7D8DEF49","49603BF7-2912-486b-AD35-C74D8188EC77","5A24B1BB-3CE8-4e84-AB09-BC217745EA3C","A62105D8-8A4A-412d-AB07-006EA3286682","0436485E-35D4-461b-AAB9-8AF46AED6202","7660F630-0E4F-40ea-8FDB-D379794D9872"],"group_id":"","hdr_settings":{"intensity":1.0,"mode":1,"nits":1000},"id":"44939A00-CECD-409f-875A-F4F837BF0281","intensifies_audio":false,"is_loop":false,"is_placeholder":false,"is_tone_modify":false,"keyframe_refs":[],"last_nonzero_volume":1.0,"lyric_keyframes":null,"material_id":"0EA3BA64-A57C-4170-9385-145844AB5B2F","raw_segment_id":"","render_index":0,"render_timerange":{"duration":0,"start":0},"responsive_layout":{"enable":false,"horizontal_pos_layout":0,"size_layout":0,"target_follow":"","vertical_pos_layout":0},"reverse":false,"source_timerange":{"duration":10000000,"start":0},"speed":1.0,"state":0,"target_timerange":{"duration":10000000,"start":64733333},"template_id":"","template_scene":"default","track_attribute":0,"track_render_index":0,"uniform_scale":{"on":true,"value":1.0},"visible":true,"volume":1.0},{"caption_info":null,"cartoon":false,"clip":{"alpha":1.0,"flip":{"horizontal":false,"vertical":false},"rotation":0.0,"scale":{"x":1.0,"y":1.0},"transform":{"x":0.0,"y":0.0}},"color_correct_alg_result":"","common_keyframes":[],"desc":"","digital_human_template_group_id":"","enable_adjust":true,"enable_adjust_mask":false,"enable_color_correct_adjust":false,"enable_color_curves":true,"enable_color_match_adjust":false,"enable_color_wheels":true,"enable_hsl":false,"enable_lut":true,"enable_smart_color_adjust":false,"enable_video_mask":true,"extra_material_refs":["25C8C3EE-7311-4f10-A6BF-2F42DA268104","9C4FCD12-C1A4-4e7a-BD4E-6604807D2A5F","E1DE110A-00FF-40e9-8F52-55DA18831F85","25663BD2-D960-4789-83C2-06A874756393","739D28E0-8A6C-451d-A8D1-FE3CBE85C70D"],"group_id":"","hdr_settings":{"intensity":1.0,"mode":1,"nits":1000},"id":"4119427A-BB06-4b7f-A1B7-2566961AE491","intensifies_audio":false,"is_loop":false,"is_placeholder":false,"is_tone_modify":false,"keyframe_refs":[],"last_nonzero_volume":1.0,"lyric_keyframes":null,"material_id":"D4DD3C9A-A8D1-4601-91C8-4EAF024F905A","raw_segment_id":"","render_index":0,"render_timerange":{"duration":0,"start":0},"responsive_layout":{"enable":false,"horizontal_pos_layout":0,"size_layout":0,"target_follow":"","vertical_pos_layout":0},"reverse":false,"source_timerange":{"duration":633333,"start":533333},"speed":1.0,"state":0,"target_timerange":{"duration":633333,"start":74733333},"template_id":"","template_scene":"default","track_attribute":0,"track_render_index":0,"uniform_scale":{"on":true,"value":1.0},"visible":true,"volume":1.0},{"caption_info":null,"cartoon":false,"clip":{"alpha":1.0,"flip":{"horizontal":false,"vertical":false},"rotation":0.0,"scale":{"x":1.0,"y":1.0},"transform":{"x":0.0,"y":0.0}},"color_correct_alg_result":"","common_keyframes":[],"desc":"","digital_human_template_group_id":"","enable_adjust":true,"enable_adjust_mask":false,"enable_color_correct_adjust":false,"enable_color_curves":true,"enable_color_match_adjust":false,"enable_color_wheels":true,"enable_hsl":false,"enable_lut":true,"enable_smart_color_adjust":false,"enable_video_mask":true,"extra_material_refs":["F4EFE842-D8D8-4eb7-8FAE-BAD8E38336C4","04A31DA6-8ADD-4ab8-BE9A-F679841C03BA","A2F488DF-B3CB-417d-B87F-1511A001564F","D5319DB3-078E-4143-992F-A3525F156DF8","4BEFB113-CB7D-4d3a-A863-F33FF3F5741F"],"group_id":"","hdr_settings":{"intensity":1.0,"mode":1,"nits":1000},"id":"C5FDC856-447D-4dda-9C38-3572C6F29BF6","intensifies_audio":false,"is_loop":false,"is_placeholder":false,"is_tone_modify":false,"keyframe_refs":[],"last_nonzero_volume":1.0,"lyric_keyframes":null,"material_id":"D1D9BF71-F0C9-4144-9690-995ADA691644","raw_segment_id":"","render_index":0,"render_timerange":{"duration":0,"start":0},"responsive_layout":{"enable":false,"horizontal_pos_layout":0,"size_layout":0,"target_follow":"","vertical_pos_layout":0},"reverse":false,"source_timerange":{"duration":2473333,"start":1166666},"speed":0.7,"state":0,"target_timerange":{"duration":3533334,"start":75366666},"template_id":"","template_scene":"default","track_attribute":0,"track_render_index":0,"uniform_scale":{"on":true,"value":1.0},"visible":true,"volume":1.0},{"caption_info":null,"cartoon":false,"clip":{"alpha":1.0,"flip":{"horizontal":false,"vertical":false},"rotation":0.0,"scale":{"x":1.0,"y":1.0},"transform":{"x":0.0,"y":0.0}},"color_correct_alg_result":"","common_keyframes":[],"desc":"","digital_human_template_group_id":"","enable_adjust":true,"enable_adjust_mask":false,"enable_color_correct_adjust":false,"enable_color_curves":true,"enable_color_match_adjust":false,"enable_color_wheels":true,"enable_hsl":false,"enable_lut":true,"enable_smart_color_adjust":false,"enable_video_mask":true,"extra_material_refs":["19F9F67C-1BE6-4bdb-A8DE-D1518AFAECF8","C3ED40E6-4539-4ae2-B253-5F00A1A6FED1","38D70356-D45A-425c-B457-DA9BDA102592","A95E65CD-400F-4f8a-802E-663B09BE260A","3634B272-6F8B-4f60-86CB-74BB515E1B01"],"group_id":"","hdr_settings":{"intensity":1.0,"mode":1,"nits":1000},"id":"42580ADC-45F3-4bb0-9FB5-D47FAF5872F6","intensifies_audio":false,"is_loop":false,"is_placeholder":false,"is_tone_modify":false,"keyframe_refs":[],"last_nonzero_volume":1.0,"lyric_keyframes":null,"material_id":"69A1D1CE-5687-4f0d-ADCE-5B8116BA3823","raw_segment_id":"","render_index":0,"render_timerange":{"duration":0,"start":0},"responsive_layout":{"enable":false,"horizontal_pos_layout":0,"size_layout":0,"target_follow":"","vertical_pos_layout":0},"reverse":false,"source_timerange":{"duration":6333332,"start":3633333},"speed":2.0,"state":0,"target_timerange":{"duration":3166666,"start":78900000},"template_id":"","template_scene":"default","track_attribute":0,"track_render_index":0,"uniform_scale":{"on":true,"value":1.0},"visible":true,"volume":1.0},{"caption_info":null,"cartoon":false,"clip":{"alpha":1.0,"flip":{"horizontal":false,"vertical":false},"rotation":0.0,"scale":{"x":1.0,"y":1.0},"transform":{"x":0.0,"y":0.0}},"color_correct_alg_result":"","common_keyframes":[],"desc":"","digital_human_template_group_id":"","enable_adjust":true,"enable_adjust_mask":false,"enable_color_correct_adjust":false,"enable_color_curves":true,"enable_color_match_adjust":false,"enable_color_wheels":true,"enable_hsl":false,"enable_lut":true,"enable_smart_color_adjust":false,"enable_video_mask":true,"extra_material_refs":["A489EF8F-5BCD-4fde-A05C-290123804DFA","C6C5D977-123C-4564-AF3C-8BF8339ADCF1","6401768A-39B2-4a05-92C7-58C4A9AF7C33","8BD49ECB-5D91-4908-976C-F7188A70EA14","3BA0F954-F647-4f01-BE0C-4DD54D4D8A31","C14A4C34-8BFE-4766-9CEC-15AF6B48BEF5","9B1D825B-41DA-4ab0-8170-98DCF12BAD49"],"group_id":"","hdr_settings":{"intensity":1.0,"mode":1,"nits":1000},"id":"6D4263B1-9A8F-46e6-81EA-6B8EE6B3032C","intensifies_audio":false,"is_loop":false,"is_placeholder":false,"is_tone_modify":false,"keyframe_refs":[],"last_nonzero_volume":1.0,"lyric_keyframes":null,"material_id":"51DFCFD9-43B4-479f-B666-0031E79C2C2C","raw_segment_id":"","render_index":0,"render_timerange":{"duration":0,"start":0},"responsive_layout":{"enable":false,"horizontal_pos_layout":0,"size_layout":0,"target_follow":"","vertical_pos_layout":0},"reverse":false,"source_timerange":{"duration":4466666,"start":2000000},"speed":1.0,"state":0,"target_timerange":{"duration":4466667,"start":82066666},"template_id":"","template_scene":"default","track_attribute":0,"track_render_index":0,"uniform_scale":{"on":true,"value":1.0},"visible":true,"volume":1.0},{"caption_info":null,"cartoon":false,"clip":{"alpha":1.0,"flip":{"horizontal":false,"vertical":false},"rotation":0.0,"scale":{"x":1.0,"y":1.0},"transform":{"x":0.0,"y":0.0}},"color_correct_alg_result":"","common_keyframes":[],"desc":"","digital_human_template_group_id":"","enable_adjust":true,"enable_adjust_mask":false,"enable_color_correct_adjust":false,"enable_color_curves":true,"enable_color_match_adjust":false,"enable_color_wheels":true,"enable_hsl":false,"enable_lut":true,"enable_smart_color_adjust":false,"enable_video_mask":true,"extra_material_refs":["138E5108-3BE4-4f79-9754-6CB6065B2B88","9A3195F7-1001-40c2-99E3-9A17477BB200","58A4F7DE-2A0C-48fe-AA6B-9F89DD372324","BAAE2442-4BDD-48cb-BE67-54BC34FD949D","417AA34D-A4E3-4ba7-8E96-0932DD262CBF","1B7E4114-F20D-4bb9-B0BA-8B36C02361A5","C64EC865-CF67-4e40-8F62-0D5D93D78200"],"group_id":"","hdr_settings":{"intensity":1.0,"mode":1,"nits":1000},"id":"2D6C71E2-2E3A-4520-8060-2A83063770FE","intensifies_audio":false,"is_loop":false,"is_placeholder":false,"is_tone_modify":false,"keyframe_refs":[],"last_nonzero_volume":1.0,"lyric_keyframes":null,"material_id":"0930945D-1B29-4c89-8869-EBAC17C8EF1B","raw_segment_id":"","render_index":0,"render_timerange":{"duration":0,"start":0},"responsive_layout":{"enable":false,"horizontal_pos_layout":0,"size_layout":0,"target_follow":"","vertical_pos_layout":0},"reverse":false,"source_timerange":{"duration":9466667,"start":533333},"speed":1.0,"state":0,"target_timerange":{"duration":9466667,"start":86533333},"template_id":"","template_scene":"default","track_attribute":0,"track_render_index":0,"uniform_scale":{"on":true,"value":1.0},"visible":true,"volume":1.0},{"caption_info":null,"cartoon":false,"clip":{"alpha":1.0,"flip":{"horizontal":false,"vertical":false},"rotation":0.0,"scale":{"x":1.0,"y":1.0},"transform":{"x":0.0,"y":0.0}},"color_correct_alg_result":"","common_keyframes":[],"desc":"","digital_human_template_group_id":"","enable_adjust":true,"enable_adjust_mask":false,"enable_color_correct_adjust":false,"enable_color_curves":true,"enable_color_match_adjust":false,"enable_color_wheels":true,"enable_hsl":false,"enable_lut":true,"enable_smart_color_adjust":false,"enable_video_mask":true,"extra_material_refs":["416C6F02-40F2-41a6-8315-9CC50EB50A35","4C8F9A07-8EA1-4297-A603-4CFF62D89594","81CB3D12-EA9E-41cb-9A93-E3C4EB46A1FC","CF4B94E1-0FA3-4f61-8AAC-B1CA0D060439","FD94E61E-98C4-4ce7-9009-3679A9F9D452","276ADDE2-1F1A-41ce-8641-34EB639A8985"],"group_id":"","hdr_settings":{"intensity":1.0,"mode":1,"nits":1000},"id":"4A3B5B8B-BBB4-4dbf-ACB9-DABB6E689DE9","intensifies_audio":false,"is_loop":false,"is_placeholder":false,"is_tone_modify":false,"keyframe_refs":[],"last_nonzero_volume":1.0,"lyric_keyframes":null,"material_id":"46F6B831-E840-4874-AA3A-8CD7703BCD91","raw_segment_id":"","render_index":0,"render_timerange":{"duration":0,"start":0},"responsive_layout":{"enable":false,"horizontal_pos_layout":0,"size_layout":0,"target_follow":"","vertical_pos_layout":0},"reverse":false,"source_timerange":{"duration":1833333,"start":500000},"speed":1.0,"state":0,"target_timerange":{"duration":1833333,"start":96000000},"template_id":"","template_scene":"default","track_attribute":0,"track_render_index":0,"uniform_scale":{"on":true,"value":1.0},"visible":true,"volume":1.0},{"caption_info":null,"cartoon":false,"clip":{"alpha":1.0,"flip":{"horizontal":false,"vertical":false},"rotation":0.0,"scale":{"x":1.0,"y":1.0},"transform":{"x":0.0,"y":0.0}},"color_correct_alg_result":"","common_keyframes":[],"desc":"","digital_human_template_group_id":"","enable_adjust":true,"enable_adjust_mask":false,"enable_color_correct_adjust":false,"enable_color_curves":true,"enable_color_match_adjust":false,"enable_color_wheels":true,"enable_hsl":false,"enable_lut":true,"enable_smart_color_adjust":false,"enable_video_mask":true,"extra_material_refs":["63B2015B-DF3E-4b33-8510-842C755F74ED","17C3F732-57D8-46ee-8BA6-9A8607DE3277","70735C11-72DC-43bf-BD4B-7284F8A7C37B","52FFA38A-0E78-475b-8ED0-2475C097460F","97CD03AB-10A0-4671-B725-6B8FE87F2254","311F1897-3C8D-4e69-A0C7-2FFC594F76A9","81AEEF4B-2A20-4432-BD18-0299CDDAA5C5"],"group_id":"","hdr_settings":{"intensity":1.0,"mode":1,"nits":1000},"id":"BC804BDA-2BDB-41b4-9DBA-749773DA6A97","intensifies_audio":false,"is_loop":false,"is_placeholder":false,"is_tone_modify":false,"keyframe_refs":[],"last_nonzero_volume":1.0,"lyric_keyframes":null,"material_id":"76851E41-2C9D-495f-818C-B84FD668A00D","raw_segment_id":"","render_index":0,"render_timerange":{"duration":0,"start":0},"responsive_layout":{"enable":false,"horizontal_pos_layout":0,"size_layout":0,"target_follow":"","vertical_pos_layout":0},"reverse":false,"source_timerange":{"duration":7650000,"start":2333333},"speed":1.5,"state":0,"target_timerange":{"duration":5100000,"start":97833333},"template_id":"","template_scene":"default","track_attribute":0,"track_render_index":0,"uniform_scale":{"on":true,"value":1.0},"visible":true,"volume":1.0},{"caption_info":null,"cartoon":false,"clip":{"alpha":1.0,"flip":{"horizontal":false,"vertical":false},"rotation":0.0,"scale":{"x":1.0,"y":1.0},"transform":{"x":0.0,"y":0.0}},"color_correct_alg_result":"","common_keyframes":[],"desc":"","digital_human_template_group_id":"","enable_adjust":true,"enable_adjust_mask":false,"enable_color_correct_adjust":false,"enable_color_curves":true,"enable_color_match_adjust":false,"enable_color_wheels":true,"enable_hsl":false,"enable_lut":true,"enable_smart_color_adjust":false,"enable_video_mask":true,"extra_material_refs":["92F775E3-7AB6-42e1-9D98-E47736A02A80","6375B1A4-FDD5-4c40-95EC-4F0E3ED7928D","F15E66FB-48C8-43b1-966A-E6C4BB356886","1BE58F41-12DA-4c29-A29B-8A5D242FFD99","0A7D0641-6080-496f-BFAC-D97E9730A98D","327F6C5A-BB0B-434f-A9C9-61DFBA08FA47"],"group_id":"","hdr_settings":{"intensity":1.0,"mode":1,"nits":1000},"id":"5EB7ABD1-A10D-4ab4-B81F-A2D8C87BE379","intensifies_audio":false,"is_loop":false,"is_placeholder":false,"is_tone_modify":false,"keyframe_refs":[],"last_nonzero_volume":1.0,"lyric_keyframes":null,"material_id":"F427F4FD-BED5-4f5d-B821-F2822BCCF8CB","raw_segment_id":"","render_index":0,"render_timerange":{"duration":0,"start":0},"responsive_layout":{"enable":false,"horizontal_pos_layout":0,"size_layout":0,"target_follow":"","vertical_pos_layout":0},"reverse":false,"source_timerange":{"duration":5049999,"start":466666},"speed":1.5,"state":0,"target_timerange":{"duration":3366667,"start":102933333},"template_id":"","template_scene":"default","track_attribute":0,"track_render_index":0,"uniform_scale":{"on":true,"value":1.0},"visible":true,"volume":1.0},{"caption_info":null,"cartoon":false,"clip":{"alpha":1.0,"flip":{"horizontal":false,"vertical":false},"rotation":0.0,"scale":{"x":1.0,"y":1.0},"transform":{"x":0.0,"y":0.0}},"color_correct_alg_result":"","common_keyframes":[],"desc":"","digital_human_template_group_id":"","enable_adjust":true,"enable_adjust_mask":false,"enable_color_correct_adjust":false,"enable_color_curves":true,"enable_color_match_adjust":false,"enable_color_wheels":true,"enable_hsl":false,"enable_lut":true,"enable_smart_color_adjust":false,"enable_video_mask":true,"extra_material_refs":["E32F161E-ABA0-48bb-8366-0784FE435F23","37718C81-9EA9-4ae9-97FC-78FBFC745AE4","109B5397-B8E7-4985-B480-39FF6EA79409","39CCD783-59EE-4c96-9CBA-CE8CF246860E","94D588D5-9BFD-4d7d-8419-38B10A8745BF","B00A1CF5-05A1-4e02-91AF-95FA2B9B2D27","7C168503-8154-4d10-A7D9-844FF153493D"],"group_id":"","hdr_settings":{"intensity":1.0,"mode":1,"nits":1000},"id":"B97073FD-F925-4f61-9CD7-AA60F640AED1","intensifies_audio":false,"is_loop":false,"is_placeholder":false,"is_tone_modify":false,"keyframe_refs":[],"last_nonzero_volume":1.0,"lyric_keyframes":null,"material_id":"394998C2-51B9-434f-BF6C-5F7673FE136E","raw_segment_id":"","render_index":0,"render_timerange":{"duration":0,"start":0},"responsive_layout":{"enable":false,"horizontal_pos_layout":0,"size_layout":0,"target_follow":"","vertical_pos_layout":0},"reverse":false,"source_timerange":{"duration":4466667,"start":5533333},"speed":1.0,"state":0,"target_timerange":{"duration":4466666,"start":106300000},"template_id":"","template_scene":"default","track_attribute":0,"track_render_index":0,"uniform_scale":{"on":true,"value":1.0},"visible":true,"volume":1.0},{"caption_info":null,"cartoon":false,"clip":{"alpha":1.0,"flip":{"horizontal":false,"vertical":false},"rotation":0.0,"scale":{"x":1.0,"y":1.0},"transform":{"x":0.0,"y":0.0}},"color_correct_alg_result":"","common_keyframes":[],"desc":"","digital_human_template_group_id":"","enable_adjust":true,"enable_adjust_mask":false,"enable_color_correct_adjust":false,"enable_color_curves":true,"enable_color_match_adjust":false,"enable_color_wheels":true,"enable_hsl":false,"enable_lut":true,"enable_smart_color_adjust":false,"enable_video_mask":true,"extra_material_refs":["753B0E95-9E60-4f47-B6E7-F56E49289B41","42155C1D-FE2E-4402-88F4-704D020D4907","8C20E3AF-5E5D-45bf-96CC-B84C0E89B6B0","9E63F040-EAEC-4317-B911-710C58677BF8","0CD02676-074A-44b8-B516-4CC23FFE634E","E4FA8E2D-D531-490e-8E22-E222BC2A1854"],"group_id":"","hdr_settings":{"intensity":1.0,"mode":1,"nits":1000},"id":"38E458EF-6F36-431a-B5F4-E55A491C4732","intensifies_audio":false,"is_loop":false,"is_placeholder":false,"is_tone_modify":false,"keyframe_refs":[],"last_nonzero_volume":1.0,"lyric_keyframes":null,"material_id":"816316C1-B52C-4dcc-86B5-3F8E4297836C","raw_segment_id":"","render_index":0,"render_timerange":{"duration":0,"start":0},"responsive_layout":{"enable":false,"horizontal_pos_layout":0,"size_layout":0,"target_follow":"","vertical_pos_layout":0},"reverse":false,"source_timerange":{"duration":4233333,"start":400000},"speed":1.0,"state":0,"target_timerange":{"duration":4233334,"start":110766666},"template_id":"","template_scene":"default","track_attribute":0,"track_render_index":0,"uniform_scale":{"on":true,"value":1.0},"visible":true,"volume":1.0}],"type":"video"},{"attribute":0,"flag":0,"id":"248A610A-F6B1-47b2-AAAA-5A837DA34EF6","is_default_name":true,"name":"","segments":[{"caption_info":null,"cartoon":false,"clip":null,"color_correct_alg_result":"","common_keyframes":[],"desc":"","digital_human_template_group_id":"","enable_adjust":false,"enable_adjust_mask":false,"enable_color_correct_adjust":false,"enable_color_curves":true,"enable_color_match_adjust":false,"enable_color_wheels":true,"enable_hsl":false,"enable_lut":false,"enable_smart_color_adjust":false,"enable_video_mask":true,"extra_material_refs":["6B18E7B7-FFFD-4055-91CD-44BC032FEBCC","285BFB7F-7FCC-43a7-8036-0D278E4E3484","429D9469-75F8-4664-9FA9-C0DD9C042B8F","9F1FE810-49E7-4ee6-B3F0-DF430A6C645B","C89B4F55-66E9-4ada-A119-7630AF6D55A5"],"group_id":"","hdr_settings":null,"id":"250E9A01-5C8D-4187-9EDF-9E3EF3213FF2","intensifies_audio":false,"is_loop":false,"is_placeholder":false,"is_tone_modify":false,"keyframe_refs":[],"last_nonzero_volume":1.0,"lyric_keyframes":null,"material_id":"FBE557E4-A3D0-4a32-BD19-7CC78BCB1368","raw_segment_id":"","render_index":0,"render_timerange":{"duration":0,"start":0},"responsive_layout":{"enable":false,"horizontal_pos_layout":0,"size_layout":0,"target_follow":"","vertical_pos_layout":0},"reverse":false,"source_timerange":{"duration":116366666,"start":0},"speed":1.0,"state":0,"target_timerange":{"duration":116366666,"start":0},"template_id":"","template_scene":"default","track_attribute":0,"track_render_index":1,"uniform_scale":null,"visible":true,"volume":1.0}],"type":"audio"}],"uneven_animation_template_info":{"composition":"","content":"","order":"","sub_template_info_list":[]},"update_time":0,"version":360000}